<?xml version="1.0" encoding="iso-8859-1"?>
<!-- Generator: Adobe Illustrator 19.0.0, SVG Export Plug-In . SVG Version: 6.00 Build 0)  -->
<svg version="1.1" id="Layer_1" xmlns="http://www.w3.org/2000/svg" xmlns:xlink="http://www.w3.org/1999/xlink" x="0px" y="0px"
	 viewBox="0 0 509.287 509.287" style="enable-background:new 0 0 509.287 509.287;" xml:space="preserve">
<circle style="fill:#FBD303;" cx="254.644" cy="254.644" r="254.644"/>
<polygon style="fill:#FCFCFD;" points="289.229,345.854 220.058,345.854 90.532,205.817 418.755,205.817 "/>
<polygon style="fill:#F1F3F7;" points="289.229,461.817 220.058,485.552 220.058,345.854 289.229,345.854 "/>
<g>
	<path style="fill:#4F5565;" d="M156.313,128.17c-2.034,0-3.73-1.695-3.73-3.73V85.785h-4.747c-2.034,0-3.73-1.695-3.73-3.73
		s1.695-3.73,3.73-3.73h8.477c2.034,0,3.73,1.695,3.73,3.73v42.045C160.042,126.474,158.347,128.17,156.313,128.17z"/>
	<path style="fill:#4F5565;" d="M253.966,128.17c-2.034,0-3.73-1.695-3.73-3.73V85.785h-4.747c-2.034,0-3.73-1.695-3.73-3.73
		s1.695-3.73,3.73-3.73h8.477c2.034,0,3.73,1.695,3.73,3.73v42.045C257.695,126.474,256,128.17,253.966,128.17z"/>
	<path style="fill:#4F5565;" d="M125.118,128.848c-4.747,0-8.816-3.052-11.868-8.477c-2.374-4.747-3.73-10.511-3.73-16.954
		c0-6.442,1.356-12.207,3.73-16.954c3.052-5.425,7.121-8.477,11.868-8.477s8.816,3.052,11.868,8.477
		c2.374,4.747,3.73,10.511,3.73,16.954c0,6.442-1.356,12.207-3.73,16.954C133.934,125.796,129.865,128.848,125.118,128.848z
		 M125.118,86.464c-2.713,0-7.121,6.781-7.121,16.954s4.408,16.954,7.121,16.954s7.121-6.781,7.121-16.954
		C132.238,93.245,128.17,86.464,125.118,86.464z"/>
	<path style="fill:#4F5565;" d="M184.117,128.848c-4.747,0-8.816-3.052-11.868-8.477c-2.374-4.747-3.73-10.511-3.73-16.954
		c0-6.442,1.356-12.207,3.73-16.954c3.052-5.425,7.121-8.477,11.868-8.477s8.816,3.052,11.868,8.477
		c2.374,4.747,3.73,10.511,3.73,16.954c0,6.442-1.356,12.207-3.73,16.954C192.932,125.796,188.864,128.848,184.117,128.848z
		 M184.117,86.464c-2.713,0-7.121,6.781-7.121,16.954s4.408,16.954,7.121,16.954c2.713,0,7.121-6.781,7.121-16.954
		C191.237,93.245,186.829,86.464,184.117,86.464z"/>
	<path style="fill:#4F5565;" d="M221.754,128.848c-4.747,0-8.816-3.052-11.868-8.477c-2.374-4.747-3.73-10.511-3.73-16.954
		c0-6.442,1.356-12.207,3.73-16.954c3.052-5.425,7.121-8.477,11.868-8.477s8.816,3.052,11.868,8.477
		c2.373,4.747,3.73,10.511,3.73,16.954c0,6.442-1.356,12.207-3.73,16.954C230.57,125.796,226.501,128.848,221.754,128.848z
		 M221.754,86.464c-2.713,0-7.121,6.781-7.121,16.954s4.408,16.954,7.121,16.954s7.121-6.781,7.121-16.954
		C228.874,93.245,224.805,86.464,221.754,86.464z"/>
	<path style="fill:#4F5565;" d="M355.009,128.17c-2.034,0-3.73-1.695-3.73-3.73V85.785h-4.747c-2.034,0-3.73-1.695-3.73-3.73
		s1.695-3.73,3.73-3.73h8.477c2.034,0,3.73,1.695,3.73,3.73v42.045C358.739,126.474,357.044,128.17,355.009,128.17z"/>
	<path style="fill:#4F5565;" d="M285.16,128.848c-4.747,0-8.816-3.052-11.868-8.477c-2.374-4.747-3.73-10.511-3.73-16.954
		c0-6.442,1.356-12.207,3.73-16.954c3.052-5.425,7.121-8.477,11.868-8.477c4.747,0,8.816,3.052,11.868,8.477
		c2.374,4.747,3.73,10.511,3.73,16.954c0,6.442-1.356,12.207-3.73,16.954C293.976,125.796,289.907,128.848,285.16,128.848z
		 M285.16,86.464c-2.713,0-7.121,6.781-7.121,16.954s4.408,16.954,7.121,16.954c2.713,0,7.121-6.781,7.121-16.954
		C292.281,93.245,287.873,86.464,285.16,86.464z"/>
	<path style="fill:#4F5565;" d="M322.797,128.848c-4.747,0-8.816-3.052-11.868-8.477c-2.373-4.747-3.73-10.511-3.73-16.954
		c0-6.442,1.356-12.207,3.73-16.954c3.052-5.425,7.121-8.477,11.868-8.477c4.747,0,8.816,3.052,11.868,8.477
		c2.374,4.747,3.73,10.511,3.73,16.954c0,6.442-1.356,12.207-3.73,16.954C331.613,125.796,327.544,128.848,322.797,128.848z
		 M322.797,86.464c-2.713,0-7.121,6.781-7.121,16.954s4.408,16.954,7.121,16.954c2.713,0,7.121-6.781,7.121-16.954
		C329.918,93.245,325.51,86.464,322.797,86.464z"/>
	<path style="fill:#4F5565;" d="M383.491,128.848c-4.747,0-8.816-3.052-11.868-8.477c-2.374-4.747-3.73-10.511-3.73-16.954
		c0-6.442,1.356-12.207,3.73-16.954c3.052-5.425,7.121-8.477,11.868-8.477c4.747,0,8.816,3.052,11.868,8.477
		c2.373,4.747,3.73,10.511,3.73,16.954c0,6.442-1.356,12.207-3.73,16.954C392.307,125.796,388.238,128.848,383.491,128.848z
		 M383.491,86.464c-2.713,0-7.121,6.781-7.121,16.954s4.408,16.954,7.121,16.954c2.713,0,7.121-6.781,7.121-16.954
		C390.612,93.245,386.204,86.464,383.491,86.464z"/>
	<path style="fill:#4F5565;" d="M119.354,190.22c-2.034,0-3.73-1.695-3.73-3.73v-38.315h-4.747c-2.034,0-3.73-1.695-3.73-3.73
		c0-2.034,1.695-3.73,3.73-3.73h8.477c2.034,0,3.73,1.695,3.73,3.73v42.045C123.083,188.524,121.388,190.22,119.354,190.22z"/>
	<path style="fill:#4F5565;" d="M217.007,190.22c-2.034,0-3.73-1.695-3.73-3.73v-38.315h-4.747c-2.034,0-3.73-1.695-3.73-3.73
		c0-2.034,1.695-3.73,3.73-3.73h8.477c2.034,0,3.73,1.695,3.73,3.73v42.045C220.736,188.524,219.041,190.22,217.007,190.22z"/>
	<path style="fill:#4F5565;" d="M386.204,190.898c-4.747,0-8.816-3.052-11.868-8.477c-2.374-4.747-3.73-10.511-3.73-16.954
		c0-6.442,1.356-12.207,3.73-16.954c3.052-5.425,7.121-8.477,11.868-8.477c4.747,0,8.816,3.052,11.868,8.477
		c2.374,4.747,3.73,10.511,3.73,16.954c0,6.442-1.356,12.207-3.73,16.954C395.02,187.846,390.612,190.898,386.204,190.898z
		 M386.204,148.514c-2.713,0-7.121,6.781-7.121,16.954s4.408,16.954,7.121,16.954c2.713,0,7.121-6.781,7.121-16.954
		S388.917,148.514,386.204,148.514z"/>
	<path style="fill:#4F5565;" d="M147.158,190.898c-4.747,0-8.816-3.052-11.868-8.477c-2.374-4.747-3.73-10.511-3.73-16.954
		c0-6.442,1.356-12.207,3.73-16.954c3.052-5.425,7.121-8.477,11.868-8.477s8.816,3.052,11.868,8.477
		c2.374,4.747,3.73,10.511,3.73,16.954c0,6.442-1.356,12.207-3.73,16.954C155.974,187.846,151.905,190.898,147.158,190.898z
		 M147.158,148.514c-2.713,0-7.121,6.781-7.121,16.954s4.408,16.954,7.121,16.954s7.121-6.781,7.121-16.954
		C154.278,155.295,149.87,148.514,147.158,148.514z"/>
	<path style="fill:#4F5565;" d="M184.795,190.898c-4.747,0-8.816-3.052-11.868-8.477c-2.374-4.747-3.73-10.511-3.73-16.954
		c0-6.442,1.356-12.207,3.73-16.954c3.052-5.425,7.121-8.477,11.868-8.477s8.816,3.052,11.868,8.477
		c2.374,4.747,3.73,10.511,3.73,16.954c0,6.442-1.356,12.207-3.73,16.954C193.611,187.846,189.542,190.898,184.795,190.898z
		 M184.795,148.514c-2.713,0-7.121,6.781-7.121,16.954s4.408,16.954,7.121,16.954c2.713,0,7.121-6.781,7.121-16.954
		S187.846,148.514,184.795,148.514z"/>
	<path style="fill:#4F5565;" d="M318.05,190.22c-2.034,0-3.73-1.695-3.73-3.73v-38.315h-4.747c-2.034,0-3.73-1.695-3.73-3.73
		c0-2.034,1.695-3.73,3.73-3.73h8.477c2.034,0,3.73,1.695,3.73,3.73v42.045C321.78,188.524,320.085,190.22,318.05,190.22z"/>
	<path style="fill:#4F5565;" d="M248.201,190.898c-4.747,0-8.816-3.052-11.868-8.477c-2.374-4.747-3.73-10.511-3.73-16.954
		c0-6.442,1.356-12.207,3.73-16.954c3.052-5.425,7.121-8.477,11.868-8.477s8.816,3.052,11.868,8.477
		c2.373,4.747,3.73,10.511,3.73,16.954c0,6.442-1.356,12.207-3.73,16.954C257.017,187.846,252.948,190.898,248.201,190.898z
		 M248.201,148.514c-2.713,0-7.121,6.781-7.121,16.954s4.408,16.954,7.121,16.954c2.713,0,7.121-6.781,7.121-16.954
		S250.914,148.514,248.201,148.514z"/>
	<path style="fill:#4F5565;" d="M285.838,190.898c-4.747,0-8.816-3.052-11.868-8.477c-2.374-4.747-3.73-10.511-3.73-16.954
		c0-6.442,1.356-12.207,3.73-16.954c3.052-5.425,7.121-8.477,11.868-8.477c4.747,0,8.816,3.052,11.868,8.477
		c2.374,4.747,3.73,10.511,3.73,16.954c0,6.442-1.356,12.207-3.73,16.954C294.654,187.846,290.585,190.898,285.838,190.898z
		 M285.838,148.514c-2.713,0-7.121,6.781-7.121,16.954s4.408,16.954,7.121,16.954s7.121-6.781,7.121-16.954
		C292.959,155.295,288.551,148.514,285.838,148.514z"/>
	<path style="fill:#4F5565;" d="M346.532,190.898c-4.747,0-8.816-3.052-11.868-8.477c-2.374-4.747-3.73-10.511-3.73-16.954
		c0-6.442,1.356-12.207,3.73-16.954c3.052-5.425,7.121-8.477,11.868-8.477c4.747,0,8.816,3.052,11.868,8.477
		c2.374,4.747,3.73,10.511,3.73,16.954c0,6.442-1.356,12.207-3.73,16.954C355.348,187.846,351.279,190.898,346.532,190.898z
		 M346.532,148.514c-2.713,0-7.121,6.781-7.121,16.954s4.408,16.954,7.121,16.954s7.121-6.781,7.121-16.954
		S349.245,148.514,346.532,148.514z"/>
</g>
<g>
</g>
<g>
</g>
<g>
</g>
<g>
</g>
<g>
</g>
<g>
</g>
<g>
</g>
<g>
</g>
<g>
</g>
<g>
</g>
<g>
</g>
<g>
</g>
<g>
</g>
<g>
</g>
<g>
</g>
</svg>
