<?xml version="1.0" encoding="utf-8"?>
<!-- Generator: Adobe Illustrator 23.0.0, SVG Export Plug-In . SVG Version: 6.00 Build 0)  -->
<svg version="1.1" id="Layer_3" xmlns="http://www.w3.org/2000/svg" xmlns:xlink="http://www.w3.org/1999/xlink" x="0px" y="0px"
	 viewBox="0 0 512 512" style="enable-background:new 0 0 512 512;" xml:space="preserve">
<style type="text/css">
	.st0{fill:#E6AE48;}
	.st1{font-family:'MyriadPro-Regular';}
	.st2{font-size:12px;}
</style>
<g>
	<path class="st0" d="M256,24V8C119.2,8,8,119.2,8,256h16C24,128.1,128.1,24,256,24z"/>
	<path class="st0" d="M488,256c0,127.9-104.1,232-232,232v16c136.8,0,248-111.2,248-248H488z"/>
	<path class="st0" d="M472,256c0-45-13.7-88-39.6-124.6l-13.1,9.2c24,33.9,36.6,73.8,36.6,115.4c0,110.3-89.7,200-200,200
		S56,366.3,56,256S145.7,56,256,56c48.4,0,93.8,16.9,130,48h-42v16h64c4.4,0,8-3.6,8-8V48h-16v47.1C360.4,59.5,309.9,40,256,40
		C136.9,40,40,136.9,40,256s96.9,216,216,216S472,375.1,472,256z"/>
	<path class="st0" d="M256,96c-88.2,0-160,71.8-160,160s71.8,160,160,160s160-71.8,160-160S344.2,96,256,96z M399.6,264
		c-1.9,33.7-15.3,64.2-36.4,87.8l-21.5-21.5l-11.3,11.3l21.5,21.5c-23.6,21.2-54.2,34.6-87.8,36.4V368h-16v31.6
		c-33.7-1.9-64.2-15.3-87.8-36.4l21.5-21.5l-11.3-11.3l-21.5,21.5c-21.2-23.6-34.6-54.2-36.4-87.8H144v-16h-31.6
		c1.9-33.7,15.3-64.2,36.4-87.8l21.5,21.5l11.3-11.3l-21.5-21.5c23.6-21.2,54.2-34.6,87.8-36.4V144h16v-31.6
		c33.7,1.9,64.2,15.3,87.8,36.4l-21.5,21.5l11.3,11.3l21.5-21.5c21.2,23.6,34.6,54.2,36.4,87.8H368v16L399.6,264z"/>
	<path class="st0" d="M240,208h-56c-4.4,0-8,3.6-8,8v24h16v-16h40v18.7l-51.2,21.9c-2.9,1.3-4.8,4.2-4.8,7.4v24c0,4.4,3.6,8,8,8h64
		v-16h-56v-10.7l51.2-21.9c2.9-1.3,4.8-4.2,4.8-7.4v-32C248,211.6,244.4,208,240,208L240,208z"/>
	<path class="st0" d="M320,256h-40v-48h-16v56c0,4.4,3.6,8,8,8h48v32h16v-96h-16V256z"/>
	<text transform="matrix(1 0 0 1 35 24)" class="st0 st1 st2">#E6AE48</text>
</g>
</svg>
