<?xml version="1.0" encoding="utf-8"?>
<!-- Generator: Adobe Illustrator 23.0.0, SVG Export Plug-In . SVG Version: 6.00 Build 0)  -->
<svg version="1.1" id="Layer_1" focusable="false" xmlns="http://www.w3.org/2000/svg" xmlns:xlink="http://www.w3.org/1999/xlink"
	 x="0px" y="0px" viewBox="0 0 300.1 502.5" style="enable-background:new 0 0 300.1 502.5;" xml:space="preserve">
<style type="text/css">
	.st0{fill:#E6AE48;}
</style>
<path class="st0" d="M190.2,502.5h-78.5v-72.8c-14.9-1.8-29.6-4.9-43.9-9c-25.9-7.5-47.1-17.5-63.1-29.7L0,387.4l33-73.2l7.5,5.5
	c13.9,10.2,30.7,18.5,49.9,24.7c10,3.2,20,5.6,29.9,7.2c9.3,1.5,18.8,2.2,28.2,2.2c12.8,0,23.7-1.1,32.3-3.4
	c5.3-1.4,9.8-3.2,13.4-5.5c8.5-5.3,12.5-11.7,12.5-20.2c0-5.9-2.2-10.5-6.8-14.5c-5.1-4.3-11.7-7.9-19.7-10.8
	c-0.7-0.3-1.4-0.5-2.2-0.7c-9.6-3.1-22.9-6.7-39.5-10.5c-7.4-1.7-14.5-3.5-21.3-5.3c-16.8-4.4-31.4-9-43.4-13.4
	c-17.7-6.6-33-17.3-45.6-31.8c-13-15-19.6-35-19.6-59.4c0-21.2,5.8-40.7,17.3-57.9s28.9-31,51.7-40.9c10.3-4.5,21.7-8,34.1-10.4V0
	h78.5v66.3c11.9,1.3,23.6,3.4,35.1,6.3c21.5,5.4,40.5,13.2,56.7,23.3l5.3,3.3l-29.9,73.6l-7.4-4.2c-22.7-12.9-45.7-21-68.3-24.2
	c-7.4-1-15-1.6-22.4-1.6c-15.5,0-28.1,1.9-37.2,5.5c-2.8,1.1-5.3,2.4-7.5,3.9c-8.5,5.8-12.5,12.8-12.5,22c0,5.5,1.4,13.4,13.9,19.2
	c1.8,0.9,3.8,1.7,6,2.6c11.6,4.6,27.7,9.2,48.1,13.7h0.1c5.3,1.3,10,2.4,14.3,3.5c19.7,5,36.6,10.1,50.3,15.2
	c17.6,6.6,33,17.1,45.6,31.2l0,0c13,14.7,19.7,34.5,19.7,59c0,20.9-5.9,40.3-17.6,57.5c-11.6,17.2-29.2,31-52.2,40.9
	c-12,5.2-25.5,9-40.1,11.5L190.2,502.5L190.2,502.5z M126.7,487.5h48.5v-71.8l6.5-0.9c15.9-2.1,30.2-6,42.7-11.4
	c20.3-8.8,35.7-20.7,45.7-35.5c10-14.7,15-31.2,15-49.1c0-20.7-5.3-37.2-15.9-49l0,0c-11-12.3-24.3-21.5-39.6-27.2
	c-13.2-4.9-29.6-9.9-48.8-14.8c-4.2-1.1-8.8-2.2-14.1-3.5c-21.1-4.7-38.1-9.5-50.4-14.4c-2.5-1-4.8-2-6.9-3
	C90.9,198.4,87,184.5,87,174.3c0-14.3,6.4-25.9,19.1-34.4c3.1-2.1,6.5-3.9,10.3-5.4c10.9-4.4,25.3-6.6,42.8-6.6
	c8.1,0,16.4,0.6,24.5,1.7c22,3.1,44.2,10.5,66.1,21.9l18.7-46.1c-13.6-7.7-29.4-13.9-47-18.3c-12.9-3.2-26.2-5.4-39.6-6.6l-6.9-0.6
	V15h-48.5v66.5l-6.3,1c-13.5,2.2-25.9,5.8-36.8,10.5c-20.1,8.8-35.3,20.7-45.2,35.5c-9.8,14.7-14.8,31.4-14.8,49.6
	c0,20.8,5.4,37.4,15.9,49.6c11,12.6,24.3,21.9,39.5,27.6c11.6,4.3,25.7,8.7,42,13c6.6,1.8,13.6,3.5,20.9,5.2
	c16.9,3.9,30.7,7.6,40.8,10.9c0.9,0.3,1.7,0.6,2.5,0.9c9.7,3.4,17.9,8,24.4,13.5c8.1,6.8,12.1,15.5,12.1,25.9
	c0,13.6-6.8,24.9-19.6,32.9c-4.8,3-10.7,5.4-17.5,7.2c-9.8,2.6-22,3.9-36.1,3.9c-10.2,0-20.4-0.8-30.5-2.4
	c-10.6-1.7-21.5-4.2-32.2-7.7C68.2,353,52.5,345.7,39,336.9l-20.6,45.6c13.9,9.5,31.8,17.5,53.3,23.8c15.6,4.5,31.7,7.6,47.9,9.3
	l6.8,0.7v71.2H126.7z"/>
</svg>
