<?xml version="1.0" encoding="utf-8"?>
<!-- Generator: Adobe Illustrator 23.0.0, SVG Export Plug-In . SVG Version: 6.00 Build 0)  -->
<svg version="1.1" id="Capa_1" xmlns="http://www.w3.org/2000/svg" xmlns:xlink="http://www.w3.org/1999/xlink" x="0px" y="0px"
	 viewBox="0 0 511 511" style="enable-background:new 0 0 511 511;" xml:space="preserve">
<style type="text/css">
	.st0{fill:#FFFFFF;}
</style>
<g>
	<rect x="325.3" y="31.8" class="st0" width="18.8" height="27.7"/>
	<rect x="325.3" y="71.4" class="st0" width="18.8" height="67.3"/>
	<path class="st0" d="M388.6,206.5V257h15.8v52.5h-12.9v-23.8H280.7v-12.9h95V0.6H135.2v272.2h95v12.9H119.4v23.8h-12.9V257h15.8
		v-50.5H48.1V257h39.6v71.3h31.7V352h110.9v107.9h-61.9c-13.9,0-25.2,11.3-25.2,25.2s11.3,25.2,25.2,25.2
		c13.9,0,25.2-11.3,25.2-25.2c0-2.2-0.3-4.3-0.8-6.4h125.4c-0.6,2.1-0.8,4.2-0.8,6.4c0,13.9,11.3,25.2,25.2,25.2
		s25.2-11.3,25.2-25.2s-11.3-25.2-25.2-25.2h-61.9V352h110.9v-23.8h31.7V257h39.6v-50.5H388.6z M336.2,485.1c0-3.5,2.9-6.4,6.4-6.4
		s6.4,2.9,6.4,6.4s-2.9,6.4-6.4,6.4S336.2,488.7,336.2,485.1z M168.4,491.6c-3.5,0-6.4-2.9-6.4-6.4s2.9-6.4,6.4-6.4
		c3.5,0,6.4,2.9,6.4,6.4S171.9,491.6,168.4,491.6z M103.6,225.3v12.9H66.9v-12.9H103.6z M261.9,352v107.9h-12.9V352H261.9z
		 M138.2,333.2v-28.7h234.6v28.7H138.2z M249.1,285.7v-12.9h12.9v12.9H249.1z M357,19.4V254H154V19.4H357z M444.1,225.3v12.9h-36.6
		v-12.9H444.1z"/>
</g>
</svg>
