<?xml version="1.0"?>
<svg xmlns="http://www.w3.org/2000/svg" xmlns:xlink="http://www.w3.org/1999/xlink" version="1.1" id="Capa_1" x="0px" y="0px" viewBox="0 0 491.582 491.582" style="enable-background:new 0 0 491.582 491.582;" xml:space="preserve" width="512px" height="512px" class=""><g><path d="M366.699,426.976c-29.223,11.323-64.107,16.943-104.736,16.943c-42.127,0-79.55-6.744-112.228-20.231  c-32.719-13.529-58.112-34.967-76.22-64.357c-18.067-29.389-27.1-62.025-27.1-97.867c0-36.84,8.076-72.307,24.311-106.359  c16.235-34.093,40.337-60.485,72.391-79.259c32.012-18.775,71.017-28.182,117.057-28.182c54.2,0,96.41,14.07,126.673,42.211  c30.222,28.098,45.333,63.066,45.333,104.818c0,23.312-5.328,45.79-16.027,67.562c-10.698,21.729-24.727,39.047-42.044,51.952  c-12.947,9.866-23.478,14.778-31.596,14.778c-2.747,0-5.078-1.041-7.035-3.163c-1.957-2.124-2.914-5.328-2.914-9.575  c0-3.372,1.165-10.864,3.58-22.396l38.465-182.703h-67.271l-6.368,28.265c-14.445-23.103-36.8-34.634-67.021-34.634  c-42.46,0-77.303,20.023-104.485,60.111c-22.437,32.969-33.635,69.393-33.635,109.314c0,32.303,9.282,58.154,27.89,77.595  c18.607,19.481,42.002,29.181,70.226,29.181c26.143,0,49.246-9.658,69.311-29.056c2.372,9.533,7.118,16.734,14.278,21.688  c7.118,4.912,17.733,7.368,31.845,7.368c52.326,0,95.203-22.063,128.671-66.23c26.684-35.009,40.004-74.18,40.004-117.473  c0-36.383-8.784-69.893-26.351-100.531c-17.608-30.68-43.042-54.324-76.345-70.975C342.055,9.117,304.008,0.791,261.214,0.791  c-50.452,0-95.328,10.324-134.541,30.971C87.418,52.41,56.489,83.298,33.927,124.509C11.323,165.72,0,210.179,0,257.926  c0,43.459,9.949,83.671,29.847,120.637c19.856,36.966,50.203,64.897,90.956,83.838c40.754,18.941,89.166,28.39,145.239,28.39  c57.946,0,107.025-11.198,147.279-33.635c35.176-19.523,61.276-46.54,78.26-81.007h-54.283  C419.44,398.753,395.921,415.694,366.699,426.976z M277.116,265.794c-6.535,19.898-14.278,35.009-23.312,45.374  c-6.286,7.284-12.654,12.655-19.107,16.068c-8.492,4.745-17.567,7.118-27.266,7.118c-12.905,0-23.728-5.078-32.47-15.278  c-8.741-10.199-13.113-26.1-13.113-47.664c0-16.151,3.122-34.634,9.408-55.531c6.286-20.897,15.61-37.007,28.015-48.288  c12.405-11.323,25.935-16.984,40.545-16.984c13.571,0,24.852,5.162,33.76,15.444c8.908,10.282,13.363,25.018,13.363,44.209  C286.94,227.412,283.693,245.937,277.116,265.794z" data-original="#000000" class="active-path" data-old_color="#000000" fill="#04DE1A"/></g> </svg>
