<?xml version="1.0" encoding="utf-8"?>
<!-- Generator: Adobe Illustrator 23.0.0, SVG Export Plug-In . SVG Version: 6.00 Build 0)  -->
<svg version="1.1" id="Capa_1" xmlns="http://www.w3.org/2000/svg" xmlns:xlink="http://www.w3.org/1999/xlink" x="0px" y="0px"
	 viewBox="0 0 463 463" style="enable-background:new 0 0 463 463;" xml:space="preserve">
<style type="text/css">
	.st0{fill:#E6AE48;}
</style>
<path class="st0" d="M423,219.5V211h16.5c4.1,0,7.5-3.4,7.5-7.5V179h8.5c4.1,0,7.5-3.4,7.5-7.5v-24c0-2.7-1.4-5.2-3.8-6.5l-224-128
	c-2.3-1.3-5.1-1.3-7.4,0L3.8,141c-2.3,1.3-3.8,3.8-3.8,6.5v24c0,4.1,3.4,7.5,7.5,7.5H16v24.5c0,4.1,3.4,7.5,7.5,7.5H40v8.5
	c0,5.8,3.2,10.9,8,13.6V372H23.5c-4.1,0-7.5,3.4-7.5,7.5V404H7.5c-4.1,0-7.5,3.4-7.5,7.5v32c0,4.1,3.4,7.5,7.5,7.5h448
	c4.1,0,7.5-3.4,7.5-7.5v-32c0-4.1-3.4-7.5-7.5-7.5H447v-24.5c0-4.1-3.4-7.5-7.5-7.5H415V233.1C419.8,230.4,423,225.3,423,219.5z
	 M408,219.5c0,0.3-0.2,0.5-0.5,0.5h-32c-0.3,0-0.5-0.2-0.5-0.5V211h33V219.5z M335,372V233.1c4.8-2.6,8-7.7,8-13.6V211h17v8.5
	c0,5.8,3.2,10.9,8,13.6V372H335z M303,372V235h17v137H303z M255,372V233.1c4.8-2.6,8-7.7,8-13.6V211h17v8.5c0,5.8,3.2,10.9,8,13.6
	V372H255z M223,372V235h17v137H223z M175,372V233.1c4.8-2.6,8-7.7,8-13.6V211h17v8.5c0,5.8,3.2,10.9,8,13.6V372H175z M143,372V235
	h17v137H143z M95,372V233.1c4.8-2.6,8-7.7,8-13.6V211h17v8.5c0,5.8,3.2,10.9,8,13.6V372H95z M168,211v8.5c0,0.3-0.2,0.5-0.5,0.5h-32
	c-0.3,0-0.5-0.2-0.5-0.5V211H168z M248,211v8.5c0,0.3-0.2,0.5-0.5,0.5h-32c-0.3,0-0.5-0.2-0.5-0.5V211H248z M328,211v8.5
	c0,0.3-0.2,0.5-0.5,0.5h-32c-0.3,0-0.5-0.2-0.5-0.5V211H328z M15,151.9L231.5,28.1L448,151.9V164H15V151.9z M31,179h401v17H31V179z
	 M88,211v8.5c0,0.3-0.2,0.5-0.5,0.5h-32c-0.3,0-0.5-0.2-0.5-0.5V211H88z M63,235h17v137H63V235z M448,436H15v-17h433V436z M432,404
	H31v-17h401V404z M383,372V235h17v137H383z"/>
</svg>
