<?xml version="1.0" encoding="utf-8"?>
<!-- Generator: Adobe Illustrator 23.0.0, SVG Export Plug-In . SVG Version: 6.00 Build 0)  -->
<svg version="1.1" id="Capa_1" xmlns="http://www.w3.org/2000/svg" xmlns:xlink="http://www.w3.org/1999/xlink" x="0px" y="0px"
	 viewBox="0 0 512 512" style="enable-background:new 0 0 512 512;" xml:space="preserve">
<style type="text/css">
	.st0{fill:#E6AE48;}
</style>
<g>
	<g>
		<g>
			<path class="st0" d="M437,75C388.7,26.6,324.4,0,256,0S123.3,26.6,75,75C26.6,123.3,0,187.6,0,256s26.6,132.7,75,181
				c48.4,48.4,112.6,75,181,75s132.7-26.6,181-75c48.4-48.4,75-112.6,75-181S485.4,123.3,437,75z M256,482
				C131.4,482,30,380.6,30,256S131.4,30,256,30s226,101.4,226,226S380.6,482,256,482z"/>
		</g>
	</g>
	<g>
		<g>
			<path class="st0" d="M272.1,241h-32.1c-18.3,0-33.2-14.9-33.2-33.2c0-18.3,14.9-33.2,33.2-33.2h64.3c8.3,0,15-6.7,15-15
				s-6.7-15-15-15H271v-33.2c0-8.3-6.7-15-15-15s-15,6.7-15,15v33.2h-1.1c-34.8,0-63.2,28.4-63.2,63.2s28.4,63.2,63.2,63.2h32.1
				c18.3,0,33.2,14.9,33.2,33.2s-14.9,33.2-33.2,33.2h-64.3c-8.3,0-15,6.7-15,15s6.7,15,15,15H241v33.2c0,8.3,6.7,15,15,15
				s15-6.7,15-15v-33.2h1.1c34.8,0,63.2-28.4,63.2-63.2S306.9,241,272.1,241z"/>
		</g>
	</g>
</g>
</svg>
