<?xml version="1.0" encoding="utf-8"?>
<!-- Generator: Adobe Illustrator 23.0.0, SVG Export Plug-In . SVG Version: 6.00 Build 0)  -->
<svg version="1.1" id="Capa_1" xmlns="http://www.w3.org/2000/svg" xmlns:xlink="http://www.w3.org/1999/xlink" x="0px" y="0px"
	 viewBox="0 0 462.9 462.9" style="enable-background:new 0 0 462.9 462.9;" xml:space="preserve">
<style type="text/css">
	.st0{fill:#E6AE48;}
</style>
<g>
	<path class="st0" d="M273.1,256.5c9.5,5.3,14.9,12.2,14.9,18.9c0,4.1,3.4,7.5,7.5,7.5s7.5-3.4,7.5-7.5c0-19.4-19.8-35.4-48-41.2
		v-10.8c0-4.1-3.4-7.5-7.5-7.5s-7.5,3.4-7.5,7.5v8.8c-2.8-0.2-5.6-0.3-8.5-0.3s-5.7,0.1-8.5,0.3v-8.8c0-4.1-3.4-7.5-7.5-7.5
		s-7.5,3.4-7.5,7.5v10.8c-28.2,5.8-48,21.8-48,41.2s19.8,35.4,48,41.2v56.6c-6.7-1.6-12.8-3.9-18.1-6.9
		c-9.5-5.3-14.9-12.2-14.9-18.9c0-4.1-3.4-7.5-7.5-7.5s-7.5,3.4-7.5,7.5c0,19.4,19.8,35.4,48,41.2v10.8c0,4.1,3.4,7.5,7.5,7.5
		s7.5-3.4,7.5-7.5v-8.8c2.8,0.2,5.6,0.3,8.5,0.3s5.7-0.1,8.5-0.3v8.8c0,4.1,3.4,7.5,7.5,7.5s7.5-3.4,7.5-7.5v-10.8
		c28.2-5.8,48-21.8,48-41.2s-19.8-35.4-48-41.2v-56.6C261.7,251.3,267.8,253.6,273.1,256.5z M189.9,294.4
		c-9.5-5.3-14.9-12.2-14.9-18.9s5.4-13.6,14.9-18.9c5.3-3,11.4-5.3,18.1-6.9v51.6C201.3,299.6,195.2,297.3,189.9,294.4z
		 M231.5,375.9c-2.9,0-5.7-0.1-8.5-0.3v-57c2.8,0.2,5.6,0.3,8.5,0.3c2.9,0,5.7,0.1,8.5,0.3v56.3
		C237.2,375.8,234.3,375.9,231.5,375.9z M273.1,328.5c9.5,5.3,14.9,12.2,14.9,18.9c0,6.7-5.4,13.6-14.9,18.9
		c-5.3,3-11.4,5.3-18.1,6.9v-51.6C261.7,323.3,267.8,325.6,273.1,328.5z M240,304.3c-2.8-0.2-5.6-0.3-8.5-0.3
		c-2.9,0-5.7-0.1-8.5-0.3v-56.3c2.8-0.2,5.6-0.3,8.5-0.3s5.7,0.1,8.5,0.3V304.3z"/>
	<path class="st0" d="M274.3,149.5c2.9-3.9,4.7-8.8,4.7-14.1c0-8.4-4.5-15.8-11.1-20c16.4-11.5,27.1-30.5,27.1-52V23.1
		c0-7.8-3.9-15-10.4-19.3s-14.7-5-21.8-1.9l-31.3,13.4L200.2,1.9c-7.2-3.1-15.3-2.3-21.8,1.9C171.9,8.1,168,15.3,168,23.1v40.3
		c0,21.5,10.8,40.5,27.1,52c-6.7,4.1-11.1,11.6-11.1,20c0,5.3,1.7,10.1,4.7,14.1C117,168.5,64,233.9,64,311.4v64
		c0,48.2,39.3,87.5,87.5,87.5h160c48.2,0,87.5-39.3,87.5-87.5v-64C399,233.9,346,168.5,274.3,149.5z M231.4,143.9h-23.9
		c-4.7,0-8.5-3.8-8.5-8.5s3.8-8.5,8.5-8.5h24c0,0,0,0,0,0c0,0,0,0,0,0s0,0,0,0c0,0,0,0,0,0h24c4.7,0,8.5,3.8,8.5,8.5
		s-3.8,8.5-8.5,8.5h-23.9C231.5,143.9,231.5,143.9,231.4,143.9L231.4,143.9C231.4,143.9,231.4,143.9,231.4,143.9z M183,63.4V23.1
		c0-2.8,1.3-5.2,3.6-6.8c1.4-0.9,2.9-1.4,4.4-1.4c1.1,0,2.2,0.2,3.2,0.7l34.3,14.7c1.9,0.8,4,0.8,5.9,0l34.3-14.7
		c2.5-1.1,5.3-0.8,7.7,0.7c2.3,1.5,3.6,4,3.6,6.8v40.3c0,22.7-15.7,41.8-36.9,47.1l11.3-28.3c1.5-3.8-0.3-8.2-4.2-9.7
		c-3.8-1.5-8.2,0.3-9.7,4.2l-9,22.6l-9-22.6c-1.5-3.8-5.9-5.7-9.7-4.2c-3.8,1.5-5.7,5.9-4.2,9.7l11.3,28.3
		C198.7,105.3,183,86.2,183,63.4z M384,375.4c0,40-32.5,72.5-72.5,72.5h-160c-40,0-72.5-32.5-72.5-72.5v-64
		c0-79.2,60.7-144.5,138-151.8l-7.8,11.6c-2.3,3.4-1.4,8.1,2.1,10.4c1.3,0.9,2.7,1.3,4.2,1.3c2.4,0,4.8-1.2,6.2-3.3l9.8-14.6
		l9.8,14.6c1.4,2.2,3.8,3.3,6.2,3.3c1.4,0,2.9-0.4,4.2-1.3c3.4-2.3,4.4-7,2.1-10.4l-7.8-11.6c77.3,7.3,138,72.6,138,151.8L384,375.4
		L384,375.4z"/>
</g>
</svg>
