<?xml version="1.0" encoding="utf-8"?>
<!-- Generator: Adobe Illustrator 23.0.0, SVG Export Plug-In . SVG Version: 6.00 Build 0)  -->
<svg version="1.1" id="Layer_5" xmlns="http://www.w3.org/2000/svg" xmlns:xlink="http://www.w3.org/1999/xlink" x="0px" y="0px"
	 viewBox="0 0 512 512" style="enable-background:new 0 0 512 512;" xml:space="preserve">
<style type="text/css">
	.st0{fill:#E6AE48;}
</style>
<g>
	<path class="st0" d="M432.4,345.6C446.8,333.8,456,316,456,296c0-35.3-28.7-64-64-64s-64,28.7-64,64c0,19.1,8.5,36.3,21.8,48h-78
		c-0.5-1.2-1-2.5-1.5-3.7l11.9-19.7l-8.6-8.6H288c13.2,0,24-10.8,24-24v-16c0-13.2-10.8-24-24-24h-16c-4.4,0-8-3.6-8-8v-8h80v-40
		c0-37.3-23.4-69.2-56.2-82c14.6-10.1,24.2-27,24.2-46c0-30.9-25.1-56-56-56s-56,25.1-56,56c0,19.1,9.6,35.9,24.2,46
		c-21.4,8.3-38.7,24.7-48.2,45.5c-9.5-20.8-26.8-37.2-48.2-45.5c14.6-10.1,24.2-27,24.2-46c0-30.9-25.1-56-56-56S40,33.1,40,64
		c0,19.1,9.6,35.9,24.2,46C31.4,122.8,8,154.7,8,192v40h80v8c0,4.4-3.6,8-8,8H64c-13.2,0-24,10.8-24,24v16c0,13.2,10.8,24,24,24
		h14.3l-8.6,8.6l11.9,19.7c-1.2,2.6-2.3,5.3-3.3,8L56,353.7v60.5l22.4,5.5c1,2.7,2.1,5.3,3.3,8l-11.9,19.7l42.8,42.8l19.7-11.9
		c2.6,1.2,5.3,2.3,8,3.3l5.5,22.3h60.5l5.5-22.4c2.7-1,5.3-2.1,8-3.3l19.7,11.9l42.8-42.8l-11.9-19.7c1.2-2.6,2.3-5.3,3.3-8
		l22.3-5.5V400h12c6.6,0,12,5.4,12,12v92h184v-72C504,389.1,473.1,353.3,432.4,345.6z M344,296c0-26.5,21.5-48,48-48s48,21.5,48,48
		s-21.5,48-48,48S344,322.5,344,296z M216,64c0-22.1,17.9-40,40-40s40,17.9,40,40s-17.9,40-40,40S216,86.1,216,64z M256,120
		c39.7,0,72,32.3,72,72v24h-24v-64h-16v64h-64v-64h-16v64h-24v-24C184,152.3,216.3,120,256,120z M56,64c0-22.1,17.9-40,40-40
		s40,17.9,40,40s-17.9,40-40,40S56,86.1,56,64z M24,192c0-39.7,32.3-72,72-72s72,32.3,72,72v24h-24v-64h-16v64H64v-64H48v64H24V192z
		 M64,296c-4.4,0-8-3.6-8-8v-16c0-4.4,3.6-8,8-8h16c13.2,0,24-10.8,24-24v-8h64h16h64v8c0,13.2,10.8,24,24,24h16c4.4,0,8,3.6,8,8v16
		c0,4.4-3.6,8-8,8h-30.3l-18.3-18.3l-19.7,11.9c-2.6-1.2-5.3-2.3-8-3.3l-5.5-22.4h-60.5l-5.5,22.4c-2.7,1-5.3,2.1-8,3.3l-19.7-11.9
		L94.3,296H64z M280,401.7l-18.8,4.6l-1.4,4.3c-1.5,4.6-3.4,9.2-5.8,13.8l-2.1,4l10,16.6L237,470.1l-16.6-10l-4,2.1
		c-4.6,2.4-9.2,4.3-13.8,5.8l-4.3,1.4l-4.6,18.8h-35.5l-4.6-18.8l-4.3-1.4c-4.6-1.5-9.2-3.4-13.8-5.8l-4-2.1l-16.6,10L89.9,445
		l10-16.6l-2.1-4c-2.4-4.6-4.3-9.2-5.8-13.8l-1.4-4.3L72,401.7v-35.5l18.8-4.6l1.4-4.3c1.4-4.6,3.4-9.2,5.8-13.8l2.1-4l-10-16.6
		l25.1-25.1l16.6,10l4-2.1c4.6-2.4,9.2-4.3,13.8-5.8l4.3-1.4l4.6-18.8h35.5l4.6,18.8l4.3,1.4c4.6,1.4,9.2,3.4,13.8,5.8l4,2.1
		l16.6-10l25.1,25.1l-10,16.6l2.1,4c0.1,0.1,0.1,0.3,0.2,0.4h-18.6c-13.3-19.8-35.7-32-59.7-32c-39.7,0-72,32.3-72,72s32.3,72,72,72
		c33.8,0,62.9-23.6,70.2-56H280L280,401.7z M195.1,398.4c-4.4,5.9-11.4,9.6-19.1,9.6c-13.2,0-24-10.8-24-24s10.8-24,24-24
		c0.9,0,1.7,0.2,2.6,0.3c-1.6,3.6-2.6,7.5-2.6,11.7C176,384.3,184,394.7,195.1,398.4L195.1,398.4z M191.4,347.1
		c-4.9-2-10.1-3.1-15.4-3.1c-22.1,0-40,17.9-40,40s17.9,40,40,40c16.1,0,30.4-9.6,36.6-24h17c-6.9,23.3-28.6,40-53.6,40
		c-30.9,0-56-25.1-56-56s25.1-56,56-56c14.8,0,28.8,5.9,39.1,16H204C199.5,344,195.2,345.2,191.4,347.1L191.4,347.1z M488,488h-24
		v-88h-16v88H336v-76c0-15.4-12.6-28-28-28H204c-6.6,0-12-5.4-12-12s5.4-12,12-12h212c39.7,0,72,32.3,72,72V488z"/>
	<path class="st0" d="M504,160c0-30.9-25.1-56-56-56h-32c-30.9,0-56,25.1-56,56v56h88C478.9,216,504,190.9,504,160z M376,160
		c0-22.1,17.9-40,40-40h32c22.1,0,40,17.9,40,40s-17.9,40-40,40h-72V160z"/>
	<path class="st0" d="M392,168h16v16h-16V168z"/>
	<path class="st0" d="M424,168h16v16h-16V168z"/>
	<path class="st0" d="M456,168h16v16h-16V168z"/>
	<path class="st0" d="M392,136h80v16h-80V136z"/>
</g>
</svg>
