<?xml version="1.0" encoding="utf-8"?>
<!-- Generator: Adobe Illustrator 23.0.0, SVG Export Plug-In . SVG Version: 6.00 Build 0)  -->
<svg version="1.1" id="Layer_1" xmlns="http://www.w3.org/2000/svg" xmlns:xlink="http://www.w3.org/1999/xlink" x="0px" y="0px"
	 viewBox="0 0 500 500" style="enable-background:new 0 0 500 500;" xml:space="preserve">
<style type="text/css">
	.st0{fill:#E6AE48;}
</style>
<path class="st0" d="M273.5,161c3.7,0,7.6,0,11.6,0c22.2,0.3,39.2-8.7,50.2-28.2c1.6-2.8,3.6-2.6,6-2.6c47.9,0,95.8,0,143.6,0.1
	c4.5,0,8.2-0.8,10.5-5c0-11.8,0-23.6,0-35.5c-2.5-4-6.2-4.8-10.7-4.8c-47.7,0.1-95.5,0.1-143.3,0c-2.5,0-4.6,0.3-6.4-2.7
	c-10.6-18.7-27.1-27.8-48.4-27.9c-17.1-0.1-34.2,0-51.3,0c-8,0-15.9,0-24.2,0c-0.5-4.4-2.7-7.2-6.9-7.5c-4.9-0.4-6.8,3.2-8,7.3
	c-5.7,1-14.1-2.1-14.6,6.9c-0.5,10.3,8.9,6.8,14.5,8.1c0,5.4,0,10.6,0,15.7c-11.7,0.9-15,2.4-14.7,7.3c0.7,9.9,9.1,6.5,14.7,7.7
	c0,5.4,0,10.6,0,15.7c-5.9,0.8-13.9-1.8-14.4,6.8c-0.7,10.4,8.8,6.9,14.6,8.3c0,5.3,0,10.3,0,15.6c-5.9,0.9-14.5-1.8-14.7,7.4
	c-0.2,9.7,9,6.4,14.5,7.6c0.2,0.8,0.4,1.3,0.4,1.7c0,19.3,0.1,38.6-0.1,58c0,1.5-1.3,3.6-2.7,4.5c-12.9,9-23.1,20.5-30.9,34.1
	c-0.9,1.6-3.2,3.1-5.1,3.4c-21.7,3.5-40.2,13.1-55.5,28.8c-2.1,2.2-3.7,2.5-6.5,1c-11.4-6.1-23.6-7.3-36.2-4.7
	c-4.1,0.8-6.4,2.9-7.3,7.1c-2.8,12.1-1.7,23.9,3.9,35c2.7,5.5,6.5,10.4,10,15.9c-1.5,0.1-3.1,0.2-4.6,0.2c-15.7,0-31.3,0.1-47,0
	c-4.4,0-7.8,1.1-9.9,5.2c0,1.6,0,3.2,0,4.8c2.5,1.9,4.8,4.1,7.5,5.6c25.1,13.8,50.4,27.5,75.5,41.4c2.3,1.2,4.3,3.2,5.8,5.3
	c4.7,6.6,9.1,13.5,13.7,20.2c10.8,15.7,25.9,24.1,44.9,24.1c65.3,0.2,130.6,0.2,195.9,0c18.6-0.1,33.5-8.1,44.4-23.3
	c0.6-0.9,1.4-1.8,1.9-2.8c8.1-16.2,21-26.6,37.3-34.4c19.3-9.2,37.7-20.2,56.4-30.5c2.7-1.5,5-3.7,7.5-5.6c0-1.6,0-3.2,0-4.8
	c-2.1-4.1-5.5-5.2-9.9-5.1c-18.7,0.1-37.3,0-56,0.1c-3.3,0-4.6-0.9-5.2-4.3c-7.7-40.7-40.7-72.5-81.6-79c-2-0.3-4.5-1.9-5.5-3.6
	c-14-24.2-34.2-40.4-61.2-48.1c-1.3-0.4-3.1-2.1-3.1-3.2c-0.2-15.3,0-30.6,0-45.9C272.8,162.1,273.1,161.8,273.5,161z M295.9,69.8
	c10.7,2.1,18.6,7.6,24.6,16.1c1.4,1.9,2.6,4.1,3.4,6.3c2,5.7,5.8,7.5,11.7,7.5c46-0.2,92-0.1,138-0.1c2.2,0,4.4,0,7,0
	c0,5.4,0,10.6,0,16.3c-1.9,0-3.8,0-5.6,0c-46.3,0-92.6,0.1-139-0.1c-6.3,0-9.8,2.1-12.4,8c-5.1,11.9-14.6,18.9-27.7,22.1
	C295.9,120.1,295.9,95.3,295.9,69.8z M280.8,146.3c-2.5,0-4.9,0-7.8,0c0-5.1,0-10.2,0-15.8c2.7,0,5.1,0,7.8,0
	C280.8,135.7,280.8,140.8,280.8,146.3z M211.3,69.2c23.2,0,46.3,0,69.7,0c0,5.4,0,10.5,0,15.9c-12.5,0-24.8,0.1-37-0.1
	c-0.9,0-1.7-1.8-2.6-2.6c-2.1-1.7-4.4-4.6-6.5-4.5c-2.4,0.1-4.7,2.9-6.9,4.6c-1,0.8-1.8,2.5-2.7,2.5c-4.6,0.3-9.1,0.1-14,0.1
	C211.3,79.6,211.3,74.6,211.3,69.2z M227.1,130.7c0,5.2,0,10.2,0,15.7c-5.4,0-10.4,0-15.7,0c0-5.3,0-10.3,0-15.7
	C216.6,130.7,221.7,130.7,227.1,130.7z M211.3,115.6c0-5.3,0-10.3,0-15.7c5.2,0,10.3,0,15.7,0c0,5.2,0,10.3,0,15.7
	C221.6,115.6,216.6,115.6,211.3,115.6z M211.4,161.3c5.3,0,10.4,0,16,0c0,2.6,0,4.9,0,7.3c0,12.7-0.1,25.5,0,38.2
	c0,2.8-0.6,4.3-3.6,5c-4,0.9-7.9,2.4-12.4,3.9C211.4,197.2,211.4,179.4,211.4,161.3z M148.3,280.1c12.8-4,26-4.9,39.2-2.2
	c1.9,0.4,4.1,1.8,5.2,3.4c5.8,8,13.4,11.3,23.2,10.1c1.9-0.2,4.5,0.3,6,1.4c5.2,4,10.1,8.3,14.9,12.7c1,0.9,1.7,3.2,1.3,4.4
	c-5.6,13.5-2.8,25.2,7,35.6c-4.3,1.7-4.6,1.6-6-3.1c-6.7-21.9-20.8-36.9-42-45.3c-2.6-1-5.6-1.4-8.2-2.5c-2.2-0.9-4-2.7-6.2-3.7
	c-3.5-1.4-7-3.2-10.7-3.5c-22.1-2-39.5,6.1-51.7,24.9c-0.4,0.6-0.9,1.2-1.7,2.3c-2.7-3.8-5.1-7.2-7.7-10.8
	C121.1,292.4,133.7,284.6,148.3,280.1z M203.6,269c0-4.5,3.7-8.1,8.3-7.9c4.4,0.1,7.7,3.6,7.7,8c0,4.6-3.7,8.1-8.2,7.9
	C207,276.9,203.6,273.4,203.6,269z M265.3,307.2c8.6,0,15.6,6.7,15.8,15.3c0.3,8.7-6.6,16-15.4,16.2c-8.7,0.2-15.9-6.8-16-15.6
	C249.5,314.2,256.4,307.2,265.3,307.2z M247.5,295.5c-2.9-2.4-5.5-5.3-8.7-8.5c7.6-3.7,14.5-3.8,22.7,0.2c-3.5,3.1-6.4,6-9.7,8.5
	C250.9,296.3,248.5,296.2,247.5,295.5z M271.7,276.5c-11.8-8-24.3-8.5-36.9-3.8c-1.2-5.5-2.2-10.6-3.3-15.7
	c18.2-7.9,44.3-2.3,56.5,12.6c-4.3,2.3-8.5,4.7-12.9,6.9C274.2,276.9,272.5,277,271.7,276.5z M177.5,338.6c5-0.2,9.4,2.8,13.2,7.4
	c-7,0-13.3,0-21.2,0C172.7,343,175,338.8,177.5,338.6z M127.3,345.5c-4.7-24.7,18.8-48.1,43.5-43.6
	C176.9,325.5,151.9,350.8,127.3,345.5z M183.8,324.7c0.9-5.1,1.7-10.1,2.6-15.3c16.4,2.1,33.4,18.2,38.6,37
	c-5.3,0-10.5,0.1-15.6-0.1c-0.7,0-1.7-0.9-2.1-1.6C202.2,334.9,194.2,328.6,183.8,324.7z M65.2,306c-0.4-3.1,1.1-4.4,4.3-4.7
	c23.8-1.7,44,20.4,40.1,44.1c-17,4.4-37.1-8-42.6-26.3C65.8,314.9,65.7,310.4,65.2,306z M458.7,361.2c-2,1.2-2.8,1.8-3.7,2.3
	c-16.8,9.2-33.6,18.4-50.4,27.5c-1.9,1-4.2,1.5-6.3,1.6c-7.7,0.2-15.3,0-23,0.1c-5.3,0.1-8.4,2.7-8.4,7.1c0,4.4,3,7.1,8.4,7.3
	c4.6,0.2,9.2,0,14,0C379,427.1,368,438.6,346,438.6c-63.9,0-127.8-0.1-191.7,0c-15.9,0-28-6.3-36.5-19.7c-2.4-3.7-4.9-7.4-7.9-12
	c2.7,0,4.5,0,6.4,0c72.5,0,145,0,217.5,0c2.1,0,4.2,0,6.2-0.5c3.8-0.8,5.8-3.5,5.6-7.2c-0.3-3.7-2.5-6.2-6.4-6.5
	c-1.9-0.2-3.8-0.1-5.7-0.1c-76.7,0-153.3,0-230-0.1c-3.2,0-6.6-0.9-9.4-2.4c-16.1-8.5-32-17.3-47.9-26c-1.2-0.7-2.4-1.4-4.7-2.8
	C180.9,361.2,319.1,361.2,458.7,361.2z M295.3,319.2c-0.1-0.9,0.5-2.3,1.3-2.7c9.2-6.1,19.2-9.6,29.6-9.1c2.4,5.8,4.5,11,6.5,15.9
	c-4.5,0.4-9.7,0.3-14.7,1.4c-10.5,2.2-18.6,8.3-23.7,17.7c-2.1,3.9-4.5,4.8-9.1,3.5C292.8,338.2,296.4,329.6,295.3,319.2z
	 M349.5,315.4c-4.4-0.1-7.7-3.6-7.6-8c0-4.6,3.7-8,8.3-7.9c4.3,0.2,7.8,3.8,7.7,8C357.8,312.1,354.1,315.6,349.5,315.4z
	 M367.2,324.2c3.7,6.3,8,13.6,12.2,20.8c-0.4,0.5-0.8,1-1.1,1.5c-5,0-10,0.1-15-0.1c-0.8,0-1.7-0.8-2.2-1.4
	c-3.6-4.8-7.1-9.7-10.3-14.1C355.3,329,360.5,326.8,367.2,324.2z M344,346.2c-11.7,0-22.8,0-34,0C315.1,335.9,336.2,334.8,344,346.2
	z M351.8,280.1c34.1,10.7,55.4,41.6,58,66.1c-5.4,0-10.5,0-14.5,0c-4.7-8.9-9.1-17.3-13.5-25.7c-0.1-0.3-0.3-0.6-0.5-0.8
	c-5.5-5.4-8.5-11.7-10.5-19.4c-3.9-15.2-23.1-20-35.4-10.1c-1.8,1.4-4.4,2.4-6.7,2.4c-12.5,0.1-24.3,2.7-35.3,8.9
	c-1.4,0.8-2.8,1.5-3.8,2c-4.7-3.3-9.1-6.4-13.4-9.5C290.3,280,323.4,271.2,351.8,280.1z M320.8,261.8c-5.1,0.8-9.8,1.9-14.5,2.3
	c-1.6,0.1-3.7-0.7-4.8-1.9c-22.4-23.6-51.8-29.5-81.6-16.3c-1.8,0.8-4,1.1-5.9,0.9c-9.7-0.8-18.4,3.6-22.3,12.3
	c-1.6,3.6-3.3,4.9-7.1,3.7c-1.6-0.5-3.4-0.5-5.2-0.7c8.1-17.8,34.2-36.2,61.1-39C279.5,219.1,310.1,241.4,320.8,261.8z M257.7,161.4
	c0,15.5,0,31,0,46.8c-5.4,0-10.4,0-15.6,0c0-15.6,0-31,0-46.8C247.2,161.4,252.2,161.4,257.7,161.4z M242.1,146.2
	c0-5.2,0-10.4,0-15.7c5.3,0,10.3,0,15.7,0c0,5.3,0,10.3,0,15.7C252.7,146.2,247.5,146.2,242.1,146.2z M271,111.7
	c-0.5-1.6-4.2-3.3-6.2-3.1c-2.1,0.2-5.1,2.2-5.7,4.1c-1.1,3.2-2.8,3.2-5.3,3.2c-3.8-0.1-7.6,0-11.7,0c0-5.5,0-10.5,0-16
	c13,0,25.8,0,38.9,0c0,5.2,0,10.2,0,15.8C276.9,115.7,272.8,117.5,271,111.7z"/>
</svg>
