<?xml version="1.0"?>
<svg xmlns="http://www.w3.org/2000/svg" xmlns:xlink="http://www.w3.org/1999/xlink" version="1.1" id="Capa_1" x="0px" y="0px" viewBox="0 23 48 25" style="enable-background:new 0 0 58 58;" xml:space="preserve" width="50px" height="45px" class=""><g><g>
	<path style="fill:#0A4EEF" d="M48,19.929v21.141C48,43.793,45.793,46,43.071,46H22L12,57V46H4.929C2.207,46,0,43.793,0,41.071   l0-21.141C0,17.207,2.207,15,4.929,15h38.141C45.793,15,48,17.207,48,19.929z" data-original="#0391FD" class="active-path" data-old_color="#0391FD"/>
	<path style="fill:#FFFFFF;" d="M25,26.015H11c-0.553,0-1-0.448-1-1s0.447-1,1-1h14c0.553,0,1,0.448,1,1S25.553,26.015,25,26.015z" data-original="#FFFFFF" class=""/>
	<path style="fill:#FFFFFF;" d="M38,32.015H11c-0.553,0-1-0.448-1-1s0.447-1,1-1h27c0.553,0,1,0.448,1,1S38.553,32.015,38,32.015z" data-original="#FFFFFF" class=""/>
	<path style="fill:#FFFFFF;" d="M38,38.015H11c-0.553,0-1-0.448-1-1s0.447-1,1-1h27c0.553,0,1,0.448,1,1S38.553,38.015,38,38.015z" data-original="#FFFFFF" class=""/>
</g></g> </svg>
