<?xml version="1.0" encoding="utf-8"?>
<!-- Generator: Adobe Illustrator 23.0.0, SVG Export Plug-In . SVG Version: 6.00 Build 0)  -->
<svg version="1.1" id="Capa_1" xmlns="http://www.w3.org/2000/svg" xmlns:xlink="http://www.w3.org/1999/xlink" x="0px" y="0px"
	 viewBox="0 0 417.7 417.7" style="enable-background:new 0 0 417.7 417.7;" xml:space="preserve">
<style type="text/css">
	.st0{fill:#E6AE48;}
</style>
<g>
	<path id="XMLID_975_" class="st0" d="M203.7,171.1c0,4.4-3.6,8-8,8c-54.4,0-98.6,44.2-98.6,98.6c0,4.4-3.6,8-8,8s-8-3.6-8-8
		c0-63.2,51.4-114.6,114.6-114.6C200.1,163.1,203.7,166.6,203.7,171.1z M416.9,160.4c-23.4-47.2-63.3-83.9-112.2-103.3
		c-4.1-1.6-8.8,0.4-10.4,4.5s0.4,8.8,4.5,10.4c45.3,18,82.1,51.9,103.8,95.5c1.4,2.8,4.2,4.4,7.2,4.4c1.2,0,2.4-0.3,3.6-0.8
		C417.2,169.2,418.9,164.4,416.9,160.4z M358.7,168.6c1.5,2.4,4.1,3.6,6.7,3.6c1.5,0,3-0.4,4.4-1.3c3.7-2.4,4.7-7.4,2.3-11.1
		c-16.7-25.5-39.8-46.3-66.9-60.1c-3.9-2-8.8-0.4-10.8,3.5c-2,3.9-0.4,8.8,3.5,10.8C322.6,126.6,343.6,145.5,358.7,168.6z
		 M404.8,379.2c0,15.8-12.9,28.7-28.7,28.7H28.7C12.9,407.9,0,395,0,379.2c0-15.8,12.9-28.7,28.7-28.7h88v-17.1H37.1
		c-4.4,0-8-3.6-8-8v-41.3c0-46.1,18.1-89.6,50.9-122.4c30.9-30.9,71.3-48.8,114.4-50.7V67.2h-2.3c-15.8,0-28.7-12.9-28.7-28.7
		c0-15.8,12.9-28.7,28.7-28.7h20.7c15.8,0,28.7,12.9,28.7,28.7c0,15.8-12.9,28.7-28.7,28.7h-2.3v43.8c43.1,2,83.5,19.8,114.4,50.7
		c32.8,32.8,50.9,76.3,50.9,122.4v41.3c0,4.4-3.6,8-8,8h-79.6v17.1h88C392,350.6,404.8,363.4,404.8,379.2z M202.4,51.2h10.3
		c7,0,12.7-5.7,12.7-12.7s-5.7-12.7-12.7-12.7h-20.7c-7,0-12.7,5.7-12.7,12.7c0,7,5.7,12.7,12.7,12.7H202.4z M280.2,317.4h79.6
		v-33.3c0-86.8-70.6-157.3-157.3-157.3S45.1,197.3,45.1,284.1v33.3H280.2z M132.6,333.4v17.1h139.6v-17.1H132.6z M388.8,379.2
		c0-7-5.7-12.7-12.7-12.7H28.7c-7,0-12.7,5.7-12.7,12.7c0,7,5.7,12.7,12.7,12.7h347.5C383.1,391.9,388.8,386.2,388.8,379.2z"/>
</g>
</svg>
