<?xml version="1.0" encoding="utf-8"?>
<!-- Generator: Adobe Illustrator 23.0.0, SVG Export Plug-In . SVG Version: 6.00 Build 0)  -->
<svg version="1.1" id="Capa_1" xmlns="http://www.w3.org/2000/svg" xmlns:xlink="http://www.w3.org/1999/xlink" x="0px" y="0px"
	 viewBox="0 0 462.9 462.9" style="enable-background:new 0 0 462.9 462.9;" xml:space="preserve">
<style type="text/css">
	.st0{fill:#E6AE48;}
</style>
<g>
	<path class="st0" d="M425.1,42.5L385.6,3c-2.2-2.2-5.1-3.2-8.2-2.9s-5.8,1.9-7.5,4.5C354.8,26.8,330,40,303.4,40
		c-26.1,0-50.8-12.8-65.9-34.3c-1.4-2-3.7-3.2-6.1-3.2s-4.7,1.2-6.1,3.2C210.2,27.2,185.6,40,159.4,40C132.9,39.9,108,26.7,93,4.5
		C91.3,2,88.5,0.3,85.5,0s-6,0.8-8.2,2.9L37.8,42.5c-3.8,3.8-3.9,9.8-0.2,13.7C61.8,82.5,56,123,48.7,174.2
		c-4.1,28.9-8.8,61.6-8.8,97.2c0,72.4,67.8,110.4,122.2,141c28.4,15.9,55.1,30.9,62.5,46.3c1.2,2.6,3.9,4.3,6.8,4.3s5.5-1.7,6.8-4.3
		c7.4-15.3,34.1-30.4,62.5-46.3c54.5-30.5,122.2-68.5,122.2-141c0-35.5-4.7-68.3-8.8-97.2c-7.3-51.3-13.1-91.8,11.2-118
		C429,52.3,428.9,46.3,425.1,42.5z M399.3,176.3c4,28.4,8.6,60.6,8.6,95.1c0,28.1-12,52.9-36.8,76c-22.3,20.8-51.8,37.3-77.8,51.9
		c-26.1,14.6-49.2,27.6-61.9,42.6c-12.7-15-35.8-28-61.9-42.6c-26-14.6-55.5-31.1-77.8-51.9c-24.8-23.1-36.8-48-36.8-76
		c0-34.5,4.6-66.7,8.6-95.1c7.6-53.1,13.6-95.5-11.8-126.6l32.1-32.1c18.2,23.4,46,37.3,75.6,37.3c27.7,0,53.9-12.1,72-32.9
		c18.1,20.7,44.3,32.9,72,32.9c29.6,0,57.5-13.9,75.5-37.3L411,49.7C385.7,80.9,391.8,123.3,399.3,176.3z"/>
	<path class="st0" d="M267,63.9c-7.8-6.5-15.1-13.1-23.3-19.2c-11-8.2-20.9-7.8-31.5,1.2c-5.3,4.5-10.2,9.4-15.1,14.3
		c-5.6,5.7-11.6,10.7-17.9,14.9c19.1-3.3,37.1-11.5,52.3-23.6C246,63.2,263,71.1,281.2,74.7C276.3,71.5,271.6,67.9,267,63.9z"/>
	<g>
		<g>
			<g>
				<path class="st0" d="M228.5,58.9c0.4,0.1,1.4,0.5,3.2,1.8c5.7,4.3,11.1,8.9,16.8,13.7c1.8,1.6,3.7,3.1,5.5,4.7
					c5.2,4.5,10.7,8.7,16.2,12.3c14.3,9.4,29.3,15.8,45.7,19.4c-1.3,1.6-2.6,3.2-3.9,4.7l-0.1,0.1l-0.1,0.1
					c-4.4,5.6-10.2,14-12.5,25.1c-2.8,1.4-9.1,3.8-21.8,5.9c-13.5,2.2-30.6,3.5-48.4,3.5c-19.6,0-39.1-1.5-54.8-4.2
					c-17.6-3-24.7-6.5-27-7.9l-0.7-1.1c-0.2-0.4-0.6-1-1-1.7c-0.6-1-2.3-3.6-2.7-4.6v-0.1v-0.1c-2.5-5.7-5.4-11.8-8.8-18.2
					c20.8-2.8,39.7-9.7,56.1-20.8c7.4-5,14.5-10.8,21-17.5c4.5-4.5,9.1-9.1,13.8-13.1C227,59.6,228.1,59.1,228.5,58.9 M228.5,38.9
					c-5.4,0-10.8,2.4-16.3,7.1c-5.3,4.5-10.2,9.4-15.1,14.3c-5.6,5.7-11.6,10.7-17.9,14.9c-15.7,10.5-33.4,16.5-53.3,18.2
					c-6.1,0.4-11.9,0.8-18,1.2c-2.9,0-3.7,1.2-3.3,4.1c0.4,2,1.2,3.7,2,5.7c2.9,5.3,5.7,10.2,8.6,15.1c3.3,6.1,6.5,12.7,9.4,19.2
					c1.2,2.9,4,7.1,4.9,8.6c4.8,15,53.1,22.9,99.6,22.9c45.1,0,88.7-7.4,89.4-22.9c0.8-7.4,4.5-13.5,9-19.2
					c5.3-6.5,10.6-13.1,16-19.6c2.5-3.3,5.3-6.5,7.4-9.8c2.1-2.9,1.2-4.1-2.4-4.5c-6.1-0.4-12.3-0.4-18.4-1.2
					c-18.1-2.5-34.1-8.6-48.8-18.3c-4.9-3.2-9.6-6.8-14.2-10.8c-7.8-6.5-15.1-13.1-23.3-19.2C238.4,40.8,233.4,38.9,228.5,38.9
					L228.5,38.9z"/>
			</g>
			<g>
				<path class="st0" d="M158.9,196.7c27.3,5.8,58.8,6.4,70.2,6.4c12.9,0,38.7-0.7,61.5-5.3c-1.7,14.6-8,27.1-19,38.1
					c-13.1,13.1-28.4,19.5-46.8,19.5s-33.7-6.4-46.8-19.5C166.8,224.6,160.5,211.7,158.9,196.7 M140.4,170
					c-1.3,6.1-1.9,12.3-1.9,19.1c0,23.7,8.6,44.2,25.4,60.9c16.8,16.8,37.2,25.4,60.9,25.4s44.2-8.6,60.9-25.4s25.4-37.2,25.4-60.9
					c0-6.4-0.5-12.4-1.7-18.2c-15.2,8.2-47.3,12.1-80.3,12.1C194.1,183,158.2,178.6,140.4,170L140.4,170z"/>
			</g>
			<g>
				<g>
					<path class="st0" d="M140.8,280.8c0.6,0.4,1.3,0.8,2.2,1.4l0.5,0.3l0.5,0.3c4.1,2.4,9.3,5.7,15.8,10l0.4,0.3l0.4,0.2
						c7.7,4.6,17.1,8.8,28,12.4c12.4,4.3,22.6,6,36.3,6c11.9,0,24.3-2,35.8-5.8c11.2-3.3,20.9-7.6,28.8-12.8
						c5.6-3.4,11.4-7,17.2-10.9c0.9-0.6,1.6-1,2.2-1.4c4.8,0.4,9.5,1.4,14.2,3.1c4.6,1.7,8.5,4.1,12.3,7.5
						c3.7,3.7,7.1,8.3,10.4,13.9c1.6,2.8,3,5.7,4.3,8.5c-1.9,2.1-4,4.1-6.2,6.2c-18.6,17.4-45.6,32.5-69.5,45.9l-0.1,0.1l-0.1,0.1
						l-0.4,0.3c-15,8.4-29.4,16.4-42.2,25.2c-12.9-8.8-27.3-16.8-42.2-25.2h-0.1l-0.5-0.3h-0.1l0,0c-23.8-13.4-50.9-28.6-69.5-45.9
						c-5.9-5.5-10.6-10.8-14.2-16.1c3-5.2,6.1-9.2,9.3-12.3c3.9-3.6,7.9-6.1,12.6-7.8l0.2-0.1l0.2-0.1
						C131.2,282.2,135.9,281.2,140.8,280.8 M305,260.7c-1.2,0-4.5,1.6-9.4,4.9s-10.6,7-16.8,10.6c-6.1,4.1-14.3,7.8-24.1,10.6
						c-9.8,3.3-20,4.9-29.9,4.9c-11.1,0-19.2-1.2-29.9-4.9c-9.8-3.3-18-7-24.1-10.6c-6.1-4.1-11.9-7.8-16.8-10.6
						c-4.9-3.3-8.2-4.9-9.4-4.9c-9,0-17.6,1.6-25,4.5c-7.8,2.9-13.9,7-19.2,11.9c-5.3,4.9-9.8,11-13.9,18.4
						c-1.7,2.9-3.3,5.9-4.7,8.9c5,10.4,12.7,20.4,23.4,30.4c20.4,19,48.5,34.8,73.4,48.8l0.6,0.3c19.2,10.7,37.6,21,52.1,32.6
						c14.5-11.6,32.9-21.9,52.1-32.6l0.6-0.3c24.8-13.9,53-29.7,73.4-48.7c6.1-5.7,11.3-11.4,15.5-17.2l0,0
						c-2.5-7.4-5.7-14.7-9.8-22.1c-4.1-7-8.6-13.1-13.9-18.4c-5.3-4.9-11.5-9-19.2-11.9C322.2,262.3,314,260.7,305,260.7L305,260.7z
						"/>
				</g>
			</g>
		</g>
	</g>
</g>
</svg>
