<?xml version="1.0" encoding="utf-8"?>
<!-- Generator: Adobe Illustrator 23.0.0, SVG Export Plug-In . SVG Version: 6.00 Build 0)  -->
<svg version="1.1" id="Layer_1" xmlns="http://www.w3.org/2000/svg" xmlns:xlink="http://www.w3.org/1999/xlink" x="0px" y="0px"
	 viewBox="0 0 496 496" style="enable-background:new 0 0 496 496;" xml:space="preserve">
<style type="text/css">
	.st0{fill:#E6AE48;}
</style>
<g>
	<path class="st0" d="M195.4,353.8c8.6-5.7,17.9-9.6,27.7-12.4c7.9-2.3,16-3.2,24.2-2.7c4.8,0.3,9.7-0.2,14.4,0.7
		c6.8,1.3,13.6,3,20.2,5.3c5.4,1.8,10.5,4.6,15.5,7.2c2.9,1.5,8.6,1.6,10.2-0.3c3.7-4.3,2.7-10.1-2.4-12.7
		c-9.9-5-19.8-10.1-30.8-11.9c-9.4-1.5-18.8-2.7-28.3-3.5c-3.5-0.3-7.2,0.7-10.7,1.2c-5.7,0.8-11.6,1.2-17.1,2.8
		c-6.3,1.8-12.6,4.2-18.4,7.2c-7.4,3.8-14.6,8-21.3,12.9c-8.4,6.1-15.5,13.8-21.7,22.2c-9,12.1-15,25.6-18.8,40
		c-1.9,7.3-2.3,15-3.3,22.6c0.2,0,0.4,0.1,0.5,0.1c0,1.4,0.2,2.8,0,4.2c-0.5,3.9,3.4,7.5,7.1,7.2c4.6-0.3,7-2.7,7.1-7.4
		c0.1-2.5,0.4-5.1,0.6-7.6c0.8-10,3.2-19.6,6.9-29c4.5-11.4,11.1-21.2,19.1-30.1C181.8,363.4,188.4,358.4,195.4,353.8z"/>
	<path class="st0" d="M317.5,357c-0.8,0.9-1.7,1.8-2.6,2.7c-18.4,18.2-36.8,36.4-55.1,54.8c-1.7,1.7-2.7,1.8-4.6,1.1
		c-4.8-2-9.6-2-14.5-0.1c-12,4.6-17.4,14.9-14.4,26.8c3.5,13.8,15.2,19.1,27.7,16c10.1-2.5,16.1-11.2,16.1-22.1
		c0-2.9-0.9-5.9-1.6-9.7c10.6-10.7,21.8-21.9,33-33.1c8.9-8.9,17.7-17.8,26.5-26.8c3.2-3.2,3.6-5.7,2-8.4
		C327.1,353,321.6,352.5,317.5,357z M247.9,444.4c-4,0.1-8.1-4.1-7.7-8.1c0.4-4,3.7-7.4,7.8-7.4c4.4,0,7.7,3.4,7.7,7.8
		C255.7,441.1,252.4,444.3,247.9,444.4z"/>
	<path class="st0" d="M199.9,388.5c6.7-6.9,14.6-12,23.6-15.4c7.2-2.7,14.5-4.5,22.1-4.6c4.5-0.1,9.1,0.9,13.6,1.2
		c6.3,0.4,12,2.6,17.6,5.4c3.9,1.9,8,1.2,10.3-2.4c2.2-3.4,1.3-7.8-2.3-10.2c-1.5-1-3.3-1.8-5-2.4c-10.2-3.7-20.5-6.7-31.6-6.4
		c-5,0.6-10.1,1.3-15.1,1.8c-6.8,0.8-13.2,3-19.4,5.9c-12.9,5.9-23.5,14.5-32,25.9c-6.1,8.1-10.8,16.9-13,26.8
		c-1.7,7.3-2.6,14.7-3.6,22.1c-0.4,2.9,1.3,5.5,3.7,6.7c2.8,1.4,5.9,1.6,8.6-0.8c2.6-2.3,3.1-5.4,3-8.6c-0.1-7,1.5-13.4,3.7-20
		C187.4,403.8,192.9,395.7,199.9,388.5z"/>
	<path class="st0" d="M254.3,399.2c4.3,0.8,8.5-2.7,8.6-7.2c-0.2-2.9-1.6-6.4-5.6-7c-2.5-0.4-5.1-0.6-7.6-0.7
		c-10.6-0.6-20.2,2-29.3,7.5c-6.7,4.1-12.2,9.5-16.4,15.9c-2.7,4.3-4.6,9.2-6.2,14.1c-1.4,4.4-1.8,9-2.4,13.6
		c-0.5,3.8,2.2,7.8,5.5,8.2c4.8,0.5,8.2-0.7,9.1-6c0.6-3.1,0.9-6.2,1.3-9.3c1.1-8,5.3-14.3,11.1-19.6c4.4-4,9.4-6.9,15.4-8.5
		C243.4,398.7,248.7,398.2,254.3,399.2z"/>
	<path class="st0" d="M488.2,223.6c-0.1-2.7-0.3-5.5-0.8-8.2c-0.9-5.3-2-10.5-3-15.8c-0.9-4.4-1.5-8.9-2.8-13.2
		c-2.2-7.3-4.7-14.5-7.3-21.7c-1.9-5.5-3.7-11.1-6.3-16.3c-4.8-9.5-9.9-18.7-15.2-27.9c-3-5.3-6.4-10.4-10-15.4
		c-3.1-4.3-6.7-8.2-10.2-12.2c-3.2-3.7-6.1-7.7-9.6-11.1c-7.2-6.8-14.7-13.3-21.9-20c-8.6-7.9-18.2-14.4-28.1-20.4
		c-10.3-6.3-20.9-12.1-32.3-16.1c-9-3.2-18-6.5-27.1-9.6c-4.2-1.4-8.6-2.6-13-3.4c-5.7-1.1-11.4-2-17.2-2.8
		c-8.7-1.1-17.4-2.7-26.2-2.9c-10.9-0.3-21.8,0.7-32.6,1.1c-2.9,0.1-5.8,0.2-8.6,0.7c-8.1,1.6-16.3,3.1-24.3,5.1
		c-8.8,2.3-17.5,4.8-26,7.8c-7.8,2.8-15.4,6.1-22.9,9.6c-6.8,3.2-13.5,6.6-19.9,10.5c-6.8,4.2-13.4,9-19.8,13.8
		c-5.8,4.3-11.5,8.8-16.8,13.7c-8.8,8-16.8,16.7-24.4,25.9c-7.4,8.9-14.2,18.3-20.2,28.1c-6.3,10.3-12.1,20.9-16.1,32.4
		c-3.2,9.1-6.6,18.1-9.6,27.2c-1.4,4.3-2.5,8.6-3.4,13c-1.1,5.7-2,11.4-2.7,17.2c-1.1,8.7-2.8,17.4-3,26.2
		c-0.3,10.9,0.7,21.8,1.1,32.7c0.1,2.8,0.2,5.5,0.7,8.2c1.6,8.6,3.3,17.1,5.2,25.6c1.3,5.8,2.6,11.6,4.6,17.2
		c3.4,9.2,7.1,18.3,11.2,27.3c3.6,8,7.6,15.8,12.1,23.4c4,6.7,8.6,13,13.3,19.2c4.3,5.7,8.7,11.2,13.5,16.5
		c5.7,6.2,11.7,12.3,18,17.9c2.5,2.3,3.3,4.5,3.3,7.7c-0.1,15.5-0.1,30.9-0.1,46.4c0,5.2,3.4,8.6,8.5,8.6h149.4
		c50,0,100,0,150.1,0.1c4.9,0,9-3.9,8.9-8.8c-0.2-14.4,0.3-28.8-0.3-43.1c-0.3-6.4,2-10.4,6.8-13.7c0.4-0.3,0.8-0.6,1.1-0.9
		c6.6-7.3,13.2-14.6,19.8-21.8c6-6.5,11-13.7,15.6-21.2c4.2-6.9,8.5-13.7,12.5-20.7c2.3-4,4.3-8.2,6.1-12.4
		c2.4-5.7,4.5-11.6,6.7-17.4c1.7-4.5,3.6-9,4.9-13.7c1.7-6,3-12.2,4.3-18.3c1.3-6,2.6-11.9,3.4-18c0.9-6.8,1.9-13.7,1.9-20.6
		C489.4,247.1,488.7,235.3,488.2,223.6z M394.8,75.4c10.8,9,20.5,19.2,29.1,30.3c6.2,8.1,12.1,16.4,18,24.8c1.9,2.8,3.4,5.9,5.1,9
		c-19.2,7.4-39.2,11.4-59.6,15.2c-6.4-23.5-14.6-46-26.6-67.5c2.6-1,5.1-1.9,7.4-2.9c7.8-3.2,15.6-6.5,23.4-9.5
		C392.4,74.4,394,74.8,394.8,75.4z M391.7,240.1c4.4,0.2,7,3.1,7,7.9c0,4.7-2.8,7.5-7.3,7.6c-4.2,0.1-8.1-3.6-7.9-7.9
		C383.7,243.2,387.7,239.9,391.7,240.1z M188.2,286.1c0.7,3.4-1,4.6-3.6,5.6c-10,4.1-19.3,9.4-28,15.8c-5.6,4.1-10.9,8.6-16,13.2
		c-3,2.6-6.5,1.8-9.8,2.5c-2.2,0.5-4.4,0.6-6.5,1.1c-3.3,0.8-4.4,0.1-5-3.2c-1.2-6.6-2.5-13.2-3.7-19.8c-0.3-1.9-0.6-3.8-0.7-5.7
		c-0.7-8-1.3-16.1-2-24.1c-0.1-1.8,0.3-2.9,2.1-3.7c4.6-2.2,7.9-5.7,10-10.4c0.3-0.7,1.4-1.6,2.2-1.6c20.2-0.1,40.3,0,60.5,0
		c0.1,0,0.2,0.1,0.5,0.5v22.2C188.1,281,187.7,283.6,188.2,286.1z M188.1,224.2c-0.1,5.1,0,10.3,0,16h-3.5
		c-17.7,0-35.4-0.1-53.1,0.1c-3.9,0.1-6.3-0.8-8.5-4.4c-1.8-3-4.8-5.4-7.8-7.5c-1.8-1.3-2.8-2.3-2.5-4.5c0.7-5.7,1.3-11.4,1.8-17
		c0.3-3.2,0.3-6.4,0.8-9.5c0.9-5.6,2-11.1,3-16.7c0.3-2,0.5-4,0.8-6c0.5-3.1,1.5-3.7,4.5-3.3c7.9,1.1,15.9,2.2,23.9,3.1
		c8.2,0.9,16.4,1.8,24.7,2.5c5.8,0.5,11.6,0.9,18,1.3c-0.5,8.2-1,15.9-1.3,23.5C188.6,209.3,188.3,216.7,188.1,224.2z M157.2,160.9
		c-11.1-1.1-22.2-2.5-33.3-3.7c2.1-14.3,17.3-53.6,26.2-65.8c7.5,1.9,14.9,5,22.4,5.4c7.1,0.3,8.1,4.4,9.9,9.3
		c1.8,4.9,5.3,8.5,10,10.8c1.3,0.6,2.6,1.3,3.8,2c-0.8,7.4-1.5,14.9-2.4,22.3c-0.9,7.3-1.8,14.6-2.8,22.4
		C179.6,162.6,168.3,162,157.2,160.9z M194.6,96.8c0.1-3.9,3.9-7.4,8-7.4c4.7-0.6,8.1,3.9,8,7.6c-0.1,3.7-3.8,7.8-8,7.8
		C199,105,194.5,100.4,194.6,96.8z M211.3,119.9c0.5-1.1,1-2.5,2-3.1c4.2-2.9,8.1-6,9.7-11c0.6-1.8,1.8-2.3,3.7-2.2
		c9.1,0.3,18.2,0.7,27.3,0.6c8.5-0.1,17.1-0.8,25.6-1.2c0.7,0,1.5,0,2.4,0c0.9,5.3,1.9,10.5,2.7,15.7c1.1,7,2.1,14,3,21
		c0.5,4.2,0.7,8.5,0.9,12.7c0,0.6-0.4,1.4-0.8,1.9c-2.5,3.1-5,6.2-7.6,9.1c-0.6,0.7-1.6,1.3-2.5,1.3c-21.8,0.1-43.6,0.1-65.3,0
		c-2,0-4-0.6-6.4-0.9c0.3-2.5,0.6-5,0.8-7.5c0.5-4.3,0.8-8.6,1.4-12.9c0.9-7,2.1-14,3.1-20.9C211.3,121.6,211,120.7,211.3,119.9z
		 M290,192c1.1,0.6,2.3,2.3,2.4,3.6c0.6,13.7,1,27.4,1.4,41c0,1.1,0,2.1,0,3.8h-91.4c0-4.9-0.1-9.3,0-13.6
		c0.3-10.4,0.8-20.7,1.2-31.1c0.2-4.4,0.4-8.7,0.7-13.1c0.1-2.4,0.9-3.8,3.9-3.7c11,0.5,22.1,1,33.1,1c10.1,0,20.1-0.5,30.2-0.8
		c1.3,0,2.6,0.1,3.9-0.1c2.8-0.4,4.3,0.6,5.6,3.4C282.7,186.5,285.7,189.9,290,192z M294,255.5c-0.5,9.9-1,19.4-1.5,29.4
		c-14.7-4.7-29.4-6.6-44.3-6.6c-14.9,0-29.7,1.8-44.6,6.6c-0.5-10-1-19.4-1.6-29.4H294z M293.1,172.4c0-4.7,3.3-7.6,8.4-7.5
		c3.8,0,7.1,3.6,7.1,7.6c0,4.4-3.6,7.9-8.2,7.8C296.5,180.2,293.1,176.4,293.1,172.4z M296.7,101.9c16.7-3.4,33-6.7,49.9-10.1
		c11.6,19.9,19.9,41.9,26,65.1c-6.3,0.7-12.2,1.3-18.2,2c-8.4,1-16.8,2-25.2,3c-2.4,0.3-5.1,0.7-7.3,0.1c-1.6-0.4-2.8-2.4-3.9-3.9
		c-3-4.1-7.1-6.6-12.1-7.4c-2.3-0.4-2.9-1.6-3.1-3.6c-0.7-7-1.6-14.1-2.5-21.1c-0.7-5.6-1.3-11.1-2-16.7
		C297.9,106.7,297.2,104.2,296.7,101.9z M322.2,178.9c0.3-1.1,2.5-2.2,3.9-2.4c8.8-0.8,17.6-1.2,26.4-2.1c6.6-0.7,13.2-2,19.8-3
		c2.6-0.4,4.3-0.5,4.7,3.2c0.8,6.8,2.6,13.4,3.6,20.2c1,6.7,1.4,13.5,2.1,20.2c0.3,3,0.4,5.9,0.7,8.9c0.2,2.1-0.5,3.3-2.5,4.3
		c-4.4,2.2-7.7,5.6-9.8,10.3c-0.4,0.8-2,1.6-3.1,1.6c-18,0.1-36.1,0.1-54.1,0.1h-5.6c-0.5-15.5-0.9-30.7-1.4-46
		C314.4,191.7,319.8,186.9,322.2,178.9z M307.9,258.4c0-0.8,0-1.7,0-2.8h3.4c18.7,0,37.3,0,56,0c2.3,0,3.2,0.8,4.5,2.8
		c2.3,3.5,5.6,6.4,8.9,9c1.7,1.3,2.8,2.3,2.5,4.5c-0.7,5.7-1.3,11.4-1.9,17c-0.3,3.2-0.3,6.4-0.8,9.5c-0.9,5.6-2,11.2-3,16.8
		c-0.3,2-0.5,4-0.8,6c-0.4,3.1-1.5,3.7-4.5,3.1c-3.8-0.7-7.7-1.1-11.6-1.8c-1.9-0.4-4.1-0.8-5.3-2c-8-7.9-17.3-14.3-26.8-20.2
		c-6.2-3.8-13-6.6-19.5-9.9c-0.7-0.4-1.7-1.4-1.7-2.1C307.6,278.3,307.8,268.4,307.9,258.4z M380.3,64.1
		c-9.6,3.6-18.4,6.9-27.2,10.2c-10.6-15.4-21.7-29.9-36-41.7C339.8,39.3,360.4,49.9,380.3,64.1z M337.6,78.4
		c-1.2,0.4-2.3,0.9-3.4,1.1c-9.8,2-19.5,4.1-29.3,6c-2.8,0.6-5.6,0.9-8.5,1.3c-1.9,0.3-2.9-0.6-3.3-2.5c-1.4-6.8-2.6-13.8-4.6-20.5
		c-2.8-9.4-6.2-18.6-9.6-27.8c-1.3-3.5-3.5-6.7-5.3-10.1C287.2,24.9,329.4,59.3,337.6,78.4z M233.1,37.4c2.2-5,6-9.6,9.9-13.5
		c5.1-5,9.1-1.9,12.6,2.2c5.5,6.5,9.4,13.9,11.8,22.1c1.7,5.8,4,11.5,5.7,17.3c2,6.6,3.6,13.4,5.5,20.1c0.7,2.5-0.1,3.2-2.5,3.3
		c-4.7,0.1-9.4,0.5-14,0.6c-4.7,0.1-9.4,0-14.2,0c-5.6,0-11.2,0.1-16.7,0c-2.2,0-4.4-0.3-6.6-0.7c-0.6-0.1-1.1-0.8-1.6-1.3
		c-5.3-5.4-3.9-11.4-1.7-17.5C225.1,59,228.5,48,233.1,37.4z M222.3,25.9c-1.4,3.1-2.9,6.2-4.3,9.3c-1.6,3.7-3.5,7.4-4.8,11.3
		c-2.7,7.9-5.9,15.7-7.3,23.8c-1,6.1-5.3,4-8.1,4.8c-4.7,1.3-8.5,3.5-11.9,6.8c-0.9,0.9-2.6,1.8-3.7,1.7c-5.5-0.9-10.9-2.1-16.3-3.2
		c-2.5-0.5-5-1.1-7.6-1.7C165,60.7,207.3,25.9,222.3,25.9z M178.8,32.5c-14.2,11.8-25.3,26.2-35.9,41.7c-8.8-3.3-17.6-6.6-27.2-10.2
		C135.6,49.9,156.2,39.3,178.8,32.5z M73.4,103.7c7-8.1,14.6-15.6,22-23.3c1.4-1.5,3-2.9,4.6-4.2c1.8-1.6,3.2-2,5.9-0.6
		c6.7,3.3,13.9,5.6,20.8,8.4c2.8,1.1,5.6,2.1,8.6,3.3c-11.9,21.4-20.2,43.9-26.5,67.5c-20.3-3.6-40.3-7.8-59.7-15.1
		C56.1,126.6,64,114.6,73.4,103.7z M112.5,247.9c0,4.5-4.1,7.9-8.1,7.7c-4.4-0.2-7.1-3-7.1-7.8c0-4.7,2.8-7.6,7.2-7.7
		C108.5,240,112.5,243.5,112.5,247.9z M22.1,227.3c0.5-5.9,1.5-11.7,2.5-17.6c0.8-4.4,1.9-8.8,2.9-13.2c0.9-4,1.7-8,2.9-11.9
		c2-6.4,4.2-12.6,6.5-18.9c1.3-3.5,3.4-6.7,4.3-10.3c0.7-2.8,2.1-2.6,3.9-2c7.2,2.4,14.4,5.1,21.7,7.2c7,2,14.1,3.2,21.2,4.7
		c5.6,1.2,11.1,2.3,17.3,3.6c-0.3,2.4-0.7,4.8-1,7.2c-1.2,7.8-2.6,15.6-3.6,23.4c-1,8-1.5,16-2.5,24c-0.2,1.3-1.3,3.1-2.4,3.5
		c-5.5,2.3-8.8,6.7-11.8,11.5c-0.4,0.7-1.4,1.4-2.2,1.4c-3.2,0.1-6.4,0-9.6,0v0h-5.8c-1.4,0-2.8,0-4.2,0.1c-0.4,0-0.7,0-1-0.1h-2.9
		c-0.1,0.2-0.2,0.3-0.3,0.5c-0.3-0.2-0.7-0.3-1.1-0.5H40.9c-6.2,0.1-12.4,0-19,0C22,235.8,21.7,231.5,22.1,227.3z M41.1,340.1
		c-1.9-5.4-4.7-10.6-6.7-16c-1.8-4.7-3.1-9.5-4.4-14.3c-1.4-5.1-2.9-10.3-3.8-15.5c-0.3-1.8-0.6-3.6-0.9-5.4l0,0
		c-1-5.8-1.8-11.7-2.5-17.5c0-0.2,0-0.4-0.1-0.6c-0.1-0.8-0.2-1.6-0.2-2.5c0,0,0-0.1,0-0.1c-0.6-6.8-0.9-12.6-0.9-12.6h4
		c1.8-0.2,3.3-0.3,4.7,0h11.7c12.7-0.1,25.3,0,38-0.1c2.6,0,4,0.8,5.1,2.9c2.2,4.4,5.3,7.8,10.1,9.6c2.8,1,3.3,3.5,3.5,6.1
		c0.8,8.9,1.5,17.7,2.6,26.5c1,7.6,2.5,15.1,3.7,22.7c0.2,1.1,0,2.3,0,3.4c-6.3,1.3-12.3,2.4-18.4,3.7c-6.5,1.4-12.9,2.7-19.3,4.4
		c-5.3,1.4-10.4,3.3-15.7,5c-2.1,0.7-4.3,1.4-6.3,2.2C43.1,342.9,42,342.8,41.1,340.1z M94.7,396.3c-0.9,3-1.3,6.2-1.9,9.3
		c-0.4,1.9-0.8,3.8-1.3,6.1c-17-16.6-31.2-34.7-42.4-55.3c19.2-7.5,39.2-11.4,59.5-15.2c1.2,3.9,2.1,7.5,3.6,10.9
		c1.5,3.4-1.4,5.3-2.4,7.6c-2.7,6.5-6.2,12.7-9,19.2C98.4,384.5,96.6,390.4,94.7,396.3z M387.7,474.7c-93.2-0.1-186.3-0.1-279.5,0
		c-3.1,0-4-0.9-4-4c0.2-12.1-0.2-24.3,0.2-36.4c0.3-7.6,1.6-15.1,2.4-22.7c0-0.3,0-0.6,0-1c0.3-4.3,0.7-4.4,4.9-3
		c5.1,1.7,8.8,1.6,11.3-2.7c2.4-4.1,0.9-8.5-3.7-10.2c-2.6-0.9-5.2-1.6-8.2-2.6c2.2-5.5,4.4-10.8,6.5-16.2c0.2-0.6,0.6-1.1,0.8-1.7
		c1.3-3.3,1.5-3.3,4.3-1.3c4.8,3.4,8.6,4.1,11.6,1.5c4.6-4,4.7-7.2,0.3-11.5c-1.5-1.4-3.6-2.1-5.2-3.5c-0.7-0.5-1.3-2.2-1-2.6
		c4.1-5.5,8.3-10.9,12.4-16.2c3.1,2.5,5.8,4.9,8.8,6.8c3,1.9,8.8-1.9,9.4-5.5c0.7-4.4-2.1-6.7-4.8-9.1c-3-2.8-3-2.7,0.3-5.2
		c4.9-3.8,9.7-7.6,14.9-11.7c1.5,2.2,2.8,4.2,4.1,6.2c2.4,3.6,7.8,5,11,2.8c2.6-1.8,3.2-8.1,1.2-11.2c-1-1.5-2-3.1-3.3-5.1
		c7-3,13.7-5.9,20.9-9c0.8,2.3,1.6,4.1,1.9,6c1.1,5.4,3.7,7.4,9.2,6.7c3.6-0.5,5.8-4.2,5-8.9c-0.4-2.4-1-4.7-1.5-7.5
		c7.1-1,14.4-2.1,22.2-3.2c0,2.4-0.2,4.4,0,6.4c0.6,6.7,3.7,9.7,10.1,8.7c2-0.3,5.3-4.7,5.3-7.9c0-2.2,0-4.5,0-7.2
		c7.7,1.1,15.1,2.2,22,3.2c-0.6,3.5-1.4,6.5-1.6,9.5c-0.2,3.8,2.4,6.6,5.7,6.8c5.1,0.4,7.8-1.5,8.7-5.9c0.4-2.1,1.1-4.2,1.8-6.8
		c7.3,3.1,14,6,21.1,9c-1.3,2-2.5,3.7-3.4,5.5c-1.6,3.2-1.8,6.6,0.2,9.6c2,2.9,5.6,2.8,8.3,2c2-0.6,3.3-3.2,4.8-5
		c1.1-1.4,1.9-2.9,3-4.6c6.1,4.7,12,9.1,18.1,13.8c-2.2,2.4-4.1,4.6-6.2,6.6c-2.6,2.6-1.6,9.2,2.5,10.6c4,1.4,8.1,0.4,11-2.9
		c1-1.1,2-2.2,3.3-3.5c4.2,5.5,8.2,10.8,12.3,16.1c1.1,1.5,0.5,2.3-0.9,3.3c-2.4,1.7-5.1,3.3-6.9,5.6c-2.4,3-1.7,6.1,1,8.7
		c2.4,2.2,6.4,2.5,9.2,0.7c0.9-0.6,2.1-0.9,3-1.5c1-0.6,1.9-1.3,3.3-2.3c3,7.2,5.8,14,8.8,21.2c-2.6,0.8-4.9,1.5-7.1,2.1
		c-3.3,0.9-5.2,3.1-6,6.2c-0.8,3.1,1.2,5.4,3.4,7.1c2.8,2.1,6,1.3,9,0.2c4.3-1.5,4.2-1.4,5,3c3.9,19.9,1.9,40,2.6,60
		C391.8,473.8,390.9,474.7,387.7,474.7z M404.6,411.6c-1.4-5.8-2.6-11.2-4-16.5c-1.3-4.7-2.6-9.5-4.4-14c-2.1-5.4-4.7-10.7-7.2-16
		c-1.3-2.9-2.6-5.9-4.4-8.4c-1.2-1.7-1.3-3.2-0.7-4.9c1.1-3.5,2.2-6.9,3.5-10.7c20.2,3.6,40.2,7.7,59.5,15.1
		C435.8,377,421.6,395,404.6,411.6z M473.4,271.5c-0.8,6.3-1.9,12.5-3,18.7c-0.7,4.2-1.3,8.5-2.4,12.7c-1.6,5.7-3.5,11.4-5.4,16.9
		c-2.5,7.1-5.3,14.2-7.9,21.3c-0.8,2-2.2,1.6-3.7,1.2c-9.7-3.1-19.2-6.5-29-9.1c-7.8-2.1-15.9-3.2-23.8-4.8
		c-2.3-0.5-4.5-1.1-7.4-1.8c0.3-2.3,0.6-4.7,1-7.1c1.2-7.8,2.6-15.6,3.6-23.4c0.9-7.6,1.3-15.2,2.1-22.8c0.2-2.1,0.5-4.2,3-5.1
		c5.5-1.9,8.8-6.2,11.3-11c0.9-1.7,1.8-1.7,3.1-1.7c8.7,0,17.4,0.1,26.1,0c6.5-0.1,13-0.5,19.5-0.7c4.3-0.1,8.6,0.1,12.9,0.3
		c0.5,0,1.2,1.2,1.2,1.7C474.4,261.8,474,266.7,473.4,271.5z M473.8,240.6c-5.6,0-11.3,0-16.9-0.1c-1.2,0-2.3-0.4-3.5-0.4
		c-12.5,0-25.1-0.1-37.6,0.1c-2.7,0-3.8-1.1-4.8-3.2c-2.2-4.2-5.1-7.5-9.7-9.2c-3.1-1.1-3.6-3.7-3.8-6.6
		c-0.8-10.1-1.5-20.3-2.7-30.4c-0.7-6-2.3-12-3.4-17.9c-0.2-1.2-0.3-2.5-0.5-4c7.5-1.4,14.8-2.5,22.1-4.1c6.8-1.5,13.6-3.4,20.3-5.3
		c5.8-1.7,11.5-3.7,17.2-5.6c2.2-0.7,3.4-1.2,4.4,1.9c1.8,5.5,4.7,10.6,6.7,16.1c1.9,5.3,3.2,10.7,4.7,16.1c1.3,4.5,2.6,9,3.6,13.6
		c1,4.9,1.6,9.8,2.2,14.7c0.8,6.9,1.3,13.9,2.1,20.9c0.1,0.9,0.6,1.8,0.9,2.8C474.7,240.1,474.2,240.6,473.8,240.6z"/>
</g>
</svg>
