<?xml version="1.0" encoding="utf-8"?>
<!-- Generator: Adobe Illustrator 23.0.0, SVG Export Plug-In . SVG Version: 6.00 Build 0)  -->
<svg version="1.1" id="Capa_1" xmlns="http://www.w3.org/2000/svg" xmlns:xlink="http://www.w3.org/1999/xlink" x="0px" y="0px"
	 viewBox="0 0 401 401" style="enable-background:new 0 0 401 401;" xml:space="preserve">
<style type="text/css">
	.st0{fill:#E6AE48;}
	.st1{fill:none;stroke:#E6AE48;stroke-width:10;stroke-miterlimit:10;}
</style>
<g>
	<g>
		<path class="st0" d="M80.2,37.8c3.1,0,5.6,2.5,5.6,5.6v242.3v10h10h288.6c1.5,0,2.9,0.6,3.9,1.6c1,1.1,1.6,2.5,1.6,4l0,0.1v0.1
			c0,3.1-2.5,5.6-5.6,5.6H95.8h-10v10v40.6c0,3.1-2.5,5.6-5.6,5.6c-3.1,0-5.6-2.5-5.6-5.6V317v-10h-10h-49c-3.1,0-5.6-2.6-5.6-5.7
			c0-3.1,2.5-5.6,5.6-5.6h49h10v-10V43.4C74.6,40.3,77.1,37.8,80.2,37.8 M80.2,27.8c-8.6,0-15.6,7-15.6,15.6v242.3h-49
			c-8.6,0-15.6,7-15.6,15.6C0,310,7,317,15.6,317h49v40.6c0,8.6,7,15.6,15.6,15.6s15.6-7,15.6-15.6V317h288.5
			c8.6,0,15.6-7,15.6-15.6c0.1-8.7-6.9-15.7-15.5-15.7H95.8V43.4C95.8,34.8,88.8,27.8,80.2,27.8L80.2,27.8z"/>
	</g>
	<path class="st1" d="M133,254.6h43c2.8,0,5-2.2,5-5V150c0-2.8-2.2-5-5-5h-43c-2.8,0-5,2.2-5,5v99.6
		C128,252.4,130.2,254.6,133,254.6z"/>
	<path class="st1" d="M203,254.6h43c2.8,0,5-2.2,5-5v-43.9c-4.2-2.8-8.2-6.1-11.9-9.8c-14.6-14.6-22.6-34-22.6-54.6
		c0-13.7,3.6-26.8,10.2-38.4H203c-2.8,0-5,2.2-5,5v141.6C198,252.4,200.2,254.6,203,254.6z"/>
	<path class="st1" d="M268,214.2v35.4c0,2.8,2.2,5,5,5h43c2.8,0,5-2.2,5-5v-35.9c-8.6,3.3-17.8,5-27.3,5
		C284.8,218.6,276.2,217.1,268,214.2z"/>
	<path class="st0" d="M293.7,204.1c13.1,0,25.5-4,36-11.4l52.7,52.7c2.1,2.1,4.9,3.2,7.7,3.2c2.8,0,5.6-1.1,7.7-3.2
		c4.2-4.2,4.2-11.1,0-15.4l-52.7-52.7c7.4-10.5,11.4-22.9,11.4-36c0-16.8-6.5-32.5-18.4-44.4c-11.8-11.8-27.6-18.4-44.4-18.4
		s-32.5,6.5-44.4,18.4c-11.8,11.8-18.4,27.6-18.4,44.4s6.5,32.5,18.4,44.4C261.2,197.6,277,204.1,293.7,204.1z M262.2,109.8
		c8.4-8.4,19.6-13.1,31.5-13.1s23.1,4.6,31.5,13.1c8.4,8.4,13.1,19.6,13.1,31.5s-4.6,23.1-13.1,31.5c-8.4,8.4-19.6,13.1-31.5,13.1
		s-23.1-4.6-31.5-13.1c-8.4-8.4-13.1-19.6-13.1-31.5C249.1,129.5,253.8,118.3,262.2,109.8z"/>
	<path class="st0" d="M289.4,162v8.5c0,0.9,0.7,1.6,1.6,1.6h5.9c0.9,0,1.6-0.7,1.6-1.6v-8.2c9.2-1.1,14.8-6.5,14.8-14
		c0-9.9-8.6-12.4-15.5-14.4c-5.3-1.5-8.6-2.7-8.6-5.5c0-1.9,1.7-3,4.7-3c3.4,0,8.7,1.6,13.2,4c0.4,0.2,0.8,0.2,1.3,0.1
		c0.4-0.1,0.8-0.4,1-0.8l3.2-6.7c0.4-0.8,0.1-1.7-0.6-2.1c-3.8-2.2-8.6-3.7-13.5-4.3v-7.7c0-0.9-0.7-1.6-1.6-1.6H291
		c-0.9,0-1.6,0.7-1.6,1.6v8.1c-8,1.6-12.8,6.6-12.8,13.5c0,9.7,8.5,12,15.3,13.9c5.5,1.5,8.8,2.6,8.8,5.5c0,3.2-3.5,3.7-5.7,3.7
		c-4.4,0-10.6-2.4-15-5.7c-0.4-0.3-0.9-0.4-1.4-0.3c-0.5,0.1-0.9,0.4-1.1,0.9l-3.2,6.4c-0.4,0.7-0.2,1.6,0.5,2
		C278.8,158.9,284,161.1,289.4,162z"/>
</g>
</svg>
