<?xml version="1.0" encoding="utf-8"?>
<!-- Generator: Adobe Illustrator 23.0.0, SVG Export Plug-In . SVG Version: 6.00 Build 0)  -->
<svg version="1.1" id="Capa_1" xmlns="http://www.w3.org/2000/svg" xmlns:xlink="http://www.w3.org/1999/xlink" x="0px" y="0px"
	 viewBox="0 0 480 480" style="enable-background:new 0 0 480 480;" xml:space="preserve">
<style type="text/css">
	.st0{fill:#E6AE48;}
</style>
<g>
	<g>
		<g>
			<path class="st0" d="M416,32C416,32,416,32,416,32H312V8c0-4.4-3.6-8-8-8c0,0,0,0,0,0H176c-4.4,0-8,3.6-8,8c0,0,0,0,0,0v24H64
				c-4.4,0-8,3.6-8,8c0,0,0,0,0,0v432c0,4.4,3.6,8,8,8c0,0,0,0,0,0h352c4.4,0,8-3.6,8-8c0,0,0,0,0,0V40C424,35.6,420.4,32,416,32z
				 M184,16h112v48H184V16z M408,464H72V48h96v24c0,4.4,3.6,8,8,8c0,0,0,0,0,0h128c4.4,0,8-3.6,8-8c0,0,0,0,0,0V48h96V464z"/>
		</g>
	</g>
	<g>
		<g>
			<rect x="88" y="368" class="st0" width="176" height="16"/>
		</g>
	</g>
	<g>
		<g>
			<rect x="280" y="368" class="st0" width="112" height="16"/>
		</g>
	</g>
	<g>
		<g>
			<rect x="88" y="400" class="st0" width="304" height="16"/>
		</g>
	</g>
	<g>
		<g>
			<rect x="88" y="432" class="st0" width="128" height="16"/>
		</g>
	</g>
	<g>
		<g>
			<rect x="232" y="432" class="st0" width="160" height="16"/>
		</g>
	</g>
	<g>
		<g>
			<path class="st0" d="M144,232C144,232,144,232,144,232H96c-4.4,0-8,3.6-8,8c0,0,0,0,0,0v104c0,4.4,3.6,8,8,8c0,0,0,0,0,0h48
				c4.4,0,8-3.6,8-8c0,0,0,0,0,0V240C152,235.6,148.4,232,144,232z M136,336h-32v-88h32V336z"/>
		</g>
	</g>
	<g>
		<g>
			<path class="st0" d="M224,200C224,200,224,200,224,200h-48c-4.4,0-8,3.6-8,8c0,0,0,0,0,0v136c0,4.4,3.6,8,8,8c0,0,0,0,0,0h48
				c4.4,0,8-3.6,8-8c0,0,0,0,0,0V208C232,203.6,228.4,200,224,200z M216,336h-32V216h32V336z"/>
		</g>
	</g>
	<g>
		<g>
			<path class="st0" d="M304,168C304,168,304,168,304,168h-48c-4.4,0-8,3.6-8,8c0,0,0,0,0,0v168c0,4.4,3.6,8,8,8c0,0,0,0,0,0h48
				c4.4,0,8-3.6,8-8c0,0,0,0,0,0V176C312,171.6,308.4,168,304,168z M296,336h-32V184h32V336z"/>
		</g>
	</g>
	<g>
		<g>
			<path class="st0" d="M384,136C384,136,384,136,384,136h-48c-4.4,0-8,3.6-8,8c0,0,0,0,0,0v200c0,4.4,3.6,8,8,8c0,0,0,0,0,0h48
				c4.4,0,8-3.6,8-8c0,0,0,0,0,0V144C392,139.6,388.4,136,384,136z M376,336h-32V152h32V336z"/>
		</g>
	</g>
	<g>
		<g>
			<path class="st0" d="M382.4,80.2l-80,16c-1,0.2-2,0.6-2.9,1.2l-70,46.7H160c-1.5,0-3,0.4-4.2,1.2l-64,40l8.5,13.6l62.1-38.8H232
				c1.6,0,3.1-0.5,4.4-1.3l70.7-47.1l78.4-15.7L382.4,80.2z"/>
		</g>
	</g>
</g>
</svg>
