<?xml version="1.0" encoding="utf-8"?>
<!-- Generator: Adobe Illustrator 23.0.0, SVG Export Plug-In . SVG Version: 6.00 Build 0)  -->
<svg version="1.1" id="Layer_1" xmlns="http://www.w3.org/2000/svg" xmlns:xlink="http://www.w3.org/1999/xlink" x="0px" y="0px"
	 viewBox="0 0 512 512" style="enable-background:new 0 0 512 512;" xml:space="preserve">
<style type="text/css">
	.st0{fill:#E6AE48;}
</style>
<path class="st0" d="M356.3,188.3h7.8c4.1,0,7.5-3.4,7.5-7.5c0-4.1-3.4-7.5-7.5-7.5h-3.9v-13.5c0-4.1-3.4-7.5-7.5-7.5
	c-4.1,0-7.5,3.4-7.5,7.5v17.5C345.2,183.4,350.1,188.3,356.3,188.3z"/>
<path class="st0" d="M323.6,171.8c4.1,0,7.5-3.4,7.5-7.5v-6.6c0-4.1-3.4-7.5-7.5-7.5c-4.1,0-7.5,3.4-7.5,7.5v6.6
	C316.1,168.5,319.5,171.8,323.6,171.8z"/>
<path class="st0" d="M392.7,171.8c4.1,0,7.5-3.4,7.5-7.5v-6.6c0-4.1-3.4-7.5-7.5-7.5c-4.1,0-7.5,3.4-7.5,7.5v6.6
	C385.2,168.5,388.6,171.8,392.7,171.8z"/>
<path class="st0" d="M328.9,206.6c8.1,7.8,18.8,11.7,29.4,11.7c10.7,0,21.3-3.9,29.4-11.7c3-2.9,3.1-7.6,0.2-10.6
	c-2.9-3-7.6-3.1-10.6-0.2c-10.5,10.1-27.6,10.1-38.1,0c-3-2.9-7.7-2.8-10.6,0.2C325.8,199,325.9,203.8,328.9,206.6z"/>
<path class="st0" d="M346.1,311.2c-1.4-1.4-3.3-2.2-5.3-2.2c-2,0-3.9,0.8-5.3,2.2c-1.4,1.4-2.2,3.3-2.2,5.3c0,2,0.8,3.9,2.2,5.3
	c1.4,1.4,3.3,2.2,5.3,2.2c2,0,3.9-0.8,5.3-2.2c1.4-1.4,2.2-3.3,2.2-5.3C348.3,314.6,347.5,312.6,346.1,311.2z"/>
<path class="st0" d="M384.6,311.2c-1.4-1.4-3.3-2.2-5.3-2.2c-2,0-3.9,0.8-5.3,2.2c-1.4,1.4-2.2,3.3-2.2,5.3s0.8,3.9,2.2,5.3
	c1.4,1.4,3.3,2.2,5.3,2.2c2,0,3.9-0.8,5.3-2.2c1.4-1.4,2.2-3.3,2.2-5.3S386,312.6,384.6,311.2z"/>
<path class="st0" d="M346.1,353.9c-1.4-1.4-3.3-2.2-5.3-2.2c-2,0-3.9,0.8-5.3,2.2c-1.4,1.4-2.2,3.3-2.2,5.3c0,2,0.8,3.9,2.2,5.3
	c1.4,1.4,3.3,2.2,5.3,2.2c2,0,3.9-0.8,5.3-2.2c1.4-1.4,2.2-3.3,2.2-5.3C348.3,357.3,347.5,355.3,346.1,353.9z"/>
<path class="st0" d="M379.3,351.7c-2,0-3.9,0.8-5.3,2.2c-1.4,1.4-2.2,3.3-2.2,5.3c0,2,0.8,3.9,2.2,5.3c1.4,1.4,3.3,2.2,5.3,2.2
	c2,0,3.9-0.8,5.3-2.2s2.2-3.3,2.2-5.3c0-2-0.8-3.9-2.2-5.3C383.2,352.5,381.2,351.7,379.3,351.7z"/>
<path class="st0" d="M346.1,396.7c-1.4-1.4-3.3-2.2-5.3-2.2c-2,0-3.9,0.8-5.3,2.2c-1.4,1.4-2.2,3.3-2.2,5.3c0,2,0.8,3.9,2.2,5.3
	c1.4,1.4,3.3,2.2,5.3,2.2c2,0,3.9-0.8,5.3-2.2c1.4-1.4,2.2-3.3,2.2-5.3C348.3,400,347.5,398.1,346.1,396.7z"/>
<path class="st0" d="M340.8,437.2c-2,0-3.9,0.8-5.3,2.2c-1.4,1.4-2.2,3.3-2.2,5.3c0,2,0.8,3.9,2.2,5.3c1.4,1.4,3.3,2.2,5.3,2.2
	c2,0,3.9-0.8,5.3-2.2c1.4-1.4,2.2-3.3,2.2-5.3c0-2-0.8-3.9-2.2-5.3C344.7,438,342.7,437.2,340.8,437.2z"/>
<path class="st0" d="M508.1,458.3c1.8-3.1,3.2-6.6,3.8-10.4c0.5-3.1-0.4-6.2-2.4-8.6c-0.5-0.6-1-1.1-1.6-1.5c1.9-3.2,3.3-6.8,4-10.7
	c0.5-3.1-0.4-6.2-2.4-8.6c-0.5-0.6-1-1.1-1.6-1.5c1.9-3.2,3.3-6.8,4-10.7c0.5-3.1-0.4-6.2-2.4-8.6c-0.5-0.6-1-1.1-1.6-1.5
	c1.9-3.2,3.3-6.8,4-10.7c0.5-3.1-0.4-6.2-2.4-8.6c-2-2.4-5-3.8-8.1-3.8H482v-20.5c0-4.1-3.4-7.5-7.5-7.5c-4.1,0-7.5,3.4-7.5,7.5
	v20.5h-82.7c-3.1,0-6.1,1.4-8.1,3.7c-2,2.4-2.9,5.5-2.4,8.6c0.6,3.9,2,7.5,4,10.7c-0.6,0.4-1.1,0.9-1.6,1.5c-2,2.4-2.9,5.5-2.4,8.6
	c0.6,3.9,2,7.5,4,10.7c-0.6,0.4-1.1,0.9-1.6,1.5c-2,2.4-2.9,5.5-2.4,8.6c0.6,3.9,2,7.5,4,10.7c-0.6,0.4-1.1,0.9-1.6,1.5
	c-2,2.4-2.9,5.5-2.4,8.6c0.4,2.4,1.1,4.8,2,7h-49.6v-152c0-3.8,2.5-9.9,5.2-12.6l46.2-46.8c4.7-0.8,9.2-2,13.6-3.7v2
	c0,8.8,6.1,18,14.1,21.4l56.6,24.4c2.5,1.1,5,4.9,5,7.6v22.3c0,4.1,3.4,7.5,7.5,7.5c4.1,0,7.5-3.4,7.5-7.5v-22.3
	c0-8.8-6.1-18-14.1-21.4l-56.6-24.4c-2.5-1.1-5-4.9-5-7.6v-10c13.2-9.3,23-23.2,27.1-39.3h4.6c11.3,0,20.4-9.1,20.4-20.4v-15.6
	c0-11.2-9.1-20.4-20.4-20.4h-2.5v-30.8c10.1-8,16.1-20.2,16.1-33.2c0-23.4-19-42.4-42.4-42.4c-4.7,0-9.4,0.8-13.8,2.3
	C388.1,18.6,374,10,358.2,10c-15.8,0-29.9,8.6-37.2,22.1c-4.4-1.5-9.1-2.3-13.8-2.3c-23.4,0-42.4,19-42.4,42.4
	c0,13.4,6.4,26,17.1,34v30.1h-3.5c-11.2,0-20.4,9.1-20.4,20.4v15.6c0,11.2,9.2,20.4,20.4,20.4h5.6c4,15.7,13.4,29.3,26.1,38.6v10.7
	c0,2.7-2.5,6.6-5,7.6l-56.6,24.4c-8,3.5-14.1,12.7-14.1,21.4v22c-14.2-12.2-31.8-19.5-50.3-21v-11.1c0-8.7-7.1-15.8-15.8-15.8h-41.6
	c-8.7,0-15.8,7.1-15.8,15.8v11.1c-19.5,1.5-37.9,9.5-52.4,22.8c-11.9,10.9-20.5,24.7-25,39.9H7.5c-4.1,0-7.5,3.4-7.5,7.5
	c0,4.1,3.4,7.5,7.5,7.5H10v11.5c0,6.9,5.6,12.5,12.5,12.5h1.3v23.1c0,9.6,7.9,17.5,17.5,17.5v16.3H12.5c-6.9,0-12.5,5.6-12.5,12.5
	v21.3c0,6.9,5.6,12.5,12.5,12.5H427c4.1,0,7.5-3.4,7.5-7.5c0-4.1-3.4-7.5-7.5-7.5H15v-16.3h482v16.3h-34c-4.1,0-7.5,3.4-7.5,7.5
	c0,4.1,3.4,7.5,7.5,7.5h36.5c6.9,0,12.5-5.6,12.5-12.5v-21.3C512,463.8,510.5,460.6,508.1,458.3z M437.9,151.3c3,0,5.4,2.4,5.4,5.4
	v15.6c0,3-2.4,5.4-5.4,5.4h-2.5c0-0.6,0-1.2,0-1.8v-24.5H437.9z M278.4,177.6c-3,0-5.4-2.4-5.4-5.4v-15.6c0-3,2.4-5.4,5.4-5.4h3.5
	v24.5c0,0.6,0,1.2,0,1.8H278.4z M293.2,95.8c-8.3-4.9-13.4-14-13.4-23.6c0-15.1,12.3-27.4,27.4-27.4c4.9,0,9.7,1.3,13.9,3.8
	c2,1.2,4.4,1.4,6.5,0.5c2.1-0.8,3.8-2.6,4.5-4.8c3.6-11.6,14.1-19.3,26.1-19.3s22.6,7.8,26.1,19.3c0.7,2.2,2.3,4,4.5,4.8
	c2.1,0.8,4.5,0.6,6.5-0.5c4.2-2.5,9-3.8,13.9-3.8c15.1,0,27.4,12.3,27.4,27.4c0,9.4-4.7,18-12.6,23.1c-2.1,1.4-3.4,3.8-3.4,6.3v25.2
	H296.9v-24.6C296.9,99.6,295.5,97.1,293.2,95.8z M296.9,175.8v-34h123.6v34c0,29.5-24.1,53.6-53.7,53.6h-16.1
	C321,229.4,296.9,205.3,296.9,175.8z M125.7,285.3c0-0.5,0.4-0.8,0.8-0.8h41.6c0.5,0,0.8,0.4,0.8,0.8V296h-43.3V285.3z M68.4,330.2
	c13.5-12.3,31-19.1,49.3-19.1H177c18.3,0,35.8,6.8,49.3,19.1c8.8,8,15.4,17.9,19.4,28.9H49C53,348.1,59.6,338.2,68.4,330.2z M25,383
	v-9h244.5v9H25z M62.1,454.9h-5.8v-16.3h5.8V454.9z M238.3,454.9h-5.8v-16.3h5.8V454.9z M129,423.6c-4.1,0-7.5,3.4-7.5,7.5
	s3.4,7.5,7.5,7.5h88.5v16.3H77.1v-16.3H94c4.1,0,7.5-3.4,7.5-7.5s-3.4-7.5-7.5-7.5H41.4c-1.4,0-2.5-1.1-2.5-2.5V398h216.9v23.1
	c0,1.4-1.1,2.5-2.5,2.5H129z M311.3,302.9v152h-58v-16.3c9.6,0,17.5-7.9,17.5-17.5V398h1.3c6.9,0,12.5-5.6,12.5-12.5V374h2.5
	c4.1,0,7.5-3.4,7.5-7.5c0-4.1-3.4-7.5-7.5-7.5h-25.7c-2.7-9-6.7-17.4-12.1-25.1v-38.6c0-2.7,2.5-6.6,5-7.6l56.6-24.4
	c8-3.5,14.1-12.7,14.1-21.4v-2.4c4.2,1.7,8.6,2.9,13.1,3.8l9.2,9.5l-26.7,27C315.4,285.2,311.3,295.2,311.3,302.9z M491.5,454.9
	h-97.3c-1.5-1.2-2.8-2.6-3.8-4.3h104.8C494.3,452.3,493,453.7,491.5,454.9z M489,435.6h-92.4c-2.6-1.3-4.7-3.3-6.2-5.8h104.8
	C493.8,432.3,491.6,434.3,489,435.6z M489,414.8h-92.4c-2.6-1.3-4.7-3.3-6.2-5.8h104.8C493.8,411.4,491.6,413.5,489,414.8z
	 M489,393.9h-92.4c-2.6-1.3-4.7-3.3-6.2-5.8h104.8C493.8,390.6,491.6,392.6,489,393.9z"/>
<path class="st0" d="M131.1,199.7h17.9c9.2,0,16.6,7.5,16.6,16.6c0,9.2-7.4,16.6-16.6,16.6h-17.5c-4.1,0-7.5,3.4-7.5,7.5
	c0,4.1,3.4,7.5,7.5,7.5h17.5c17.4,0,31.6-14.2,31.6-31.6s-14.2-31.6-31.6-31.6h-17.9c-4.1,0-7.5,3.4-7.5,7.5
	C123.6,196.3,127,199.7,131.1,199.7z"/>
<path class="st0" d="M82.1,199.7h21.1c4.1,0,7.5-3.4,7.5-7.5c0-4.1-3.4-7.5-7.5-7.5H82.1c-10.7,0-19.4-8.7-19.4-19.5
	c0-10.7,8.7-19.5,19.4-19.5h23.8c4.1,0,7.5-3.4,7.5-7.5c0-4.1-3.4-7.5-7.5-7.5H82.1c-19,0-34.4,15.5-34.4,34.5
	S63.1,199.7,82.1,199.7z"/>
<path class="st0" d="M134,158.9c4.1,0,7.5-3.4,7.5-7.5V147c0-6,4.8-10.8,10.8-10.8h43.3c16.2,0,29.3-13.2,29.3-29.4
	s-13.2-29.4-29.3-29.4h-15.1c-4.1,0-7.5,3.4-7.5,7.5c0,4.1,3.4,7.5,7.5,7.5h15.1c7.9,0,14.3,6.4,14.3,14.4c0,7.9-6.4,14.4-14.3,14.4
	h-43.3c-14.2,0-25.8,11.6-25.8,25.8v4.4C126.5,155.5,129.9,158.9,134,158.9z"/>
</svg>
