<?xml version="1.0" encoding="utf-8"?>
<!-- Generator: Adobe Illustrator 23.0.0, SVG Export Plug-In . SVG Version: 6.00 Build 0)  -->
<svg version="1.1" id="Layer_1" xmlns="http://www.w3.org/2000/svg" xmlns:xlink="http://www.w3.org/1999/xlink" x="0px" y="0px"
	 viewBox="0 0 455.9 455.9" style="enable-background:new 0 0 455.9 455.9;" xml:space="preserve">
<style type="text/css">
	.st0{fill:#FFFFFF;}
</style>
<g>
	<path class="st0" d="M310.8,103.3c-22.2-21.9-51.6-34-82.8-34c-0.6,0-1.2,0-1.8,0c-30.8,0.4-59.9,12.8-81.8,34.8
		c-21.9,22-34.1,51.2-34.4,82c-0.2,26.4,8.1,51.5,24.1,72.5c25.2,33.1,39.1,73.7,39.1,114.3v44.9c0,21,17.1,38.1,38.1,38.1h33.6
		c21,0,38.1-17.1,38.1-38.1V373c0-41.1,13.5-80.7,39.1-114.5c15.6-20.6,23.9-45.3,23.9-71.2C345.9,155.5,333.4,125.6,310.8,103.3z
		 M249.2,436.5c-1.4,0.3-2.9,0.5-4.4,0.5l-33.6,0c-5.6,0-10.8-2.4-14.4-6.5L249.2,436.5z M264,417.2v0.6c0,0.5,0,0.9-0.1,1.4
		l-72-8.2v-2L264,417.2z M192,390v-3h72v11.2L192,390z M191.9,368.2c-1-43-16.3-85.9-42.9-120.9c-13.4-17.6-20.4-38.7-20.2-60.9
		c0.5-53.4,44.3-97.4,97.7-98.2c0.5,0,0.9,0,1.4,0c26.3,0,51,10.1,69.6,28.5c19,18.8,29.5,43.8,29.5,70.6c0,21.8-6.9,42.5-20.1,59.8
		c-27.2,35.8-42,77.7-43,121.1H191.9z"/>
	<path class="st0" d="M148.5,208.9c5.1-0.8,8.7-5.6,7.9-10.7c-0.6-3.8-0.8-7.7-0.8-11.6c0-5.2-4.1-9.5-9.4-9.5
		c-5.1,0-9.4,4.2-9.4,9.3c0,4.9,0.3,9.8,1,14.5c0.7,4.6,4.7,8,9.3,8C147.5,209,148,209,148.5,208.9z"/>
	<path class="st0" d="M170.3,231.1c-2.6-3.4-4.9-7-6.8-10.7c-1.6-3.1-4.8-5.1-8.4-5.1c-1.5,0-3,0.4-4.3,1.1c-4.6,2.4-6.4,8.1-4,12.7
		c2.4,4.7,5.3,9.2,8.5,13.5c14.8,19.5,26.2,41.2,33.9,64.4c1.3,3.9,4.9,6.5,8.9,6.5c1,0,2-0.2,2.9-0.5c2.4-0.8,4.3-2.5,5.5-4.7
		c1.1-2.2,1.3-4.8,0.5-7.2C198.8,275.8,186.4,252.2,170.3,231.1z"/>
	<path class="st0" d="M311.9,216.1c-0.9-2.3-2.7-4.2-5-5.2c-1.2-0.5-2.4-0.8-3.7-0.8c-3.8,0-7.2,2.2-8.7,5.7
		c-2.3,5.3-5.3,10.4-8.8,15.1c-1.5,2-2.2,4.5-1.8,7c0.3,2.5,1.6,4.7,3.6,6.2c1.6,1.3,3.6,1.9,5.7,1.9c3,0,5.7-1.4,7.5-3.7
		c4.5-5.9,8.2-12.3,11.1-19C312.8,221,312.8,218.4,311.9,216.1z"/>
	<path class="st0" d="M300,194.1c-0.5,5.2,3.3,9.8,8.5,10.2c0.3,0,0.6,0,0.9,0c4.9,0,8.9-3.7,9.4-8.6c0.3-2.8,0.4-5.7,0.4-8.5
		c0-50.3-40.9-91.2-91.2-91.2c-5.2,0-9.4,4.2-9.4,9.4s4.2,9.4,9.4,9.4c39.9,0,72.4,32.5,72.4,72.4
		C300.3,189.6,300.2,191.9,300,194.1z"/>
	<path class="st0" d="M227.9,60.5c5.2,0,9.4-4.2,9.4-9.4V9.4c0-5.2-4.2-9.4-9.4-9.4c-5.2,0-9.4,4.2-9.4,9.4v41.6
		C218.5,56.2,222.7,60.5,227.9,60.5z"/>
	<path class="st0" d="M151,74.2c1.7,2.9,4.8,4.7,8.2,4.7c1.6,0,3.3-0.4,4.7-1.3c4.5-2.6,6-8.4,3.4-12.9l-20.8-36
		c-1.7-2.9-4.8-4.7-8.2-4.7c-1.6,0-3.3,0.4-4.7,1.3c-4.5,2.6-6,8.4-3.4,12.9L151,74.2z"/>
	<path class="st0" d="M387.8,270l-36-20.8c-1.4-0.8-3.1-1.3-4.7-1.3c-3.4,0-6.5,1.8-8.2,4.7c-1.3,2.2-1.6,4.7-0.9,7.1
		c0.7,2.4,2.2,4.5,4.4,5.7l36,20.8c1.4,0.8,3.1,1.3,4.7,1.3c3.4,0,6.5-1.8,8.2-4.7c1.3-2.2,1.6-4.7,0.9-7.1
		C391.6,273.3,390,271.3,387.8,270z"/>
	<path class="st0" d="M68.1,107.2l36,20.8c1.4,0.8,3.1,1.3,4.7,1.3c3.4,0,6.5-1.8,8.2-4.7c1.3-2.2,1.6-4.7,0.9-7.1
		c-0.7-2.4-2.2-4.5-4.4-5.7l-36-20.8c-1.4-0.8-3.1-1.3-4.7-1.3c-3.4,0-6.5,1.8-8.2,4.7C62,98.8,63.6,104.6,68.1,107.2z"/>
	<path class="st0" d="M407.1,179.2h-41.6c-5.2,0-9.4,4.2-9.4,9.4s4.2,9.4,9.4,9.4h41.6c5.2,0,9.4-4.2,9.4-9.4
		S412.3,179.2,407.1,179.2z"/>
	<path class="st0" d="M99.8,188.6c0-5.2-4.2-9.4-9.4-9.4H48.8c-5.2,0-9.4,4.2-9.4,9.4s4.2,9.4,9.4,9.4h41.6
		C95.6,198,99.8,193.8,99.8,188.6z"/>
	<path class="st0" d="M347.1,129.2c1.6,0,3.3-0.4,4.7-1.3l36-20.8c2.2-1.3,3.7-3.3,4.4-5.7c0.7-2.4,0.3-5-0.9-7.1
		c-1.7-2.9-4.8-4.7-8.2-4.7c-1.6,0-3.3,0.4-4.7,1.3l-36,20.8c-2.2,1.3-3.7,3.3-4.4,5.7c-0.7,2.4-0.3,5,0.9,7.1
		C340.6,127.4,343.7,129.2,347.1,129.2z"/>
	<path class="st0" d="M108.8,247.9c-1.6,0-3.3,0.4-4.7,1.3l-36,20.8c-2.2,1.3-3.7,3.3-4.4,5.7c-0.7,2.4-0.3,5,0.9,7.1
		c1.7,2.9,4.8,4.7,8.2,4.7c1.6,0,3.3-0.4,4.7-1.3l36-20.8c4.5-2.6,6-8.4,3.4-12.9C115.3,249.7,112.2,247.9,108.8,247.9z"/>
	<path class="st0" d="M292,77.6c1.4,0.8,3.1,1.3,4.7,1.3c3.4,0,6.5-1.8,8.2-4.7l20.8-36c1.3-2.2,1.6-4.7,0.9-7.1
		c-0.7-2.4-2.2-4.5-4.4-5.7c-1.4-0.8-3.1-1.3-4.7-1.3c-3.4,0-6.5,1.8-8.2,4.7l-20.8,36c-1.3,2.2-1.6,4.7-0.9,7.1
		C288.3,74.3,289.8,76.4,292,77.6z"/>
</g>
</svg>
