<?xml version="1.0" encoding="utf-8"?>
<!-- Generator: Adobe Illustrator 23.0.0, SVG Export Plug-In . SVG Version: 6.00 Build 0)  -->
<svg version="1.1" id="Capa_1" xmlns="http://www.w3.org/2000/svg" xmlns:xlink="http://www.w3.org/1999/xlink" x="0px" y="0px"
	 viewBox="0 0 117.5 117.5" style="enable-background:new 0 0 117.5 117.5;" xml:space="preserve">
<style type="text/css">
	.st0{fill:#E6AE48;}
</style>
<g>
	<path class="st0" d="M109.8,54.8C109.3,29.8,90.4,12,62.9,10.3V3c0-1.7-1.4-3-3-3c-1.7,0-3,1.4-3,3v7.2C27.8,11,7.6,29.4,7.6,55.7
		c0,1.7,1.3,3,3,3h46.2v39.2c0,10.8,8.8,19.7,19.7,19.7s19.7-8.8,19.7-19.7c0-1.7-1.4-3-3-3s-3,1.4-3,3c0,7.5-6.1,13.6-13.6,13.6
		s-13.6-6.1-13.6-13.6V58.7h43.8c0.1,0,0.1,0,0.1,0c1.7,0,3-1.4,3-3C109.9,55.4,109.8,55.1,109.8,54.8z M13.8,52.7
		c1.5-21.6,19.6-36.4,44.9-36.4c25.4,0,43.4,14.8,44.9,36.4H13.8z M71.3,34.9c0,1.7-1.4,3-3,3h-6.6v6.5c0,1.7-1.3,3-3,3
		c-1.7,0-3-1.4-3-3V38h-6.5c-1.7,0-3-1.4-3-3c0-1.7,1.4-3,3-3h6.5v-6.6c0-1.7,1.4-3,3-3c1.7,0,3,1.4,3,3v6.6h6.6
		C70,31.9,71.3,33.3,71.3,34.9z"/>
</g>
</svg>
