<?xml version="1.0" encoding="utf-8"?>
<!-- Generator: Adobe Illustrator 23.0.0, SVG Export Plug-In . SVG Version: 6.00 Build 0)  -->
<svg version="1.1" id="Layer_1" xmlns="http://www.w3.org/2000/svg" xmlns:xlink="http://www.w3.org/1999/xlink" x="0px" y="0px"
	 viewBox="0 0 512 512" style="enable-background:new 0 0 512 512;" xml:space="preserve">
<style type="text/css">
	.st0{fill:#E6AE48;}
</style>
<title>a2</title>
<g>
	<path class="st0" d="M490.4,121.7c-44.8,0-81.2-36.4-81.2-81.2V26H167.4v14.5c0,44.8-36.4,81.2-81.2,81.2H71.5l0.2,14.7
		c0,2.6,0.9,64.5,27,139.1c15.4,44,36.4,83.2,62.4,116.6c32.7,42,73.4,74.8,121,97.4l6.3,3l6.3-3c47.6-22.7,88.3-55.5,121-97.4
		c26-33.4,47-72.6,62.4-116.6c26.1-74.5,27-136.5,27-139.1l0.1-14.7H490.4z M450.2,266.5C418.5,357,364,422.1,288.3,460.2
		c-75.7-38.1-130.2-103.2-162-193.7c-17.8-50.6-23.2-96.2-24.8-116.7c48.8-6.8,87.6-45.8,94.1-94.7H381
		c6.5,48.9,45.2,87.9,94.1,94.7C473.5,170.3,468,215.9,450.2,266.5z"/>
	<path class="st0" d="M83.5,271.5c-2.3-6.9-4.4-13.9-6.4-20.9l-0.8-2.9H7v29.1h78.2L83.5,271.5z"/>
	<path class="st0" d="M102.9,320.9c-3-6.6-6-13.6-9-20.9l-1-2.5H7v29.1h98.5L102.9,320.9z"/>
	<path class="st0" d="M67,208l-0.1-0.4c-0.4-2.2-0.8-4.4-1.2-6.6l-0.6-3.3H7v29.1h60V208z"/>
	<path class="st0" d="M167,419.7c-5.6-6.3-11.1-12.8-16.4-19.5l0,0c-0.2-0.2-0.3-0.5-0.5-0.7l-1.7-2.2H7v29.1h166L167,419.7z"/>
	<path class="st0" d="M195.7,448.1l-1.1-1H7v29.1h224.8l-10-7.2C212.8,462.4,204,455.4,195.7,448.1z"/>
	<path class="st0" d="M129.7,370.3c-4.3-6.8-8.5-13.8-12.4-20.9l-1.1-2.1H7v29.1h126.7L129.7,370.3z"/>
	<path class="st0" d="M334.9,251.5c-7.6-2.8-17.1-5.7-28.3-8.5c-1.5-0.4-3.1-0.8-4.8-1.2l-2.8-0.7l-0.5-0.1
		c-12-2.6-21.6-5.4-28.5-8.1l-0.4-0.2c-1.1-0.5-2.3-0.9-3.5-1.5c-7.5-3.5-11.3-9.1-11.3-16.4c0-7.3,3.2-13.1,9.8-17.6
		c1.6-1.1,3.5-2.1,5.5-2.9c6-2.4,13.9-3.6,23.6-3.6c4.3,0,8.9,0.3,13.7,1c11.9,1.7,24,5.6,35.8,11.6l3.9,2l12.7-31.3l-3.1-1.7
		c-7.8-4.2-16.7-7.7-26.5-10.1c-6.3-1.6-12.8-2.8-19.3-3.5l-5.3-0.6v-37.5h-33.1v38.6l-4.9,0.9c-6.6,1.3-12.8,3.2-18.3,5.6
		c-12,5.2-21.1,12.4-27.1,21.3c-5.9,8.9-8.9,18.9-8.9,29.9c0,12.5,3.3,22.7,9.8,30.2c6.6,7.6,14.6,13.2,23.7,16.6
		c7.2,2.6,15.4,5.2,24.4,7.5c4.5,1.2,8.3,2.1,12,3c9,2.1,17,4.2,22.9,6.1l0.2,0.1c0.6,0.2,1.1,0.3,1.6,0.5h0.1
		c5.2,1.9,9.5,4.3,12.9,7.2l0.1,0.1c4,3.5,6,7.7,6,12.9c0,6.9-3.4,12.5-10,16.7c-2.5,1.6-5.6,2.9-9.3,3.9
		c-5.4,1.4-12.1,2.2-20.1,2.2c-5.9,0-11.6-0.5-17.2-1.3c-6-1-12.1-2.4-18.1-4.3c-9.2-3-17.6-6.8-24.9-11.3l-3.9-2.4l-13.9,30.9
		l2.8,1.9c8.1,5.3,18.3,9.8,30.4,13.3c8.2,2.3,16.4,4,24.3,5l5.3,0.6v41.1h33.1v-41.6l5-0.9c8.1-1.4,15.4-3.5,21.7-6.2
		c12.1-5.2,21.4-12.4,27.4-21.4c6-8.8,9.1-18.8,9.1-29.7c0-12.5-3.3-22.5-9.8-29.9C352.1,260.5,344.1,255,334.9,251.5z"/>
</g>
</svg>
