<?xml version="1.0" encoding="utf-8"?>
<!-- Generator: Adobe Illustrator 23.0.0, SVG Export Plug-In . SVG Version: 6.00 Build 0)  -->
<svg version="1.1" id="Layer_1" xmlns="http://www.w3.org/2000/svg" xmlns:xlink="http://www.w3.org/1999/xlink" x="0px" y="0px"
	 viewBox="0 0 512 512" style="enable-background:new 0 0 512 512;" xml:space="preserve">
<title>a2</title>
<g>
	<path d="M459.7,238.4L459.7,238.4L459.7,238.4z"/>
	<path d="M459.7,238.4L348,183.6c3.9-23.6,2.1-48-5.1-70.9c-7.8-24.6-21.8-46.9-40.6-64.7C271.5,18.9,231,4.2,188.2,6.7
		C150.5,9.2,115.3,25.5,89,52.5C69.1,72.7,55.3,98,49.1,125.7s-4.5,56.4,4.9,83.2c8,23.1,21.6,44.1,39.4,60.8
		c18.3,17.6,27.1,43.1,23.4,68.3l-1.5,11.3c-1.1,6.6,2.1,13.1,7.7,16.2v53.6c0,10.9,4.2,21.2,11.9,28.9c7.7,7.7,18,12,28.9,12h67.4
		c8,0,15.8-2.2,22.5-6.4l72.7,49.6c2.1,1.5,4.7,2.3,7.3,2.4h0.1c2.6,0,5.1-0.8,7.3-2.2l80.1-54.5c25.6-17.5,45.7-55.4,45.7-86.4
		V250.1C467,245.2,464.1,240.6,459.7,238.4z M111.3,250.9L111.3,250.9c-26.8-25.2-41.3-60.6-39.8-97.3
		c2.3-63.6,54.3-116.8,118.3-121c33.7-2.1,66.2,9.1,91.6,31.5s40.4,53.3,42.5,87c0.7,10.6,0,21.2-2,31.6l-113.7,55.7
		c-4.4,2.2-7.2,6.8-7.1,11.7v92h-58.5v-0.4C147.3,308.2,135.7,274.3,111.3,250.9z M149,386v-18h52.2c0.4,6.1,1.4,12.1,3,18H149z
		 M214.8,412c4.3,8,9.5,15.3,15.5,22h-66.2H164c-8.2,0.1-14.9-6.5-15.1-14.6V412H214.8z M227,362.4V258.1l107-52.4l107,52.6v104.2
		c0,22.5-15.7,52.2-34.4,64.9L333.8,477L261,427.4c-10-6.8-19.6-19-26.4-33.5C229.8,383,227,371.8,227,362.4z"/>
	<path d="M310.3,383.1c2.5,2.5,5.8,3.7,9.1,3.7c3.3,0,6.5-1.2,9.1-3.7l65.3-63.7c2.5-2.4,3.9-5.7,4-9.1c0.1-3.5-1.2-6.8-3.6-9.3
		c-5-5.2-13.2-5.3-18.4-0.3l-56.4,55l-27.2-26.5c-2.4-2.4-5.7-3.7-9.1-3.7H283c-3.5,0-6.7,1.4-9.2,3.9c-5,5.1-5,13.4,0.1,18.4
		L310.3,383.1z"/>
</g>
</svg>
