<?xml version="1.0" encoding="utf-8"?>
<!-- Generator: Adobe Illustrator 23.0.0, SVG Export Plug-In . SVG Version: 6.00 Build 0)  -->
<svg version="1.1" id="Capa_1" xmlns="http://www.w3.org/2000/svg" xmlns:xlink="http://www.w3.org/1999/xlink" x="0px" y="0px"
	 viewBox="0 0 462.9 462.9" style="enable-background:new 0 0 462.9 462.9;" xml:space="preserve">
<style type="text/css">
	.st0{fill:#E6AE48;}
</style>
<g>
	<path class="st0" d="M425.1,42.5L385.6,3c-2.2-2.2-5.1-3.2-8.2-2.9s-5.8,1.9-7.5,4.5C354.8,26.8,330,40,303.4,40
		c-26.1,0-50.8-12.8-65.9-34.3c-1.4-2-3.7-3.2-6.1-3.2s-4.7,1.2-6.1,3.2C210.2,27.2,185.6,40,159.4,40C132.9,39.9,108,26.7,93,4.5
		C91.3,2,88.5,0.3,85.5,0s-6,0.8-8.2,2.9L37.8,42.5c-3.8,3.8-3.9,9.8-0.2,13.7C61.8,82.5,56,123,48.7,174.2
		c-4.1,28.9-8.8,61.6-8.8,97.2c0,72.4,67.8,110.4,122.2,141c28.4,15.9,55.1,30.9,62.5,46.3c1.2,2.6,3.9,4.3,6.8,4.3s5.5-1.7,6.8-4.3
		c7.4-15.3,34.1-30.4,62.5-46.3c54.5-30.5,122.2-68.5,122.2-141c0-35.5-4.7-68.3-8.8-97.2c-7.3-51.3-13.1-91.8,11.2-118
		C429,52.3,428.9,46.3,425.1,42.5z M399.3,176.3c4,28.4,8.6,60.6,8.6,95.1c0,28.1-12,52.9-36.8,76c-22.3,20.8-51.8,37.3-77.8,51.9
		c-26.1,14.6-49.2,27.6-61.9,42.6c-12.7-15-35.8-28-61.9-42.6c-26-14.6-55.5-31.1-77.8-51.9c-24.8-23.1-36.8-48-36.8-76
		c0-34.5,4.6-66.7,8.6-95.1c7.6-53.1,13.6-95.5-11.8-126.6l32.1-32.1c18.2,23.4,46,37.3,75.6,37.3c27.7,0,53.9-12.1,72-32.9
		c18.1,20.7,44.3,32.9,72,32.9c29.6,0,57.5-13.9,75.5-37.3L411,49.7C385.7,80.9,391.8,123.3,399.3,176.3z"/>
	<path class="st0" d="M374.6,179.9c-5.5-38.3-10.6-74.6-2.6-106.3c0.7-2.9-0.3-5.9-2.7-7.8c-2.4-1.8-5.6-2.1-8.2-0.6
		C343.5,74.9,323.5,80,303.5,80c-24.2,0-47.7-7.3-67.8-21c-2.5-1.7-5.9-1.7-8.4,0c-20.1,13.7-43.5,21-67.8,21
		c-20.1,0-40-5.1-57.6-14.8c-2.6-1.4-5.8-1.2-8.2,0.6c-2.4,1.8-3.4,4.9-2.7,7.8c8,31.8,2.9,68-2.6,106.3
		c-4.1,28.9-8.4,58.8-8.4,91.5c0,45.5,42.2,72.6,101.8,106.1c16.6,9.3,32.2,18.1,45.3,27.4c1.3,0.9,2.8,1.4,4.4,1.4
		c1.5,0,3-0.5,4.3-1.4c13.1-9.4,28.8-18.1,45.4-27.4C340.8,344,383,316.9,383,271.4C383,238.7,378.7,208.8,374.6,179.9z M224,384.8
		c-10.8-6.9-22.6-13.5-34.9-20.4C134,333.5,95,308.7,95,271.4c0-31.6,4.2-61,8.2-89.4c4.9-34.2,9.5-66.7,5.2-97.1
		c16.2,6.6,33.5,10.1,51,10.1c22.7,0,44.7-5.7,64.5-16.4V103c-63.2,3.9-113.3,56.4-113.3,120.5c0,64.2,50.1,116.7,113.3,120.5v40.8
		H224z M231.5,329.7c-58.7,0-106.3-47.6-106.3-106.3s47.6-106.3,106.3-106.3s106.3,47.6,106.3,106.3
		C337.7,282.1,290.1,329.7,231.5,329.7z M273.8,364.4c-12.3,6.9-24,13.5-34.9,20.4V344c63.2-3.9,113.3-56.3,113.3-120.5
		S302.1,106.8,238.9,103V78.5c19.8,10.8,41.8,16.4,64.5,16.4c17.5,0,34.9-3.5,51-10.1c-4.3,30.4,0.3,63,5.2,97.1
		c4,28.4,8.2,57.8,8.2,89.4C368,308.7,328.9,333.5,273.8,364.4z"/>
	<path class="st0" d="M278.7,143.4c-10.8-11.1-25.1-18.1-40.4-20v-0.2l-2.7-0.1c-1.3-0.1-2.7-0.1-4.1-0.1c-1.4,0-2.8,0-4.1,0.1
		l-2.7,0.2v0.1c-15.4,1.8-29.6,8.8-40.4,19.9c-17.8,18.1-23.9,45.2-15.5,69.1c3.6,10.2,9.6,19.5,17.4,26.9
		c8.2,7.9,12.1,19.3,10.5,30.5l-0.7,5c-0.3,1.7,0.1,3.5,1.1,4.9c0.6,0.9,1.4,1.6,2.3,2.1v23.9c0,9.9,8,17.9,17.9,17.9h28.3h0.1
		c4.8,0,9.3-1.9,12.6-5.2c3.4-3.4,5.2-7.9,5.2-12.6V282c0.9-0.5,1.7-1.2,2.3-2.1c1-1.4,1.4-3.2,1.1-4.9l-0.7-5.1
		c-1.6-11.2,2.3-22.6,10.5-30.5c7.9-7.4,13.9-16.7,17.5-26.9C302.6,188.6,296.5,161.5,278.7,143.4z M255.4,271.4l0.1,0.5h-47.9
		l0.1-0.4c2.1-14.8-3-29.7-13.8-40.1c-11.9-11.2-18.4-27-17.7-43.4c1-28.4,24.2-52.1,52.7-53.9c0.9-0.1,1.8-0.1,2.7-0.1
		s1.8,0,2.7,0.1c28.5,1.9,51.7,25.6,52.8,53.9c0.7,16.3-5.8,32.1-17.7,43.3l0,0C258.4,241.8,253.3,256.7,255.4,271.4z M255.4,305.9
		l-2.8,0.1c-0.1,3.8-3.2,6.8-7,6.8h-28.2c-1.9,0.1-3.6-0.7-4.9-1.9c-1.3-1.3-2.1-3-2.1-4.9v-3.4h42.1v3.4h2.9V305.9z M252.5,291.5
		h-42.1V283h42.1V291.5z M245.7,320.9L245.7,320.9L245.7,320.9L245.7,320.9z"/>
</g>
</svg>
