<?xml version="1.0" encoding="utf-8"?>
<!-- Generator: Adobe Illustrator 23.0.0, SVG Export Plug-In . SVG Version: 6.00 Build 0)  -->
<svg version="1.1" id="Capa_1" xmlns="http://www.w3.org/2000/svg" xmlns:xlink="http://www.w3.org/1999/xlink" x="0px" y="0px"
	 viewBox="0 0 396.4 396.4" style="enable-background:new 0 0 396.4 396.4;" xml:space="preserve">
<style type="text/css">
	.st0{fill:#E6AE48;}
</style>
<g>
	<g>
		<g>
			<g>
				<polygon class="st0" points="288,61.7 288,61.7 288,61.6 				"/>
				<path class="st0" d="M342.3,7.6h-240c-29.8,0-54,24.2-54.1,54.1v219.2c-29.7,3.2-51.1,29.9-47.9,59.6c3,27.5,26.3,48.3,54,48.2
					h195.5c29.8,0,54-24.2,54.1-54.1V115.8h38.4c29.9,0,54.1-24.2,54.1-54.1S372.2,7.6,342.3,7.6z M211.5,372.7H54.3
					c-21.1,0-38.1-17.1-38.1-38.1s17.1-38.1,38.1-38.1h157.2C190.5,317.6,190.5,351.7,211.5,372.7z M288,61.7v273
					c0,21-17,38.1-38.1,38.1s-38.1-17-38.1-38.1s17-38.1,38.1-38.1c4.4,0,8-3.6,8-8s-3.6-8-8-8H64.5V61.7
					c0-20.9,16.9-37.9,37.8-38.1h201.4C293.6,33.7,288,47.4,288,61.7z M334.3,99.8H304V86.7h30.3V99.8z M350.3,99L350.3,99V78.7
					c0-4.4-3.6-8-8-8H304v-9c0.1-21,17.2-38,38.2-38s38,17.2,38,38.2C380.1,79.7,367.7,95.1,350.3,99z"/>
			</g>
		</g>
	</g>
	<g>
		<g>
			<path class="st0" d="M233.4,87h-117c-4.4,0-8,3.6-8,8s3.6,8,8,8h117c4.4,0,8-3.6,8-8S237.8,87,233.4,87z"/>
		</g>
	</g>
	<g>
		<g>
			<path class="st0" d="M233.4,144.1h-117c-4.4,0-8,3.6-8,8s3.6,8,8,8h117c4.4,0,8-3.6,8-8S237.8,144.1,233.4,144.1z"/>
		</g>
	</g>
	<g>
		<g>
			<path class="st0" d="M233.4,201.2h-117c-4.4,0-8,3.6-8,8s3.6,8,8,8h117c4.4,0,8-3.6,8-8S237.8,201.2,233.4,201.2z"/>
		</g>
	</g>
</g>
</svg>
