<?xml version="1.0" encoding="utf-8"?>
<!-- Generator: Adobe Illustrator 23.0.0, SVG Export Plug-In . SVG Version: 6.00 Build 0)  -->
<svg version="1.1" id="Capa_1" xmlns="http://www.w3.org/2000/svg" xmlns:xlink="http://www.w3.org/1999/xlink" x="0px" y="0px"
	 viewBox="0 0 512 512" style="enable-background:new 0 0 512 512;" xml:space="preserve">
<style type="text/css">
	.st0{fill:#E6AE48;}
</style>
<g>
	<path class="st0" d="M256,0C114.8,0,0,114.8,0,256s114.8,256,256,256c23.2,0,46.2-3.1,70.5-10c49.3-21.8,76.1-75.5,64.2-128
		l0.5-0.5c7.5-7.5,10.9-21.9,7.5-31.9l-1.4-4.4c-3.4-10.1-14.5-20.6-24.8-23.4l-37.8-10.3c-10.3-2.8-24.9,1-32.4,8.5l-13.7,13.7
		c-49.8-13.5-88.8-52.5-102.2-102.3l13.7-13.7c7.5-7.5,11.3-22.1,8.5-32.4l-10.3-37.8c-2.8-10.3-13.3-21.4-23.4-24.8l-4.3-1.4
		c-10.1-3.4-24.5,0-32,7.6L118,141.4c-3.7,3.6-6,14-6,14.1c-0.7,65.1,24.8,127.7,70.8,173.7c45.9,45.9,108.3,71.3,173.2,70.8
		c0.2,0,2.5-0.5,5.3-1.4c0.2,31.5-17.7,60.9-45.6,73.3c-19.3,5.3-39.4,8.1-59.8,8.1C132.5,480,32,379.5,32,256S132.5,32,256,32
		s224,100.5,224,224c0,36.8-8.8,72-26,104.6c-4.1,7.8-1.1,17.5,6.7,21.6c7.8,4.2,17.5,1.2,21.6-6.6C501.7,338.9,512,297.5,512,256
		C512,114.8,397.2,0,256,0z"/>
</g>
</svg>
