<?xml version="1.0" encoding="utf-8"?>
<!-- Generator: Adobe Illustrator 23.0.0, SVG Export Plug-In . SVG Version: 6.00 Build 0)  -->
<svg version="1.1" id="Capa_1" xmlns="http://www.w3.org/2000/svg" xmlns:xlink="http://www.w3.org/1999/xlink" x="0px" y="0px"
	 viewBox="0 0 463 463" style="enable-background:new 0 0 463 463;" xml:space="preserve">
<style type="text/css">
	.st0{fill:#E6AE48;}
</style>
<g>
	<path class="st0" d="M375.5,0h-288C70.1,0,56,14.1,56,31.5v368c0,17.4,14.1,31.5,31.5,31.5H88v16.5c0,8.5,7,15.5,15.5,15.5h16
		c8.5,0,15.5-7,15.5-15.5V431h193v16.5c0,8.5,7,15.5,15.5,15.5h16c8.5,0,15.5-7,15.5-15.5V431h0.5c17.4,0,31.5-14.1,31.5-31.5v-368
		C407,14.1,392.9,0,375.5,0z M120,447.5c0,0.3-0.2,0.5-0.5,0.5h-16c-0.3,0-0.5-0.2-0.5-0.5V431h17V447.5z M360,447.5
		c0,0.3-0.2,0.5-0.5,0.5h-16c-0.3,0-0.5-0.2-0.5-0.5V431h17V447.5z M392,399.5c0,9.1-7.4,16.5-16.5,16.5h-288
		c-9.1,0-16.5-7.4-16.5-16.5v-368C71,22.4,78.4,15,87.5,15h288c9.1,0,16.5,7.4,16.5,16.5V399.5z"/>
	<path class="st0" d="M359.5,40h-256c-4.1,0-7.5,3.4-7.5,7.5v25.7c-9.3,3.1-16,11.9-16,22.3v24c0,10.3,6.7,19.1,16,22.3v147.5
		c-9.3,3.1-16,11.9-16,22.3v24c0,10.3,6.7,19.1,16,22.3v25.7c0,4.1,3.4,7.5,7.5,7.5h256c4.1,0,7.5-3.4,7.5-7.5v-336
		C367,43.4,363.6,40,359.5,40z M352,256h-8.5c-4.7,0-8.5-3.8-8.5-8.5v-64c0-4.7,3.8-8.5,8.5-8.5h8.5V256z M95,95.5
		c0-4.7,3.8-8.5,8.5-8.5s8.5,3.8,8.5,8.5v24c0,4.7-3.8,8.5-8.5,8.5s-8.5-3.8-8.5-8.5V95.5z M95,311.5c0-4.7,3.8-8.5,8.5-8.5
		s8.5,3.8,8.5,8.5v24c0,4.7-3.8,8.5-8.5,8.5s-8.5-3.8-8.5-8.5V311.5z M111,376v-18.2c9.3-3.1,16-11.9,16-22.3v-24
		c0-10.3-6.7-19.1-16-22.3V141.8c9.3-3.1,16-11.9,16-22.3v-24c0-10.3-6.7-19.1-16-22.3V55h241v105h-8.5c-13,0-23.5,10.5-23.5,23.5
		v64c0,13,10.5,23.5,23.5,23.5h8.5v105H111z"/>
</g>
<path class="st0" d="M159.2,306.6c-7.2,0-13.3-4.9-14.9-11.9l-7.8-34c-1.7-7.2,2.1-14.6,8.9-17.6l36.6-15.7
	c6.2-2.7,13.6-0.9,17.9,4.4l12.4,15.2c19.7-10.5,35.9-26.7,46.5-46.5l-15.1-12.4c-5.3-4.2-7.1-11.6-4.4-17.9l15.7-36.6
	c3-6.8,10.3-10.6,17.6-8.9l34,7.8c7,1.6,11.9,7.8,11.9,15C318.2,235.3,246.9,306.6,159.2,306.6z M187.9,241.2h-0.1l-36.6,15.7
	c-0.2,0.1-0.3,0.3-0.2,0.4l7.8,34c0,0.1,0.1,0.3,0.3,0.3c79.4,0,144-64.6,144-144c0-0.2-0.1-0.3-0.3-0.3l0,0l-34-7.8
	c-0.2,0-0.3,0.1-0.4,0.2l-15.7,36.5c-0.1,0.1,0,0.3,0.1,0.4l24.4,19.9l-2.5,5.3c-12.7,27-34.5,48.8-61.5,61.5l-5.3,2.5L188,241.5
	C188.1,241.3,188,241.2,187.9,241.2z"/>
</svg>
