<?xml version="1.0" encoding="utf-8"?>
<!-- Generator: Adobe Illustrator 23.0.0, SVG Export Plug-In . SVG Version: 6.00 Build 0)  -->
<svg version="1.1" id="Layer_1" xmlns="http://www.w3.org/2000/svg" xmlns:xlink="http://www.w3.org/1999/xlink" x="0px" y="0px"
	 viewBox="0 0 496 496" style="enable-background:new 0 0 496 496;" xml:space="preserve">
<style type="text/css">
	.st0{fill:#E6AE48;}
</style>
<g>
	<path class="st0" d="M488,304c4.4,0,8-3.6,8-8V184c0-22.1-17.9-40-40-40H264c-4.4,0-8,3.6-8,8v32c0,4.4,3.6,8,8,8h112v64h-48
		c-13.2,0-24,10.8-24,24v120H192v-24c0-4.4-3.6-8-8-8H96V176h136c4.4,0,8-3.6,8-8v-48h72c3.1,0,5.9-1.8,7.2-4.6
		c1.3-2.8,0.9-6.1-1.1-8.5L282.4,64l35.7-42.9c2-2.4,2.4-5.7,1.1-8.5C317.9,9.8,315.1,8,312,8H168c-4.4,0-8,3.6-8,8v48H96V52.9
		c4.9-5.6,8-12.9,8-20.9c0-17.6-14.4-32-32-32S40,14.4,40,32c0,8,3.1,15.3,8,20.9V368H8c-4.4,0-8,3.6-8,8v112c0,4.4,3.6,8,8,8h480
		c4.4,0,8-3.6,8-8v-48c0-4.4-3.6-8-8-8h-24V304H488z M265.9,58.9c-2.5,3-2.5,7.3,0,10.2l29.1,34.9H240V72c0-2.4-1.1-4.5-2.8-6
		l0.1-0.1l-48-42h105.6L265.9,58.9z M176,33.6L210.7,64H176V33.6z M224,80v80H96v-16h48v-16H96v-16h48V96H96V80H224z M72,16
		c8.8,0,16,7.2,16,16s-7.2,16-16,16s-16-7.2-16-16S63.2,16,72,16z M64,62.9c2.6,0.7,5.2,1.1,8,1.1s5.4-0.5,8-1.1V368H64V62.9z
		 M480,480H16v-96h160v24c0,4.4,3.6,8,8,8h168v24c0,4.4,3.6,8,8,8h120V480z M416,432h-48v-24c0-4.4-3.6-8-8-8h-8v-96h64V432z
		 M432,432V296c0-4.4-3.6-8-8-8h-80c-4.4,0-8,3.6-8,8v104h-16V280c0-4.4,3.6-8,8-8h56c4.4,0,8-3.6,8-8v-80c0-4.4-3.6-8-8-8H272v-16
		h184c13.2,0,24,10.8,24,24v104h-16v-80h-16v224H432z"/>
	<path class="st0" d="M416,128c22.1,0,40-17.9,40-40V72c0-22.1-17.9-40-40-40s-40,17.9-40,40v16C376,110.1,393.9,128,416,128z
		 M392,72c0-13.2,10.8-24,24-24s24,10.8,24,24v16c0,13.2-10.8,24-24,24s-24-10.8-24-24V72z"/>
</g>
</svg>
