<?xml version="1.0" encoding="utf-8"?>
<!-- Generator: Adobe Illustrator 23.0.0, SVG Export Plug-In . SVG Version: 6.00 Build 0)  -->
<svg version="1.1" id="Layer_5" xmlns="http://www.w3.org/2000/svg" xmlns:xlink="http://www.w3.org/1999/xlink" x="0px" y="0px"
	 viewBox="0 0 512 512" style="enable-background:new 0 0 512 512;" xml:space="preserve">
<style type="text/css">
	.st0{fill:#E6AE48;}
</style>
<g>
	<path class="st0" d="M464,434.2V312c0-48.5-39.5-88-88-88c-16.5,0-31.9,4.6-45.1,12.6l-38-15.8c-3-1.2-4.9-4.2-4.9-7.4V208h16
		v-35.5c24.4-16.2,40-45.6,40-76.5c0-48.5-39.5-88-88-88s-88,39.5-88,88c0,30.8,15.6,60.3,40,76.5V208h16v5.3c0,3.2-1.9,6.1-4.9,7.4
		l-35.2,14.7c-12.2-7.2-26.3-11.4-41.4-11.4c-21.8,0-42.2,8.5-57.7,23.9l-1,1C62.6,255.2,48,274.7,48,297v31
		c0,33.8,23.4,62.7,56,70.1v7.2c0,3.2-1.9,6.1-4.9,7.4l-49.2,20.5C24.4,443.8,8,468.5,8,496v8h240h16h240v-8
		C504,469.2,488.3,445.2,464,434.2L464,434.2z M448,312v115.3l-35.1-14.6c-3-1.2-4.9-4.2-4.9-7.4v-7.6c15-14.4,24-34.5,24-56.3
		v-35.2l-56-18.7l-56,18.7v35.2c0,21.8,9,41.9,24,56.3v7.6c0,3.2-1.9,6.1-4.9,7.4L304,427.3V312c0-39.7,32.3-72,72-72
		S448,272.3,448,312L448,312z M403.1,440h-54.1l-5.8-11.6l2.1-0.9c7.7-3.2,13-10.1,14.4-18.1c4.4,2.5,9,4.6,13.8,6.2l2.5,0.8
		l2.5-0.8c4.9-1.6,9.5-3.8,13.8-6.2c1.4,8,6.7,14.9,14.4,18.1l2.1,0.9L403.1,440z M395.1,456l-16,32h-6.1l-16-32H395.1z M376,399.5
		c-24-9.2-40-32.2-40-58.1v-23.6l40-13.3l40,13.3v23.6C416,367.3,400,390.3,376,399.5L376,399.5z M224,192v-16h64v16H224z
		 M251.4,112h9.3l-4,48h-1.3L251.4,112z M184,96c0-39.7,32.3-72,72-72s72,32.3,72,72c0,25.8-13.8,51.2-34.4,64h-20.9l4-48H288
		c13.2,0,24-10.8,24-24s-10.8-24-24-24h-1.3c-12.4,0-22.9,9.7-23.9,22L262,96H250l-0.8-10c-1-12.3-11.5-22-23.9-22H224
		c-13.2,0-24,10.8-24,24s10.8,24,24,24h11.3l4,48h-20.9C197.8,147.2,184,121.8,184,96L184,96z M278,96l0.7-8.7
		c0.4-4.1,3.8-7.3,8-7.3h1.3c4.4,0,8,3.6,8,8s-3.6,8-8,8H278z M234,96h-10c-4.4,0-8-3.6-8-8s3.6-8,8-8h1.3c4.1,0,7.6,3.2,8,7.3
		L234,96z M272,208v5.3c0,4.4,1.2,8.5,3.3,12L256,244.7l-19.3-19.3c2.1-3.6,3.3-7.7,3.3-12V208H272z M224.5,235.8l31.5,31.5
		l31.5-31.5l28.6,11.9c-13.5,12.6-23.1,29.4-26.6,48.3h-66.1c-2.3-19.4-11.3-36.6-24.8-49.4L224.5,235.8z M64,328v-31
		c0-15.7,10.7-29.4,25.9-33.2l2.2-0.5l4-4c12.4-12.4,28.8-19.2,46.3-19.2c36.1,0,65.5,29.4,65.5,65.5V328c0,18.2-8.8,34.4-22.6,44.7
		c4.2-9.7,6.6-20.3,6.6-31.3V304h-17.4c-12.5,0-24.2-4.8-33-13.7l-5.7-5.7l-5.7,5.7c-8.8,8.8-20.5,13.7-33,13.7H80v37.4
		c0,11,2.3,21.7,6.6,31.3C72.8,362.4,64,346.2,64,328L64,328z M167.5,427.8l4.3,1.8l-8.3,29l-15.3-11.5L167.5,427.8z M155.3,417.4
		L136,436.7l-19.3-19.3c1.4-2.5,2.4-5.1,2.9-8c4.4,2.5,9,4.6,13.8,6.2l2.5,0.8l2.5-0.8c4.9-1.6,9.5-3.8,13.8-6.2
		C152.9,412.2,153.9,414.9,155.3,417.4L155.3,417.4z M176,341.4c0,25.9-16,48.9-40,58.1c-24-9.2-40-32.2-40-58.1V320h1.4
		c14.2,0,27.6-4.7,38.6-13.3c11,8.6,24.4,13.3,38.6,13.3h1.4V341.4z M123.8,447.1l-15.3,11.5l-8.3-29l4.3-1.8L123.8,447.1z
		 M24.6,488c2.7-17.7,14.4-32.9,31.4-40l29.3-12.2l14.2,49.6L136,458l36.5,27.4l14.2-49.6L216,448c16.9,7.1,28.7,22.3,31.4,40H24.6z
		 M222.2,433.2l-49.2-20.5c-3-1.2-4.9-4.2-4.9-7.4v-7.2c32.6-7.4,56-36.4,56-70.1v-16h64v122.2c-14,6.3-25.1,17-32,30.1
		C248.8,450.6,237.1,439.4,222.2,433.2L222.2,433.2z M296,448l32.3-13.5l26.7,53.5h-90.4C267.3,470.3,279.1,455.1,296,448z
		 M396.9,488l26.7-53.5L456,448c16.9,7.1,28.7,22.3,31.4,40H396.9z"/>
	<path class="st0" d="M360,88h48v16h-48V88z"/>
	<path class="st0" d="M342,37l41.6-24l8,13.9l-41.6,24L342,37z"/>
	<path class="st0" d="M120.4,26.9l8-13.9l41.6,24l-8,13.9L120.4,26.9z"/>
	<path class="st0" d="M104,88h48v16h-48V88z"/>
	<path class="st0" d="M120.4,165.1l41.6-24l8,13.9l-41.6,24L120.4,165.1z"/>
	<path class="st0" d="M342.1,154.9l8-13.9l41.6,24l-8,13.9L342.1,154.9z"/>
</g>
</svg>
