<?xml version="1.0" encoding="utf-8"?>
<!-- Generator: Adobe Illustrator 23.0.0, SVG Export Plug-In . SVG Version: 6.00 Build 0)  -->
<svg version="1.1" id="Capa_1" xmlns="http://www.w3.org/2000/svg" xmlns:xlink="http://www.w3.org/1999/xlink" x="0px" y="0px"
	 viewBox="0 0 512 512" style="enable-background:new 0 0 512 512;" xml:space="preserve">
<style type="text/css">
	.st0{fill:#E6AE48;}
</style>
<g>
	<g>
		<g>
			<path class="st0" d="M34.1,261.3c-0.1-0.6-0.3-1.3-0.6-1.9s-0.6-1.2-0.9-1.7c-0.4-0.5-0.8-1.1-1.2-1.5c-0.5-0.5-1-0.9-1.5-1.3
				c-0.5-0.4-1.1-0.7-1.7-0.9s-1.2-0.4-1.9-0.6c-1.3-0.3-2.6-0.3-3.9,0c-0.6,0.1-1.3,0.3-1.9,0.6s-1.2,0.6-1.7,0.9
				c-0.5,0.4-1,0.8-1.5,1.3c-0.5,0.5-0.9,1-1.2,1.5c-0.4,0.5-0.7,1.1-0.9,1.7c-0.3,0.6-0.4,1.2-0.6,1.9c-0.1,0.6-0.2,1.3-0.2,2
				s0.1,1.3,0.2,2c0.1,0.6,0.3,1.3,0.6,1.9s0.6,1.2,0.9,1.7c0.4,0.5,0.8,1.1,1.2,1.5c0.5,0.5,1,0.9,1.5,1.2c0.5,0.4,1.1,0.7,1.7,0.9
				s1.2,0.4,1.9,0.6c0.6,0.1,1.3,0.2,2,0.2c0.6,0,1.3-0.1,2-0.2c0.6-0.1,1.3-0.3,1.9-0.6s1.2-0.6,1.7-0.9c0.5-0.4,1.1-0.8,1.5-1.2
				s0.9-1,1.2-1.5c0.4-0.5,0.7-1.1,0.9-1.7s0.4-1.2,0.6-1.9s0.2-1.3,0.2-2C34.3,262.6,34.2,261.9,34.1,261.3z"/>
		</g>
	</g>
	<g>
		<g>
			<path class="st0" d="M356,119.6c-0.1-0.6-0.3-1.3-0.6-1.9c-0.3-0.6-0.6-1.2-0.9-1.7c-0.4-0.6-0.8-1.1-1.3-1.5
				c-0.5-0.5-1-0.9-1.5-1.2c-0.5-0.4-1.1-0.7-1.7-0.9s-1.2-0.4-1.9-0.6c-1.3-0.3-2.6-0.3-3.9,0c-0.6,0.1-1.3,0.3-1.9,0.6
				c-0.6,0.3-1.2,0.6-1.7,0.9c-0.5,0.4-1.1,0.8-1.5,1.2s-0.9,1-1.2,1.5c-0.4,0.5-0.7,1.1-0.9,1.7c-0.3,0.6-0.4,1.2-0.6,1.9
				c-0.1,0.7-0.2,1.3-0.2,2c0,0.7,0.1,1.3,0.2,1.9s0.3,1.3,0.6,1.9c0.3,0.6,0.6,1.2,0.9,1.7c0.4,0.6,0.8,1.1,1.2,1.5s1,0.9,1.5,1.2
				c0.5,0.4,1.1,0.7,1.7,0.9c0.6,0.3,1.2,0.4,1.9,0.6s1.3,0.2,2,0.2c0.7,0,1.3-0.1,2-0.2c0.6-0.1,1.3-0.3,1.9-0.6s1.2-0.6,1.7-0.9
				c0.5-0.4,1.1-0.8,1.5-1.2c0.5-0.5,0.9-1,1.3-1.5c0.4-0.5,0.7-1.1,0.9-1.7c0.3-0.6,0.4-1.2,0.6-1.9s0.2-1.3,0.2-1.9
				S356.1,120.2,356,119.6z"/>
		</g>
	</g>
	<g>
		<g>
			<path class="st0" d="M256,154c-56.3,0-102,45.8-102,102c0,56.3,45.8,102,102,102s102-45.8,102-102S312.3,154,256,154z M256,338
				c-45.2,0-82-36.8-82-82s36.8-82,82-82s82,36.8,82,82S301.2,338,256,338z"/>
		</g>
	</g>
	<g>
		<g>
			<path class="st0" d="M256,194.3c-34,0-61.7,27.7-61.7,61.7c0,34,27.7,61.7,61.7,61.7s61.7-27.7,61.7-61.7
				C317.7,222,290,194.3,256,194.3z M256,297.7c-23,0-41.7-18.7-41.7-41.7c0-23,18.7-41.7,41.7-41.7s41.7,18.7,41.7,41.7
				C297.7,279,279,297.7,256,297.7z"/>
		</g>
	</g>
	<g>
		<g>
			<path class="st0" d="M382.2,139.3c-3.8-4.1-10.1-4.3-14.1-0.5c-4.1,3.8-4.3,10.1-0.5,14.1c26.1,28.2,40.4,64.8,40.4,103.1
				c0,68-46,128-110.8,146.3c-5.5-17.5-21.8-30.3-41.1-30.3s-35.7,12.7-41.1,30.3C150.1,384,104.1,324.1,104.1,256
				c0-67.9,46.1-128,110.8-146.3c5.5,17.5,21.8,30.3,41.1,30.3c23.7,0,43.1-19.3,43.1-43.1S279.7,53.9,256,53.9
				c-21.2,0-38.8,15.3-42.4,35.5c-35.4,9-67.5,29.5-90.8,58C97.8,178,84.1,216.5,84.1,256c0,39.6,13.9,78.3,39,108.9
				c23.3,28.4,55.2,48.7,90.5,57.7c3.6,20.1,21.2,35.5,42.4,35.5c21.2,0,38.8-15.3,42.4-35.5c35.3-9,67.2-29.3,90.6-57.7
				c25.1-30.6,39-69.3,39-108.9C427.9,212.7,411.7,171.2,382.2,139.3z M256,73.9c12.7,0,23.1,10.3,23.1,23.1S268.7,120,256,120
				c-12.7,0-23.1-10.3-23.1-23.1C232.9,84.2,243.3,73.9,256,73.9z M256,438.1c-12.7,0-23.1-10.3-23.1-23.1
				c0-12.7,10.3-23.1,23.1-23.1c12.7,0,23.1,10.3,23.1,23.1C279.1,427.8,268.7,438.1,256,438.1z"/>
		</g>
	</g>
	<g>
		<g>
			<path class="st0" d="M491.5,310.9c4.2-17.9,6.3-36.4,6.3-54.9c0-133.3-108.5-241.8-241.8-241.8c-81.4,0-156.7,40.6-201.8,108.6
				c-20.3-5.5-42.2,4.7-50.7,24.6c-9.4,21.8,0.7,47.2,22.5,56.6c5.5,2.4,11.3,3.5,17,3.5c16.7,0,32.6-9.8,39.6-26
				c7.5-17.4,2.6-37-10.7-49C113.3,70.9,181.9,34.2,256,34.2c122.3,0,221.8,99.5,221.8,221.8c0,16.4-1.8,32.8-5.4,48.7
				c-17.9-1.4-35.5,8.5-43,25.9c-7.5,17.4-2.6,37,10.7,49c-41.4,61.7-109.6,98.2-184.1,98.2c-105.8,0-197.3-75.3-217.7-179
				c-1.1-5.4-6.3-9-11.7-7.9c-5.4,1.1-9,6.3-7.9,11.7c22.2,113.1,122,195.2,237.3,195.2c41.9,0,83.3-11,119.6-31.7
				c33-18.8,61.2-45.3,82.2-77c3.7,1,7.4,1.5,11.1,1.5c16.7,0,32.6-9.8,39.6-26C517,344.8,509.4,321.9,491.5,310.9z M64.2,173.5
				c-5,11.7-18.6,17.1-30.3,12.1c-11.7-5-17.1-18.6-12.1-30.3c3.7-8.7,12.3-13.9,21.2-13.9c3,0,6.1,0.6,9.1,1.9
				C63.8,148.2,69.2,161.8,64.2,173.5z M490.1,356.7c-5,11.7-18.6,17.1-30.3,12.1h0c-11.7-5-17.1-18.6-12.1-30.3
				c5-11.7,18.6-17.1,30.3-12.1C489.7,331.4,495.1,345,490.1,356.7z"/>
		</g>
	</g>
</g>
</svg>
