<?xml version="1.0" encoding="utf-8"?>
<!-- Generator: Adobe Illustrator 23.0.0, SVG Export Plug-In . SVG Version: 6.00 Build 0)  -->
<svg version="1.1" id="Capa_1" xmlns="http://www.w3.org/2000/svg" xmlns:xlink="http://www.w3.org/1999/xlink" x="0px" y="0px"
	 viewBox="0 0 227.3 227.3" style="enable-background:new 0 0 227.3 227.3;" xml:space="preserve">
<style type="text/css">
	.st0{fill:#E6AE48;}
</style>
<path class="st0" d="M106.2,173.5l-2.3-0.6c-4.5-1.2-7.9-3.5-12-6.9c-5.6-4.9-8.6-10.5-8.8-16.9l0,0l0.3-3.9l13.8,0l0.1,1.7
	c0.1,4.9,1.6,8.6,4.6,11.2c2.8,2.6,5.5,4,11.2,4c5.5,0,9.9-1.4,12.9-4.1c3-2.6,4.4-6.2,4.4-11c0-3.9-1.4-6.9-4.2-9.1
	c-3-2.4-8.3-4.4-15.7-6.2c-8.4-2-14.9-5-19.1-8.9c-4.4-4.2-6.7-9.5-6.7-15.7c0-7.2,2.7-13.1,8.3-17.7c3-2.5,6.6-4.4,10.5-5.5
	l2.3-0.6l-0.1-10.7l14.2-0.1l0,10.3l2.4,0.6c4.3,1,7.2,2.9,10.6,5.6c5.3,4.5,8.3,10.6,8.7,18.3l0.1,1.9l-13.9,0.1l-0.2-1.5
	c-0.6-4.6-2.1-8-4.6-10.1c-2.4-2.1-4.3-3.1-8.8-3.1h-0.2c-5,0-8.8,1.1-11.4,3.3c-2.6,2.2-3.8,5.1-3.8,9c0,3.4,1.2,6.1,3.6,8
	c2.5,2.1,7,4,13.3,5.4c9.5,2.2,16.7,5.5,21.5,9.8c4.8,4.3,7.3,10.1,7.3,16.6c0,7.9-2.9,14.5-8.9,19.6c-3.5,3.1-7.8,5.3-12.7,6.5
	l-2.4,0.6l0.1,12.3l-14.3,0L106.2,173.5z"/>
<path class="st0" d="M113.7,227.3c-54.4,0-98.6-44.2-98.6-98.5c0-49.8,37.2-91.8,86.4-97.8l2.7-0.3V14.4H87.7V0h51.4v14.4h-16.4
	v16.2l2.7,0.3c11.8,1.4,23.5,5.1,33.8,10.5l2.3,1.2l12.4-16.1l15.4,11.7l-11.7,15.4l2.1,1.9c20.8,18.7,32.7,45.4,32.7,73.3
	C212.3,183.1,168,227.3,113.7,227.3z M113.8,49.7c-43.6,0-79,35.5-79,79c0,43.6,35.5,79,79,79c43.6,0,79-35.5,79-79
	C192.8,85.2,157.3,49.7,113.8,49.7z"/>
</svg>
