<?xml version="1.0" encoding="utf-8"?>
<!-- Generator: Adobe Illustrator 23.0.0, SVG Export Plug-In . SVG Version: 6.00 Build 0)  -->
<svg version="1.1" id="Layer_1" xmlns="http://www.w3.org/2000/svg" xmlns:xlink="http://www.w3.org/1999/xlink" x="0px" y="0px"
	 viewBox="0 0 512 512" style="enable-background:new 0 0 512 512;" xml:space="preserve">
<style type="text/css">
	.st0{fill:#FFFFFF;}
</style>
<g>
	<g>
		<path class="st0" d="M256,265.3c30.1,0,54-23.9,54-54s-23.9-54-54-54s-54,23.9-54,54C202,241.5,225.9,265.3,256,265.3z M256,177.1
			c18.7,0,33.2,15.6,33.2,33.2s-15.6,33.2-33.2,33.2s-33.2-15.6-33.2-33.2S237.3,177.1,256,177.1z"/>
		<path class="st0" d="M448,396.1c-25.5,0-46.2,17.6-50.9,41.5H266.4v-19c82.1-5.2,147.6-71.1,152.3-153.3H448
			c6.2,0,10.4-4.2,10.4-10.4v-140c23.9-4.7,41.5-25.4,41.5-50.9c0-29.1-22.8-51.9-51.9-51.9S396.1,34.9,396.1,64
			c0,25.5,17.6,46.2,41.5,50.9v129.7h-19.1c-5.6-81.2-70.8-146.1-152.2-151.2V64c0-6.2-4.2-10.4-10.4-10.4h-141
			C110.2,29.7,89.5,12.1,64,12.1c-29.1,0-51.9,22.8-51.9,51.9s22.8,51.9,51.9,51.9c25.5,0,46.2-17.6,50.9-41.5h130.7v19
			c-81.4,5.1-146.5,70-152.2,151.2H64c-6.2,0-10.4,4.2-10.4,10.4v142.2c-23.9,4.7-41.5,25.4-41.5,50.9c0,29.1,22.8,51.9,51.9,51.9
			s51.9-22.8,51.9-51.9c0-25.5-17.6-46.2-41.5-50.9V265.3h19c4.6,82.2,70.2,148.1,152.3,153.3V448c0,6.2,4.2,10.4,10.4,10.4h141.1
			c4.7,23.9,25.4,41.5,50.9,41.5c29.1,0,51.9-22.8,51.9-51.9S477.1,396.1,448,396.1L448,396.1z M416.9,64
			c0-17.6,13.5-31.1,31.1-31.1s31.1,13.5,31.1,31.1S465.6,95.1,448,95.1S416.9,81.6,416.9,64z M64,95.1c-17.6,0-31.1-13.5-31.1-31.1
			S46.4,32.9,64,32.9S95.1,46.4,95.1,64S81.6,95.1,64,95.1z M95.1,448c0,17.6-13.5,31.1-31.1,31.1S32.9,465.6,32.9,448
			s13.5-31.1,31.1-31.1S95.1,430.4,95.1,448z M334.9,375.3c-22.6,15-49.7,23.7-78.9,23.7c-28.3,0-54.6-8.2-76.8-22.4v-19.9
			c0-27,21.8-47.7,47.7-47.7h60.2c27,0,47.7,21.8,47.7,47.7L334.9,375.3L334.9,375.3z M113.1,256c0-79,64-143,143-143
			s143,64,143,143c0,40.7-17,77.5-44.4,103.5v-2.9c0-38.4-31.1-68.5-68.5-68.5H226c-38.4,0-68.5,31.1-68.5,68.5v2.9
			C130.2,333.5,113.1,296.7,113.1,256L113.1,256z M448.1,479.1c-17.6,0-31.1-13.5-31.1-31.1s13.5-31.1,31.1-31.1
			s31.1,13.5,31.1,31.1S465.7,479.1,448.1,479.1z"/>
	</g>
</g>
</svg>
