<?xml version="1.0" encoding="utf-8"?>
<!-- Generator: Adobe Illustrator 23.0.0, SVG Export Plug-In . SVG Version: 6.00 Build 0)  -->
<svg version="1.1" id="Layer_1" xmlns="http://www.w3.org/2000/svg" xmlns:xlink="http://www.w3.org/1999/xlink" x="0px" y="0px"
	 viewBox="0 0 479 479" style="enable-background:new 0 0 479 479;" xml:space="preserve">
<style type="text/css">
	.st0{fill:#E6AE48;}
</style>
<g>
	<path class="st0" d="M476.5,160.1L245,0.4c-2.7-1.9-6.3-1.9-9.1,0L4.4,160.1c-2.9,2-4.1,5.6-3.1,8.9c1,3.3,4.1,5.6,7.6,5.6h39.9
		V470c0,4.4,3.6,8,8,8h367.2c4.4,0,8-3.6,8-8V174.6H472c3.5,0,6.6-2.3,7.6-5.6C480.7,165.7,479.4,162.1,476.5,160.1z M424.1,158.7
		c-4.4,0-8,3.6-8,8V462H64.9V166.7c0-4.4-3.6-8-8-8H34.6l205.9-142l205.9,142H424.1z"/>
	<path class="st0" d="M236,39.2L84.3,143.8c-2.2,1.5-3.4,3.9-3.4,6.6v287.7c0,4.4,3.6,8,8,8h303.4c4.4,0,8-3.6,8-8V150.4
		c0-2.6-1.3-5.1-3.4-6.6L245,39.2C242.3,37.3,238.7,37.3,236,39.2z M384.2,154.6v275.5H120.7v-14.8c-0.1-19.1,7.5-37.4,21-50.8
		l11.2-11.2c14.3,10.6,31.8,16.1,49.6,15.7c29.8-0.2,58.3-11.7,79.9-32.2c6.2-6.8,11.4-14.4,15.4-22.7c0.1-0.2,0.3-0.5,0.4-0.8
		c8.9-18,16.6-36.5,23-55.5c0.1-0.1,0.1-0.2,0.1-0.4c17.1-49,30-101.4,30.9-105.1c0.1-0.5,0.2-1.1,0.2-1.7c0-0.1,0-0.2,0-0.3
		c0-0.9-0.2-1.8-0.5-2.6c-0.1-0.2-0.2-0.4-0.3-0.6c-0.4-0.9-0.9-1.7-1.6-2.3c-0.7-0.7-1.5-1.2-2.4-1.6c-0.2-0.1-0.4-0.2-0.6-0.2
		c-0.8-0.3-1.8-0.5-2.7-0.5c-0.1,0-0.2,0-0.2,0c-0.6,0-1.1,0.1-1.7,0.2c-3.7,0.9-56.1,13.8-105.1,30.9c-0.1,0-0.2,0.1-0.4,0.1
		c-19,6.4-37.6,14.1-55.5,23c-0.3,0.1-0.5,0.2-0.7,0.4c-8.3,4-15.9,9.2-22.7,15.4c-32.1,32.1-44.8,93.3-16.5,129.4l-11.3,11.3
		c-16.5,16.5-25.7,38.9-25.6,62.2v14.8h-8V154.6l143.7-99.1L384.2,154.6z M169.6,223.7c2.2-2.1,4.5-3.9,7-5.6V307l-23.5,23.5
		C131.8,300.9,143.4,250,169.6,223.7z M232.5,192.3v58.8l-39.9,39.9V209C205.6,202.7,218.9,197.2,232.5,192.3z M318.2,165.5
		l-69.7,69.7v-48.5C272.5,178.5,297.6,171.1,318.2,165.5z M187.9,318.3h88.9c-1.7,2.5-3.5,4.8-5.6,7
		c-26.2,26.2-77.2,37.8-106.8,16.4L187.9,318.3z M286,302.4h-82.1l39.9-39.9h58.8C297.8,276,292.2,289.4,286,302.4z M308.2,246.5
		h-48.5l69.7-69.7C323.8,197.3,316.4,222.4,308.2,246.5z"/>
</g>
</svg>
