<?xml version="1.0" encoding="utf-8"?>
<!-- Generator: Adobe Illustrator 23.0.0, SVG Export Plug-In . SVG Version: 6.00 Build 0)  -->
<svg version="1.1" id="Layer_1" xmlns="http://www.w3.org/2000/svg" xmlns:xlink="http://www.w3.org/1999/xlink" x="0px" y="0px"
	 viewBox="0 0 484 484" style="enable-background:new 0 0 484 484;" xml:space="preserve">
<style type="text/css">
	.st0{fill:#E6AE48;}
</style>
<g>
	<path class="st0" d="M443.8,2.3c-2-2-4.9-2.8-7.6-2.1c-11,2.7-108,27.2-133.8,53c-13.2,12.5-21.6,29.3-23.9,47.3
		c-1.5,15.4,3.1,30.8,12.9,42.8l-22.2,22.2c-11.9,11.9-21.2,26.2-27.1,41.9c-6-15.7-15.2-30-27.1-41.9l-22.2-22.2
		c9.8-12,14.4-27.4,12.9-42.8c-2.3-18.1-10.7-34.8-23.9-47.3C156,27.4,58.9,2.9,48,0.2c-2.7-0.7-5.6,0.1-7.6,2.1s-2.8,4.8-2.1,7.6
		c2.7,11,27.2,108,53,133.8c13.7,14.8,32.8,23.5,52.9,24.2c13.6,0,26.7-4.7,37.2-13.2l22.2,22.2c18,17.9,28.7,41.8,30.1,67.1H170
		c-4.4,0-8,3.6-8,8s3.6,8,8,8h16v168c0,30.9,25.1,56,56,56s56-25.1,56-56V260h16c4.4,0,8-3.6,8-8s-3.6-8-8-8h-63.7
		c1.5-25.3,12.2-49.2,30.1-67.1l22.2-22.2c10.5,8.5,23.7,13.2,37.2,13.2c20.2-0.7,39.2-9.4,52.9-24.2c25.8-25.8,50.3-122.9,53-133.8
		C446.5,7.2,445.7,4.3,443.8,2.3z M102.6,132.4C85.8,115.6,66.5,53.7,57.2,19.2c34.5,9.3,96.5,28.6,113.3,45.4
		c18,18,27.3,45,10.8,67.4l-23.7-23.7l8.7-17.5c2-4,0.4-8.8-3.6-10.7c-3.9-2-8.8-0.4-10.7,3.6l-6.3,12.7L129.3,80l8.8-17.5
		c1.3-2.6,1.1-5.6-0.4-8c-1.6-2.4-4.3-3.8-7.2-3.6c-2.9,0.2-5.4,1.9-6.7,4.5L117.4,68L96.9,47.6c-2-2.1-5-2.9-7.8-2.2
		s-5,2.9-5.7,5.7s0.1,5.8,2.2,7.8l20.5,20.4l-12.7,6.4c-4,2-5.6,6.8-3.6,10.7c2,4,6.8,5.6,10.7,3.6l17.5-8.8l16.4,16.4l-12.7,6.4
		c-4,2-5.6,6.8-3.6,10.7c2,4,6.8,5.6,10.7,3.6l17.5-8.7l23.7,23.7C147.6,159.8,120.6,150.4,102.6,132.4z M282.1,428
		c0,22.1-17.9,40-40,40s-40-17.9-40-40V260h32v24c0,4.4,3.6,8,8,8s8-3.6,8-8v-24h32V428z M381.5,132.4c-18,18-45,27.3-67.4,10.8
		l23.7-23.7l17.5,8.7c4,2,8.8,0.4,10.8-3.6c2-3.9,0.4-8.8-3.6-10.8l-12.7-6.4L366.1,91l17.5,8.8c4,2,8.8,0.4,10.8-3.6
		s0.4-8.8-3.6-10.8L378,79l20.4-20.4c2.1-2,2.9-5,2.2-7.8c-0.7-2.8-2.9-5-5.7-5.7s-5.8,0.1-7.8,2.2L366.8,68l-6.4-12.7
		c-1.3-2.6-3.8-4.3-6.7-4.5c-2.9-0.2-5.6,1.2-7.2,3.6c-1.6,2.4-1.7,5.5-0.4,8l8.8,17.5l-16.4,16.4l-6.3-12.7c-2-4-6.8-5.6-10.7-3.6
		c-4,2-5.6,6.8-3.6,10.7l8.7,17.5L302.8,132c-16.5-22.4-7.2-49.4,10.8-67.4c16.7-16.8,78.8-36.1,113.3-45.4
		C417.6,53.7,398.3,115.7,381.5,132.4z"/>
	<path class="st0" d="M242.1,308c-4.4,0-8,3.6-8,8v80c0,4.4,3.6,8,8,8s8-3.6,8-8v-80C250.1,311.6,246.5,308,242.1,308z"/>
	<path class="st0" d="M242.1,420c-4.4,0-8,3.6-8,8v16c0,4.4,3.6,8,8,8s8-3.6,8-8v-16C250.1,423.6,246.5,420,242.1,420z"/>
</g>
</svg>
