<?xml version="1.0" encoding="utf-8"?>
<!-- Generator: Adobe Illustrator 23.0.0, SVG Export Plug-In . SVG Version: 6.00 Build 0)  -->
<svg version="1.1" id="Layer_1" xmlns="http://www.w3.org/2000/svg" xmlns:xlink="http://www.w3.org/1999/xlink" x="0px" y="0px"
	 viewBox="0 0 481 481" style="enable-background:new 0 0 481 481;" xml:space="preserve">
<style type="text/css">
	.st0{fill:#FFFFFF;}
</style>
<path class="st0" d="M449,315.1c0.1-0.1,0.1-0.2,0.1-0.4c17.1-49.1,30.1-101.6,31-105.3c0.1-0.6,0.2-1.1,0.2-1.7c0-0.1,0-0.2,0-0.3
	c0-0.9-0.2-1.8-0.5-2.6c-0.1-0.2-0.2-0.4-0.3-0.6c-0.7-1.8-2.1-3.2-3.9-3.9c-0.2-0.1-0.4-0.2-0.6-0.2c-0.9-0.3-1.8-0.5-2.7-0.5
	c-0.1,0-0.2,0-0.3,0c-0.6,0-1.1,0.1-1.7,0.2c-3.7,0.9-56.2,13.9-105.3,31c-0.1,0-0.2,0.1-0.4,0.1c-19,6.4-37.6,14.1-55.6,23.1
	c-0.3,0.1-0.5,0.2-0.7,0.4c-8.3,4-15.9,9.2-22.7,15.4c-32.1,32.1-44.9,93.5-16.6,129.7l-11.3,11.3c-3.6,3.6-6.8,7.6-9.7,11.8V247.9
	h40c4.4,0,8-3.6,8-8c0-4.4-3.6-8-8-8h-40V127.8c26.6-0.4,53.2-3,79.4-8c9.2,31.3,14.5,63.5,16,96.1c0.2,4.4,4,7.8,8.4,7.6
	c4.4-0.2,7.8-4,7.6-8.4c-1.5-33.4-7-66.5-16.3-98.6c22.8-5.1,45-12.9,66.1-23c21.7,25,37.7,54.5,46.6,86.5c0.7,2.8,2.9,4.9,5.7,5.7
	s5.7-0.1,7.8-2.2c2-2.1,2.8-5,2-7.8c-23.4-84-90.6-148.7-175.5-169C211-13.7,121.8,13.7,63,78.1c-63.7,69.6-80.6,170.1-43.2,256.8
	c37.3,86.6,122,143.3,216.4,144.9c1.2,0.8,2.6,1.2,4,1.2c4.4,0,8-3.6,8-8c-0.1-19.1,7.5-37.4,21.1-50.9l11.3-11.3
	c14.3,10.6,31.8,16.2,49.6,15.7c29.8-0.2,58.4-11.7,80.1-32.3c6.2-6.8,11.4-14.5,15.4-22.7c0.1-0.2,0.3-0.5,0.4-0.7
	C434.9,352.8,442.6,334.2,449,315.1z M179.2,455.3c-2-0.6-4-1.1-6-1.8c-1.6-0.5-3.2-1.1-4.9-1.6c-1.9-0.7-3.9-1.3-5.8-2
	c-1.6-0.6-3.2-1.2-4.8-1.8c-1.9-0.8-3.8-1.5-5.7-2.3c-1.6-0.7-3.1-1.4-4.7-2.1c-1.9-0.9-3.7-1.7-5.5-2.6c-1.5-0.8-3.1-1.5-4.6-2.3
	c-1.8-0.9-3.6-1.9-5.4-2.9c-1.5-0.8-3-1.6-4.4-2.5c-1.8-1-3.6-2.1-5.3-3.2c-1.4-0.9-2.9-1.8-4.3-2.7c-1.8-1.2-3.5-2.3-5.2-3.5
	c-1.4-0.9-2.7-1.9-4.1-2.8c-1.7-1.3-3.4-2.6-5.1-3.9c-1.3-1-2.6-2-3.8-3c-1.7-1.4-3.4-2.8-5.1-4.3c-1.2-1-2.4-2-3.6-3
	c-1.8-1.6-3.5-3.2-5.2-4.8c-1-1-2.1-2-3.1-3c-0.1-0.1-0.2-0.3-0.4-0.4c19.1-8.7,39.1-15.4,59.6-19.9c9.2,29.8,25.5,56.9,47.5,79.1
	c-1.7-0.4-3.4-0.8-5.1-1.2C182.4,456.2,180.8,455.8,179.2,455.3z M70.9,93.3c21,10.1,43.1,17.9,65.9,23
	c-10.7,37.6-16.2,76.5-16.5,115.6H16.4C18.1,180.9,37.4,131.9,70.9,93.3z M82.6,80.8c0.9-0.9,1.9-1.8,2.9-2.7
	c1.8-1.7,3.6-3.4,5.4-5.1c1.1-1,2.3-1.9,3.4-2.9c1.7-1.5,3.5-3,5.3-4.4c1.2-1,2.5-1.9,3.7-2.9c1.7-1.3,3.5-2.7,5.3-4
	c1.3-0.9,2.7-1.9,4-2.8c1.8-1.2,3.5-2.4,5.3-3.6c1.4-0.9,2.8-1.8,4.2-2.7c1.8-1.1,3.6-2.2,5.4-3.2c1.5-0.9,2.9-1.7,4.4-2.5
	c1.8-1,3.6-2,5.5-2.9c1.5-0.8,3-1.5,4.6-2.3c1.8-0.9,3.7-1.8,5.6-2.6c1.6-0.7,3.1-1.4,4.7-2.1c1.9-0.8,3.8-1.6,5.7-2.3
	c1.6-0.6,3.2-1.2,4.8-1.8c1.9-0.7,3.9-1.4,5.8-2c1.6-0.5,3.2-1.1,4.8-1.6c2-0.6,4-1.2,6-1.8c1.6-0.5,3.2-0.9,4.9-1.4
	c1.7-0.4,3.4-0.8,5.1-1.2c-22,22.2-38.3,49.3-47.5,79.1c-20.5-4.6-40.4-11.2-59.5-19.9C82.3,81.1,82.5,80.9,82.6,80.8L82.6,80.8z
	 M232.1,111.8c-24.9-0.4-49.6-2.8-74.1-7.3c17.6-49,44.3-82.5,74.1-87.7V111.8z M120.2,247.9c0.3,39.1,5.9,78,16.5,115.6
	c-22.8,5.1-44.9,12.9-65.9,23C37.4,348,18.1,299,16.4,247.9H120.2z M158,375.4c24.4-4.5,49.2-7,74.1-7.3v95
	C202.3,458,175.6,424.4,158,375.4z M232.1,352.1c-26.6,0.4-53.1,3-79.2,8c-10.6-36.5-16.3-74.2-16.7-112.2h95.9V352.1z M136.2,231.9
	c0.4-38,6.1-75.7,16.7-112.1c26.1,5,52.6,7.6,79.2,8v104.1H136.2z M248.1,111.8v-95c29.7,5.1,56.6,38.4,74.3,87.7
	C297.9,109,273,111.4,248.1,111.8z M290.3,21.8c2,0.5,3.9,0.9,5.9,1.4c1.6,0.4,3.2,0.9,4.9,1.4c2,0.6,4,1.1,6,1.8
	c1.6,0.5,3.2,1.1,4.9,1.6c1.9,0.7,3.9,1.3,5.8,2c1.6,0.6,3.2,1.2,4.8,1.8c1.9,0.8,3.8,1.5,5.7,2.3c1.6,0.7,3.1,1.4,4.7,2.1
	c1.9,0.9,3.7,1.7,5.6,2.6c1.5,0.7,3.1,1.5,4.6,2.3c1.8,0.9,3.6,1.9,5.4,2.9c1.5,0.8,3,1.6,4.4,2.5c1.8,1,3.6,2.1,5.3,3.2
	c1.4,0.9,2.9,1.8,4.3,2.7c1.8,1.2,3.5,2.3,5.2,3.5c1.4,0.9,2.7,1.9,4.1,2.8c1.7,1.3,3.4,2.6,5.1,3.9c1.3,1,2.6,2,3.8,3
	c1.7,1.4,3.4,2.8,5.1,4.3c1.2,1,2.4,2,3.6,3c1.7,1.6,3.5,3.2,5.2,4.8c1,1,2.1,2,3.1,3c0.1,0.1,0.2,0.3,0.4,0.4
	c-19.2,8.7-39.2,15.4-59.8,20C328.8,71.3,312.4,44,290.3,21.8z M435.9,303.9h-48.6l69.8-69.8C451.5,254.7,444.1,279.8,435.9,303.9z
	 M376.1,292.6v-48.6c24.1-8.2,49.2-15.6,69.8-21.3L376.1,292.6z M360.1,308.6l-40,40v-82.2c13-6.3,26.4-11.9,40-16.7V308.6z
	 M371.4,319.9h58.9c-4.8,13.6-10.4,27-16.7,40h-82.2L371.4,319.9z M297,281.1c2.2-2.1,4.5-3.9,7-5.6v89.1l-23.5,23.5
	C259.2,358.4,270.8,307.4,297,281.1z M291.9,399.4l23.5-23.5h89c-1.7,2.5-3.5,4.9-5.6,7C372.6,409.2,321.5,420.8,291.9,399.4z"/>
</svg>
