<?xml version="1.0" encoding="utf-8"?>
<!-- Generator: Adobe Illustrator 23.0.0, SVG Export Plug-In . SVG Version: 6.00 Build 0)  -->
<svg version="1.1" id="Layer_1" xmlns="http://www.w3.org/2000/svg" xmlns:xlink="http://www.w3.org/1999/xlink" x="0px" y="0px"
	 viewBox="0 0 90 21.5" style="enable-background:new 0 0 90 21.5;" xml:space="preserve">
<style type="text/css">
	.st0{fill:#0B2E3A;}
	.st1{fill:#546D75;}
	.st2{fill:#42C0BB;}
	.st3{fill:#E23F30;}
	.st4{fill:#F05E2B;}
	.st5{fill:#E26525;}
	.st6{fill:#FBB763;}
	.st7{fill:#FAA63F;}
</style>
<g>
	<g>
		<polygon class="st0" points="18,0 21,5.4 24,0 		"/>
		<polygon class="st1" points="9,5.4 12,0 15,5.4 		"/>
		<polygon class="st2" points="18,0 12,0 15,5.4 21,5.4 		"/>
		<polygon class="st3" points="9,5.4 12,10.8 15,5.4 		"/>
		<polygon class="st4" points="12,10.8 15,5.4 18,10.8 		"/>
		<polygon class="st5" points="12,10.8 15,16.2 18,10.8 		"/>
		<polygon class="st6" points="6,10.8 0,10.8 3,16.2 9,16.2 		"/>
		<polygon class="st7" points="12,10.8 6,10.8 9,16.2 15,16.2 		"/>
		<polygon class="st1" points="3,16.2 6,21.5 9,16.2 		"/>
		<polygon class="st2" points="0,21.5 3,16.2 6,21.5 		"/>
		<polygon class="st0" points="6,10.8 9,5.4 12,10.8 		"/>
	</g>
	<g>
		<path class="st0" d="M25.61038,12.19366h-2.83987v1.40228h2.51885v0.80668h-2.51885v2.07058H21.9v-5.08596h3.71038V12.19366z"/>
		<path class="st0" d="M29.78457,16.4732l-1.23118-1.77278h-1.10216v1.77278h-0.87051v-5.08596h2.22625
			c0.28545,0,0.54337,0.03765,0.77426,0.11268c0.23063,0.07503,0.42557,0.18174,0.58506,0.31961
			c0.15936,0.13813,0.28188,0.30767,0.36743,0.50862c0.08567,0.20122,0.12851,0.42502,0.12851,0.67219
			c0,0.21316-0.02983,0.40321-0.08924,0.57016c-0.05954,0.1672-0.14152,0.31494-0.24619,0.44319
			c-0.10467,0.12852-0.22948,0.23756-0.37457,0.32714c-0.14521,0.08957-0.30573,0.15864-0.48166,0.20693l1.3486,1.92544H29.78457z
			 M29.49823,12.40889c-0.18129-0.14332-0.43666-0.21524-0.76584-0.21524h-1.28116v1.71488h1.28843
			c0.31478,0,0.5653-0.07789,0.75143-0.23341c0.18614-0.15578,0.27921-0.36504,0.27921-0.62753
			C29.7703,12.76537,29.67952,12.55247,29.49823,12.40889z"/>
		<path class="st0" d="M36.54888,14.94006c-0.12838,0.31987-0.30917,0.59949-0.54222,0.83939
			c-0.23318,0.23964-0.50907,0.42969-0.82767,0.57016c-0.31886,0.14046-0.67073,0.21082-1.05614,0.21082
			c-0.38528,0-0.73741-0.06906-1.05601-0.20719c-0.31873-0.13787-0.5922-0.32558-0.82053-0.56288s-0.4067-0.51589-0.53521-0.83576
			c-0.12838-0.31961-0.19264-0.65869-0.19264-1.01698c0-0.35855,0.06425-0.69764,0.19264-1.01724
			c0.12851-0.31961,0.30917-0.59949,0.54235-0.83914c0.23306-0.2399,0.50895-0.42995,0.82767-0.57042
			C33.39972,11.37036,33.75185,11.3,34.13713,11.3c0.38541,0,0.73729,0.06906,1.05614,0.20719
			c0.3186,0.13812,0.5922,0.32584,0.82053,0.56314c0.22834,0.23731,0.4067,0.51589,0.53508,0.8355
			c0.12851,0.31961,0.19277,0.65869,0.19277,1.01724C36.74165,14.28137,36.67739,14.62045,36.54888,14.94006z M35.69622,13.23635
			c-0.08325-0.22043-0.19978-0.41282-0.34958-0.57768c-0.1498-0.16461-0.32944-0.2952-0.53878-0.39231
			c-0.20934-0.09684-0.43768-0.14514-0.68501-0.14514s-0.4744,0.04725-0.68144,0.1415
			c-0.20692,0.09451-0.38413,0.22303-0.53151,0.38504c-0.14751,0.16253-0.26289,0.35362-0.34614,0.57405
			s-0.12481,0.4541-0.12481,0.70127c0,0.24691,0.04156,0.48058,0.12481,0.70101s0.19991,0.41308,0.34971,0.57768
			c0.1498,0.16461,0.32931,0.29546,0.53865,0.39231c0.20934,0.09684,0.43768,0.1454,0.68501,0.1454s0.47453-0.04725,0.68144-0.14176
			c0.20692-0.09451,0.38413-0.22277,0.53164-0.38504c0.14738-0.16227,0.26276-0.35362,0.34601-0.57405
			c0.08325-0.22043,0.12494-0.4541,0.12494-0.70101C35.82116,13.69044,35.77947,13.45677,35.69622,13.23635z"/>
		<path class="st0" d="M41.28671,11.38723h0.87064v5.08596h-0.73359l-2.74858-3.61825v3.61825h-0.87051v-5.08596h0.81174
			l2.6703,3.51648V11.38723z"/>
		<path class="st0" d="M45.55372,16.4732h-0.88479v-4.25773h-1.58408v-0.82823h4.05282v0.82823h-1.58395V16.4732z"/>
		<path class="st0" d="M53.40974,16.4732l-1.23106-1.77278h-1.10229v1.77278h-0.87051v-5.08596h2.22625
			c0.28558,0,0.54337,0.03765,0.77438,0.11268c0.2305,0.07503,0.42556,0.18174,0.58493,0.31961
			c0.15936,0.13813,0.28201,0.30767,0.36743,0.50862c0.08567,0.20122,0.12851,0.42502,0.12851,0.67219
			c0,0.21316-0.02983,0.40321-0.08924,0.57016c-0.05941,0.1672-0.14152,0.31494-0.24606,0.44319
			c-0.1048,0.12852-0.22948,0.23756-0.37457,0.32714c-0.14534,0.08957-0.30573,0.15864-0.48166,0.20693l1.3486,1.92544H53.40974z
			 M53.12339,12.40889c-0.18129-0.14332-0.43653-0.21524-0.76571-0.21524h-1.28129v1.71488h1.28843
			c0.3149,0,0.5653-0.07789,0.75143-0.23341c0.18613-0.15578,0.27921-0.36504,0.27921-0.62753
			C53.39546,12.76537,53.30468,12.55247,53.12339,12.40889z"/>
		<path class="st0" d="M60.17417,14.94006c-0.12851,0.31987-0.3093,0.59949-0.54235,0.83939
			c-0.23306,0.23964-0.5092,0.42969-0.82767,0.57016c-0.31898,0.14046-0.67086,0.21082-1.05614,0.21082
			c-0.38528,0-0.73741-0.06906-1.05614-0.20719c-0.31873-0.13787-0.59207-0.32558-0.82053-0.56288
			c-0.22821-0.23731-0.4067-0.51589-0.53521-0.83576c-0.12825-0.31961-0.19251-0.65869-0.19251-1.01698
			c0-0.35855,0.06425-0.69764,0.19251-1.01724c0.12851-0.31961,0.3093-0.59949,0.54235-0.83914
			c0.23306-0.2399,0.50895-0.42995,0.82767-0.57042C57.02488,11.37036,57.37701,11.3,57.76229,11.3
			c0.38528,0,0.73715,0.06906,1.05614,0.20719c0.31847,0.13812,0.59207,0.32584,0.82053,0.56314
			c0.22821,0.23731,0.4067,0.51589,0.53521,0.8355c0.12825,0.31961,0.19251,0.65869,0.19251,1.01724
			C60.36668,14.28137,60.30243,14.62045,60.17417,14.94006z M59.32151,13.23635c-0.08338-0.22043-0.19991-0.41282-0.34984-0.57768
			c-0.14967-0.16461-0.32944-0.2952-0.53878-0.39231c-0.20934-0.09684-0.43755-0.14514-0.68488-0.14514
			c-0.24733,0-0.47453,0.04725-0.68157,0.1415c-0.20679,0.09451-0.384,0.22303-0.53138,0.38504
			c-0.14763,0.16253-0.26289,0.35362-0.34626,0.57405c-0.08313,0.22043-0.12469,0.4541-0.12469,0.70127
			c0,0.24691,0.04156,0.48058,0.12469,0.70101c0.08338,0.22043,0.19991,0.41308,0.34983,0.57768
			c0.14968,0.16461,0.32918,0.29546,0.53852,0.39231c0.20934,0.09684,0.43781,0.1454,0.68514,0.1454
			s0.47452-0.04725,0.68131-0.14176c0.20705-0.09451,0.38426-0.22277,0.53164-0.38504
			c0.14738-0.16227,0.26289-0.35362,0.34627-0.57405c0.08312-0.22043,0.12468-0.4541,0.12468-0.70101
			C59.44619,13.69044,59.40463,13.45677,59.32151,13.23635z"/>
		<path class="st0" d="M64.14145,11.3727h0.742l1.22723,3.78546l1.19179-3.77092h0.92049l-1.74102,5.12231H65.7254l-1.22723-3.6546
			l-1.22723,3.6546h-0.75628l-1.74128-5.12231h0.94904l1.19179,3.77092L64.14145,11.3727z"/>
		<path class="st0" d="M71.2626,11.38723h0.87051v4.27954h2.62582v0.80642H71.2626V11.38723z"/>
		<path class="st0" d="M80.46008,16.4732h-0.92763l-0.50665-1.22781h-2.36191l-0.51379,1.22781H75.2513l2.19769-5.12231h0.81339
			L80.46008,16.4732z M77.84141,12.41902l-0.85623,2.03423h1.7196L77.84141,12.41902z"/>
		<path class="st0" d="M84.74915,11.7367c0.29425,0.23289,0.44163,0.55068,0.44163,0.95363
			c0,0.15526-0.02014,0.29339-0.06017,0.41463c-0.04029,0.12151-0.09205,0.22692-0.1558,0.31675
			c-0.06374,0.08983-0.13922,0.16876-0.22643,0.23653c-0.08746,0.06802-0.17568,0.12618-0.26543,0.17473
			c0.14661,0.05322,0.28023,0.11476,0.40083,0.18512c0.12061,0.0701,0.22464,0.15344,0.3121,0.25003
			c0.08746,0.09684,0.15478,0.2116,0.2022,0.34453c0.04717,0.13319,0.07088,0.28664,0.07088,0.46059
			c0,0.22744-0.04385,0.42813-0.13182,0.60209c-0.08772,0.17421-0.2124,0.32039-0.37381,0.43878
			c-0.1614,0.11865-0.35621,0.20797-0.58416,0.26846c-0.22796,0.0605-0.47962,0.09061-0.755,0.09061h-2.30785v-5.08596h2.23619
			C84.05585,11.38723,84.4549,11.50381,84.74915,11.7367z M84.064,13.36616c0.17084-0.11424,0.25626-0.29079,0.25626-0.52939
			c0-0.20952-0.07471-0.37154-0.22413-0.48577c-0.14942-0.1145-0.36615-0.17188-0.65071-0.17188h-1.2586v1.35866h1.1946
			C83.66598,13.53778,83.89342,13.48066,84.064,13.36616z M84.34245,15.50321c0.17059-0.11865,0.256-0.29416,0.256-0.5268
			c0-0.21783-0.08414-0.38737-0.25269-0.50862c-0.16828-0.12099-0.42556-0.18148-0.77183-0.18148h-1.38711v1.39501h1.45111
			C83.93677,15.68131,84.17161,15.62212,84.34245,15.50321z"/>
		<path class="st0" d="M87.25282,12.97853c0.0334,0.0727,0.09409,0.14046,0.18257,0.20329
			c0.08797,0.06309,0.20959,0.12125,0.36462,0.17447c0.15503,0.05323,0.35188,0.10905,0.59029,0.1672
			c0.26212,0.06776,0.49492,0.1428,0.69737,0.2251c0.20271,0.0823,0.37075,0.18278,0.50436,0.30143
			c0.13361,0.11891,0.23484,0.25678,0.3042,0.41412C89.96532,14.62175,90,14.80687,90,15.02003
			c0,0.24224-0.04385,0.45773-0.13106,0.64675c-0.08746,0.18875-0.20883,0.34869-0.36463,0.47954
			c-0.15553,0.13059-0.3427,0.23003-0.56096,0.2978c-0.21852,0.06776-0.45872,0.10178-0.72007,0.10178
			c-0.38554,0-0.75424-0.06673-1.10612-0.19992c-0.35213-0.13319-0.67774-0.33778-0.9776-0.61377l0.52807-0.63948
			c0.24274,0.21316,0.48753,0.37673,0.73486,0.49045c0.24734,0.11398,0.52807,0.17084,0.84221,0.17084
			c0.27105,0,0.48625-0.05816,0.64561-0.17447c0.15937-0.11632,0.23917-0.27365,0.23917-0.47227
			c0-0.09191-0.01555-0.17447-0.04666-0.24691c-0.03085-0.0727-0.08822-0.13942-0.1716-0.19992
			c-0.08363-0.06049-0.19812-0.11735-0.34346-0.17084c-0.14534-0.05323-0.33505-0.10879-0.56861-0.16694
			c-0.26723-0.06283-0.50436-0.13319-0.71191-0.21082c-0.2073-0.07737-0.38145-0.17421-0.5222-0.29053
			c-0.14075-0.11632-0.2481-0.25678-0.32204-0.42139c-0.07369-0.16461-0.11066-0.36582-0.11066-0.60313
			c0-0.22276,0.04233-0.42502,0.12724-0.60676c0.08491-0.18148,0.20169-0.33778,0.35035-0.46864
			c0.14865-0.1306,0.32739-0.23107,0.53622-0.30143c0.20883-0.0701,0.43704-0.10541,0.68438-0.10541
			c0.36615,0,0.69559,0.05452,0.98831,0.16357c0.29247,0.10905,0.56734,0.26768,0.8241,0.47591l-0.47095,0.67557
			c-0.22821-0.16928-0.45438-0.29884-0.67774-0.38867c-0.22388-0.08957-0.44954-0.13423-0.678-0.13423
			c-0.25677,0-0.45667,0.0592-0.59946,0.17785c-0.14253,0.11891-0.21393,0.26275-0.21393,0.43229
			C87.20284,12.81859,87.21941,12.90583,87.25282,12.97853z"/>
	</g>
</g>
</svg>
