<?xml version="1.0" encoding="utf-8"?>
<!-- Generator: Adobe Illustrator 23.0.0, SVG Export Plug-In . SVG Version: 6.00 Build 0)  -->
<svg version="1.1" id="Layer_1" xmlns="http://www.w3.org/2000/svg" xmlns:xlink="http://www.w3.org/1999/xlink" x="0px" y="0px"
	 viewBox="0 0 128.60001 50.9" style="enable-background:new 0 0 128.60001 50.9;" xml:space="preserve">
<style type="text/css">
	.st0{fill:#0A2E3A;}
	.st1{fill:#495560;}
	.st2{fill:#43BFBA;}
	.st3{fill:#E23F30;}
	.st4{fill:#F05E2D;}
	.st5{fill:#E16626;}
	.st6{fill:#FBB564;}
	.st7{fill:#F9A63F;}
	.st8{fill:#FFFFFF;}
</style>
<title>frlogo</title>
<g>
	<polygon class="st0" points="49.5,8.3 54.3,16.9 59.1,8.3 	"/>
	<polygon class="st1" points="35.2,16.9 39.9,8.3 44.7,16.9 	"/>
	<polygon class="st2" points="49.5,8.3 39.9,8.3 44.7,16.9 54.3,16.9 	"/>
	<polygon class="st3" points="35.2,16.9 39.9,25.5 44.7,16.9 	"/>
	<polygon class="st4" points="39.9,25.5 44.7,16.9 49.5,25.5 	"/>
	<polygon class="st5" points="39.9,25.5 44.7,34.1 49.5,25.5 	"/>
	<polygon class="st6" points="30.4,25.5 20.8,25.5 25.6,34.1 35.2,34.1 	"/>
	<polygon class="st7" points="39.9,25.5 30.4,25.5 35.2,34.1 44.7,34.1 	"/>
	<polygon class="st1" points="25.6,34.1 30.4,42.7 35.2,34.1 	"/>
	<polygon class="st2" points="20.8,42.7 25.6,34.1 30.4,42.7 	"/>
	<polygon class="st0" points="30.4,25.5 35.2,16.9 39.9,25.5 	"/>
	<g>
		<path class="st8" d="M68.73341,9.78663h-5.15365v2.49359h4.57107v1.43447h-4.57107v3.68198H62V8.35262h6.73341V9.78663z"/>
		<path class="st8" d="M76.30851,17.39666l-2.23429-3.15242h-2.00014v3.15242h-1.57976V8.35262h4.04009
			c0.51802,0,0.98608,0.06695,1.40508,0.20037c0.41854,0.13343,0.77229,0.32318,1.06173,0.56834
			c0.28921,0.24562,0.51155,0.5471,0.66679,0.90445c0.15548,0.35781,0.23322,0.75579,0.23322,1.19532
			c0,0.37905-0.05414,0.717-0.16196,1.01387c-0.10805,0.29733-0.25681,0.56003-0.44676,0.7881
			c-0.18995,0.22854-0.41646,0.42245-0.67975,0.58173c-0.26353,0.15928-0.55481,0.28209-0.87409,0.36797l2.44737,3.42389H76.30851z
			 M75.78886,10.16937c-0.329-0.25485-0.79242-0.38274-1.38981-0.38274h-2.32498v3.04946h2.33817
			c0.57124,0,1.02587-0.13851,1.36366-0.41506c0.33779-0.27701,0.50669-0.64914,0.50669-1.1159
			C76.2826,10.80327,76.11787,10.42468,75.78886,10.16937z"/>
		<path class="st8" d="M88.58402,14.67038c-0.23299,0.5688-0.56107,1.06604-0.98399,1.49264
			c-0.42317,0.42614-0.92384,0.7641-1.50202,1.01387c-0.57864,0.24977-1.21721,0.37489-1.91663,0.37489
			c-0.69918,0-1.33821-0.12281-1.91639-0.36843c-0.57841-0.24516-1.07469-0.57896-1.48907-1.00094
			c-0.41437-0.42198-0.73805-0.91738-0.97127-1.48618c-0.23298-0.56834-0.34959-1.17131-0.34959-1.80844
			c0-0.63759,0.11661-1.24056,0.34959-1.8089c0.23322-0.56834,0.56107-1.06604,0.98423-1.49218
			c0.42294-0.4266,0.92361-0.76456,1.50201-1.01433c0.57819-0.24977,1.21721-0.37489,1.9164-0.37489
			c0.69941,0,1.33798,0.12281,1.91662,0.36843c0.57819,0.24562,1.07469,0.57942,1.48907,1.0014s0.73805,0.91738,0.97104,1.48572
			c0.23322,0.56834,0.34982,1.17131,0.34982,1.8089C88.93385,13.49907,88.81724,14.10204,88.58402,14.67038z M87.03665,11.64077
			c-0.15108-0.39197-0.36255-0.73409-0.6344-1.02726c-0.27185-0.29271-0.59785-0.52494-0.97775-0.69761
			c-0.37991-0.17221-0.79427-0.25809-1.24313-0.25809c-0.44884,0-0.86091,0.08403-1.23664,0.25162
			c-0.3755,0.16806-0.69711,0.39659-0.96456,0.68469c-0.26768,0.28902-0.47707,0.62882-0.62815,1.0208
			c-0.15108,0.39198-0.22651,0.8075-0.22651,1.24702c0,0.43907,0.07542,0.85459,0.22651,1.24656
			c0.15108,0.39198,0.36278,0.73455,0.63463,1.02726c0.27186,0.29271,0.59762,0.5254,0.97752,0.69761
			c0.37991,0.17221,0.79427,0.25855,1.24313,0.25855c0.44884,0,0.86114-0.08403,1.23664-0.25208
			c0.3755-0.16805,0.69711-0.39613,0.96479-0.68469c0.26746-0.28856,0.47684-0.62882,0.62792-1.0208
			c0.15108-0.39197,0.22674-0.8075,0.22674-1.24656C87.26339,12.44827,87.18774,12.03275,87.03665,11.64077z"/>
		<path class="st8" d="M97.18199,8.35262h1.57999v9.04404h-1.33127l-4.98799-6.43411v6.43411h-1.57976V8.35262h1.4731
			l4.84593,6.25313V8.35262z"/>
		<path class="st8" d="M104.92553,17.39666h-1.60567V9.82541h-2.87471V8.35262H107.8v1.47279h-2.87447V17.39666z"/>
		<path class="st8" d="M67.81419,29.93369l-2.23406-3.15242h-2.00037v3.15242H62v-9.04404h4.04008
			c0.51826,0,0.98608,0.06695,1.40531,0.20037c0.4183,0.13343,0.77229,0.32318,1.0615,0.56834
			c0.28921,0.24562,0.51178,0.5471,0.66679,0.90445c0.15548,0.35781,0.23322,0.75579,0.23322,1.19532
			c0,0.37905-0.05414,0.717-0.16196,1.01387c-0.10782,0.29733-0.25681,0.56003-0.44653,0.78811
			c-0.19018,0.22854-0.41646,0.42245-0.67975,0.58173c-0.26376,0.15928-0.55481,0.28209-0.87409,0.36797l2.44737,3.42389H67.81419z
			 M67.29455,22.7064c-0.329-0.25485-0.79219-0.38274-1.38958-0.38274h-2.32521v3.04946h2.33817
			c0.57146,0,1.02586-0.13851,1.36366-0.41506c0.33779-0.27701,0.50668-0.64914,0.50668-1.11591
			C67.78828,23.3403,67.62355,22.96171,67.29455,22.7064z"/>
		<path class="st8" d="M80.08994,27.20741c-0.23322,0.5688-0.56129,1.06604-0.98423,1.49264
			c-0.42294,0.42614-0.92406,0.7641-1.50201,1.01387c-0.57888,0.24977-1.21745,0.37489-1.91663,0.37489
			s-1.33821-0.12281-1.91663-0.36843c-0.57841-0.24516-1.07446-0.57896-1.48906-1.00094
			c-0.41415-0.42198-0.73805-0.91738-0.97127-1.48618c-0.23276-0.56834-0.34937-1.17131-0.34937-1.80844
			c0-0.63759,0.11661-1.24056,0.34937-1.8089c0.23322-0.56834,0.56129-1.06604,0.98422-1.49218
			c0.42294-0.4266,0.92361-0.76456,1.50202-1.01433c0.57841-0.24977,1.21744-0.37489,1.91662-0.37489
			c0.69919,0,1.33775,0.12281,1.91663,0.36843c0.57795,0.24562,1.07446,0.57942,1.48907,1.00141
			c0.41414,0.42199,0.73805,0.91738,0.97127,1.48572c0.23275,0.56834,0.34936,1.17131,0.34936,1.8089
			C80.43929,26.03611,80.32269,26.63907,80.08994,27.20741z M78.54256,24.1778c-0.15131-0.39198-0.36278-0.73409-0.63486-1.02726
			c-0.27162-0.29271-0.59785-0.52494-0.97775-0.69761c-0.3799-0.17221-0.79404-0.25808-1.24289-0.25808
			s-0.86114,0.08403-1.23688,0.25162c-0.37527,0.16806-0.69687,0.39659-0.96432,0.68469
			c-0.26792,0.28902-0.47707,0.62882-0.62839,1.0208c-0.15085,0.39197-0.22627,0.8075-0.22627,1.24702
			c0,0.43907,0.07542,0.85459,0.22627,1.24656c0.15131,0.39197,0.36278,0.73455,0.63486,1.02726
			c0.27162,0.29271,0.59738,0.5254,0.97729,0.69761c0.3799,0.17221,0.7945,0.25855,1.24335,0.25855
			c0.44885,0,0.86115-0.08403,1.23641-0.25208c0.37574-0.16805,0.69733-0.39613,0.96479-0.68469
			c0.26746-0.28856,0.47707-0.62882,0.62839-1.0208c0.15085-0.39198,0.22627-0.8075,0.22627-1.24656
			C78.76884,24.9853,78.69341,24.56978,78.54256,24.1778z"/>
		<path class="st8" d="M87.28954,20.86379h1.34654l2.22711,6.73144l2.1628-6.70559h1.67046l-3.15952,9.10868h-1.37292
			l-2.22712-6.49875l-2.22711,6.49875h-1.37245l-3.15998-9.10868h1.72227l2.1628,6.70559L87.28954,20.86379z"/>
		<path class="st8" d="M62,33.42668h1.57976v7.61003h4.76518v1.43401H62V33.42668z"/>
		<path class="st8" d="M78.6911,42.47073h-1.68341l-0.91944-2.18333h-4.28625l-0.9324,2.18333h-1.63112l3.98826-9.10868h1.47611
			L78.6911,42.47073z M73.93887,35.26144l-1.55384,3.61734h3.12064L73.93887,35.26144z"/>
		<path class="st8" d="M86.47467,34.04811c0.53399,0.41413,0.80145,0.97924,0.80145,1.69579
			c0,0.27609-0.03655,0.52171-0.10921,0.73732c-0.0731,0.21607-0.16705,0.40352-0.28272,0.56326
			c-0.11568,0.15974-0.25266,0.3001-0.4109,0.4206c-0.15871,0.12096-0.31882,0.22438-0.4817,0.31071
			c0.26608,0.09465,0.50854,0.20407,0.72741,0.32919c0.21887,0.12466,0.40767,0.27286,0.56638,0.44461
			c0.15871,0.17221,0.28088,0.37628,0.36694,0.61266c0.08561,0.23685,0.12864,0.5097,0.12864,0.81904
			c0,0.40444-0.07959,0.76133-0.23923,1.07066c-0.15918,0.3098-0.38546,0.56973-0.67837,0.78025
			c-0.2929,0.21099-0.64643,0.36982-1.06011,0.47739c-0.41367,0.10757-0.87039,0.16113-1.37014,0.16113h-4.18816v-9.04404h4.05813
			C85.21651,33.42668,85.94068,33.63398,86.47467,34.04811z M85.23132,36.94568c0.31003-0.20314,0.46504-0.51709,0.46504-0.94139
			c0-0.37259-0.13558-0.66068-0.40674-0.86382c-0.27116-0.20361-0.66448-0.30564-1.18089-0.30564h-2.28403v2.41602h2.16788
			C84.509,37.25086,84.92175,37.14929,85.23132,36.94568z M85.73662,40.74585c0.30956-0.21099,0.46458-0.5231,0.46458-0.93677
			c0-0.38736-0.1527-0.68884-0.45856-0.90445c-0.3054-0.21515-0.77229-0.32272-1.40068-0.32272h-2.51724v2.48066h2.63338
			C85.00041,41.06257,85.42659,40.95731,85.73662,40.74585z"/>
		<path class="st8" d="M91.0182,36.25638c0.06062,0.12927,0.17075,0.24977,0.33131,0.3615
			c0.15965,0.11219,0.38036,0.21561,0.66171,0.31026s0.63857,0.19391,1.07122,0.29733
			c0.47569,0.1205,0.89816,0.25393,1.26556,0.40029c0.36787,0.14635,0.67281,0.32503,0.91528,0.53602
			c0.24247,0.21145,0.42617,0.45661,0.55203,0.73639c0.1254,0.28025,0.18833,0.60943,0.18833,0.98848
			c0,0.43076-0.07959,0.81396-0.23784,1.15007c-0.15871,0.33565-0.37897,0.62005-0.66171,0.85274
			c-0.28226,0.23223-0.62191,0.40906-1.01801,0.52956C93.68954,42.53952,93.25365,42.6,92.77935,42.6
			c-0.69965,0-1.36875-0.11866-2.00732-0.3555c-0.63903-0.23685-1.22993-0.60066-1.7741-1.09143l0.95831-1.13714
			c0.44051,0.37905,0.88474,0.66991,1.33358,0.87214c0.44885,0.20268,0.95831,0.30379,1.5284,0.30379
			c0.49188,0,0.88242-0.10342,1.17163-0.31026s0.43404-0.48662,0.43404-0.83981c0-0.16344-0.02822-0.31026-0.08468-0.43907
			c-0.05598-0.12927-0.1601-0.24793-0.31142-0.3555c-0.15177-0.10757-0.35954-0.20869-0.62329-0.30379
			c-0.26376-0.09465-0.60803-0.19345-1.03189-0.29686c-0.48494-0.11173-0.91528-0.23685-1.29194-0.37489
			c-0.3762-0.13758-0.69224-0.3098-0.94767-0.51663c-0.25542-0.20684-0.45023-0.45661-0.58443-0.74932
			c-0.13373-0.29271-0.20082-0.65052-0.20082-1.07251c0-0.39613,0.07681-0.75579,0.2309-1.07897
			c0.15408-0.32272,0.36601-0.60066,0.63579-0.83335c0.26977-0.23223,0.59414-0.4109,0.97311-0.53602
			c0.37898-0.12465,0.79312-0.18744,1.24197-0.18744c0.66448,0,1.26233,0.09695,1.79354,0.29086
			c0.53075,0.19391,1.02957,0.476,1.49554,0.84628l-0.85466,1.20132c-0.41414-0.30102-0.82458-0.53141-1.22993-0.69115
			c-0.40627-0.15928-0.81579-0.23869-1.23039-0.23869c-0.46597,0-0.82875,0.10527-1.08788,0.31626
			c-0.25867,0.21145-0.38823,0.46723-0.38823,0.76871C90.92751,35.97198,90.95759,36.12711,91.0182,36.25638z"/>
	</g>
</g>
</svg>
